<svg width="195" height="86" viewBox="0 0 195 86" fill="none" xmlns="http://www.w3.org/2000/svg">
<path d="M138.096 49.08V66H133.392V56.664L130.2 66H126.264L123.048 56.592V66H118.344V49.08H124.032L128.28 60.072L132.432 49.08H138.096ZM153.638 59.112C153.638 59.48 153.614 59.848 153.566 60.216H144.662C144.71 60.952 144.91 61.504 145.262 61.872C145.63 62.224 146.094 62.4 146.654 62.4C147.438 62.4 147.998 62.048 148.334 61.344H153.35C153.142 62.272 152.734 63.104 152.126 63.84C151.534 64.56 150.782 65.128 149.87 65.544C148.958 65.96 147.95 66.168 146.846 66.168C145.518 66.168 144.334 65.888 143.294 65.328C142.27 64.768 141.462 63.968 140.87 62.928C140.294 61.888 140.006 60.664 140.006 59.256C140.006 57.848 140.294 56.632 140.87 55.608C141.446 54.568 142.246 53.768 143.27 53.208C144.31 52.648 145.502 52.368 146.846 52.368C148.174 52.368 149.35 52.64 150.374 53.184C151.398 53.728 152.198 54.512 152.774 55.536C153.35 56.544 153.638 57.736 153.638 59.112ZM148.838 57.936C148.838 57.36 148.646 56.912 148.262 56.592C147.878 56.256 147.398 56.088 146.822 56.088C146.246 56.088 145.774 56.248 145.406 56.568C145.038 56.872 144.798 57.328 144.686 57.936H148.838ZM164.371 52.416C165.923 52.416 167.155 52.936 168.067 53.976C168.979 55 169.435 56.392 169.435 58.152V66H164.731V58.776C164.731 58.008 164.531 57.408 164.131 56.976C163.731 56.528 163.195 56.304 162.523 56.304C161.819 56.304 161.267 56.528 160.867 56.976C160.467 57.408 160.267 58.008 160.267 58.776V66H155.563V52.536H160.267V54.456C160.683 53.848 161.243 53.36 161.947 52.992C162.651 52.608 163.459 52.416 164.371 52.416ZM185.792 52.536V66H181.064V64.08C180.664 64.688 180.112 65.184 179.408 65.568C178.704 65.936 177.896 66.12 176.984 66.12C175.416 66.12 174.176 65.608 173.264 64.584C172.368 63.544 171.92 62.136 171.92 60.36V52.536H176.6V59.76C176.6 60.528 176.8 61.136 177.2 61.584C177.616 62.016 178.16 62.232 178.832 62.232C179.52 62.232 180.064 62.016 180.464 61.584C180.864 61.136 181.064 60.528 181.064 59.76V52.536H185.792Z" fill="#4A802F"/>
<path d="M86.06 14.62C88.724 14.62 91.052 15.16 93.044 16.24C95.06 17.296 96.608 18.784 97.688 20.704C98.768 22.624 99.308 24.82 99.308 27.292C99.308 29.74 98.756 31.924 97.652 33.844C96.572 35.764 95.024 37.276 93.008 38.38C91.016 39.46 88.7 40 86.06 40H76.016V14.62H86.06ZM85.52 33.772C87.584 33.772 89.204 33.208 90.38 32.08C91.556 30.952 92.144 29.356 92.144 27.292C92.144 25.204 91.556 23.596 90.38 22.468C89.204 21.316 87.584 20.74 85.52 20.74H83.072V33.772H85.52ZM101.337 29.884C101.337 27.796 101.709 25.972 102.453 24.412C103.221 22.852 104.253 21.652 105.549 20.812C106.869 19.972 108.333 19.552 109.941 19.552C111.333 19.552 112.533 19.828 113.541 20.38C114.549 20.932 115.329 21.676 115.881 22.612V19.804H122.937V40H115.881V37.192C115.329 38.128 114.537 38.872 113.505 39.424C112.497 39.976 111.309 40.252 109.941 40.252C108.333 40.252 106.869 39.832 105.549 38.992C104.253 38.152 103.221 36.952 102.453 35.392C101.709 33.808 101.337 31.972 101.337 29.884ZM115.881 29.884C115.881 28.588 115.521 27.568 114.801 26.824C114.105 26.08 113.241 25.708 112.209 25.708C111.153 25.708 110.277 26.08 109.581 26.824C108.885 27.544 108.537 28.564 108.537 29.884C108.537 31.18 108.885 32.212 109.581 32.98C110.277 33.724 111.153 34.096 112.209 34.096C113.241 34.096 114.105 33.724 114.801 32.98C115.521 32.236 115.881 31.204 115.881 29.884ZM137.865 25.672H134.697V40H127.605V25.672H125.409V19.804H127.605V19.624C127.605 17.032 128.361 15.052 129.873 13.684C131.409 12.292 133.605 11.596 136.461 11.596C137.037 11.596 137.481 11.608 137.793 11.632V17.644C137.601 17.62 137.337 17.608 137.001 17.608C136.233 17.608 135.669 17.788 135.309 18.148C134.949 18.484 134.745 19.036 134.697 19.804H137.865V25.672ZM152.303 33.988V40H149.243C144.083 40 141.503 37.444 141.503 32.332V25.672H139.019V19.804H141.503V14.908H148.595V19.804H152.267V25.672H148.595V32.44C148.595 32.992 148.715 33.388 148.955 33.628C149.219 33.868 149.651 33.988 150.251 33.988H152.303ZM154.387 29.884C154.387 27.796 154.759 25.972 155.503 24.412C156.271 22.852 157.303 21.652 158.599 20.812C159.919 19.972 161.383 19.552 162.991 19.552C164.383 19.552 165.583 19.828 166.591 20.38C167.599 20.932 168.379 21.676 168.931 22.612V19.804H175.987V40H168.931V37.192C168.379 38.128 167.587 38.872 166.555 39.424C165.547 39.976 164.359 40.252 162.991 40.252C161.383 40.252 159.919 39.832 158.599 38.992C157.303 38.152 156.271 36.952 155.503 35.392C154.759 33.808 154.387 31.972 154.387 29.884ZM168.931 29.884C168.931 28.588 168.571 27.568 167.851 26.824C167.155 26.08 166.291 25.708 165.259 25.708C164.203 25.708 163.327 26.08 162.631 26.824C161.935 27.544 161.587 28.564 161.587 29.884C161.587 31.18 161.935 32.212 162.631 32.98C163.327 33.724 164.203 34.096 165.259 34.096C166.291 34.096 167.155 33.724 167.851 32.98C168.571 32.236 168.931 31.204 168.931 29.884ZM187.064 23.368C187.856 22.216 188.816 21.304 189.944 20.632C191.072 19.96 192.284 19.624 193.58 19.624V27.148H191.6C190.064 27.148 188.924 27.448 188.18 28.048C187.436 28.648 187.064 29.692 187.064 31.18V40H180.008V19.804H187.064V23.368Z" fill="#BAF29D"/>
<path d="M0 23.3626C0 15.9827 5.98266 10 13.3626 10H27.8993C48.0071 10 64.3077 26.3006 64.3077 46.4084C64.3077 68.2742 46.5819 86 24.7161 86H12.0741C5.40575 86 0 80.5942 0 73.9259V23.3626Z" fill="#BAF29D"/>
<path d="M20.5382 54.84C18.8518 54.8667 17.5112 56.2503 17.5384 57.9691C17.5421 58.3687 17.6257 58.7636 17.7842 59.1304C17.9427 59.4972 18.173 59.8287 18.4615 60.1052C18.7499 60.3817 19.0908 60.5978 19.464 60.7406C19.8373 60.8834 20.2353 60.9502 20.6347 60.9369L53.1381 60.1052C55.0513 60.0774 56.9318 59.6046 58.6306 58.7241C60.3294 57.8437 61.7999 56.5798 62.9257 55.0325C64.7314 52.2986 71.3375 52.194 71.3375 52.194L105.964 52.1935C108.267 52.157 110.118 50.2463 110.082 47.9437L110.065 46.9059C110.029 44.6033 108.118 42.7521 105.816 42.7886L71.2244 42.7886C71.2244 42.7886 64.748 42.8911 62.6938 40.176C61.5181 38.6765 60.0107 37.4699 58.2901 36.6512C56.5694 35.8325 54.6824 35.4238 52.7772 35.4574L20.5374 35.7985C20.1287 35.8047 19.7255 35.8931 19.3517 36.0583C18.9779 36.2235 18.6411 36.4622 18.3613 36.7601C18.0816 37.0581 17.8646 37.4093 17.7233 37.7928C17.582 38.1763 17.5387 38.9925 17.5387 38.9925C17.5973 40.6459 19.0772 41.9201 20.7636 41.8934L44.3768 41.6888C44.7983 41.6822 45.2051 41.8432 45.5079 42.1365C45.8106 42.4298 45.9844 42.8313 45.9911 43.2528C45.9978 43.6743 45.8367 44.0811 45.5434 44.3838C45.2501 44.6866 44.8486 44.8604 44.4271 44.867L29.2309 45.0769C28.8222 45.0832 28.419 45.1716 28.0452 45.3368C27.6713 45.502 27.3345 45.7406 27.0548 46.0386C26.7751 46.3366 26.5581 46.6877 26.4168 47.0712C26.2754 47.4547 26.2127 47.8627 26.2322 48.271C26.2908 49.9244 27.7707 51.1985 29.4571 51.1718L44.5236 50.964C44.9451 50.9573 45.3519 51.1184 45.6547 51.4117C45.9574 51.705 46.1312 52.1065 46.1379 52.528C46.1446 52.9494 45.9835 53.3563 45.6902 53.659C45.3969 53.9617 44.9954 54.1355 44.5739 54.1422L20.5382 54.84Z" fill="#4A802F"/>
</svg>
