<svg width="24" height="24" viewBox="0 0 24 24" fill="none" xmlns="http://www.w3.org/2000/svg">
<g opacity="0.35" filter="url(#filter0_bii_442_17572)">
<path fill-rule="evenodd" clip-rule="evenodd" d="M11.0127 2.66574C10.7247 3.03199 10.4233 3.59449 10.3425 3.91574C10.2617 4.23724 10.0985 4.50024 9.97925 4.50024C9.69925 4.50024 9 5.85124 9 6.39224C9 6.80574 8.005 8.16374 6.99775 9.12524C6.70975 9.40024 6.05375 10.0267 5.54025 10.5175C4.5935 11.4217 4 12.826 4 14.1607C4 14.856 3.9565 14.8842 3.024 14.7955C1.7775 14.6765 1 15.369 1 16.5982C1 17.748 2.8335 19.7827 4.734 20.7422C6.846 21.8082 8.68475 22.0762 13.079 21.9582C16.8205 21.8577 16.973 21.8322 18.582 21.04C20.258 20.215 21.3312 19.1437 22.4565 17.1735C23.6915 15.0107 22.7362 13.598 20.7375 14.6317L20 15.013L19.9985 14.1942C19.996 12.641 19.4788 11.4172 18.41 10.4362C16.6342 8.80599 16.3917 8.55824 15.7747 7.74574C15.4447 7.31099 14.9295 6.84349 14.63 6.70699C14.3305 6.57049 13.9465 6.07449 13.7767 5.60474C13.6067 5.13499 13.2595 4.63899 13.0048 4.50274C12.6083 4.29049 12.5815 4.14974 12.818 3.52274C13.3562 2.09674 11.9757 1.44149 11.0127 2.66574Z" fill="#213F12"/>
</g>
<g filter="url(#filter1_bii_442_17572)">
<path fill-rule="evenodd" clip-rule="evenodd" d="M10.9972 2.94132C10.3062 4.07457 10.3663 4.25382 11.4373 4.25382C12.6308 4.25382 13.1908 3.62132 12.7852 2.73132C12.3927 1.87007 11.5932 1.96382 10.9972 2.94132ZM9.5435 6.49982C8.8475 6.85357 8.4525 7.28607 8 7.99982C7.60875 8.61682 6.58775 9.64682 6 9.99982C5.14175 10.5151 5.2235 10.7558 5.625 10.8193C6.9665 11.0311 7.269 11.1906 7.6205 11.8701C7.82925 12.2738 8 12.9858 8 13.4526C8 14.4451 8.6295 15.1288 9.5435 15.1288C10.661 15.1288 11 14.4406 11 12.1716C11 10.4621 11.0815 10.0473 11.5 9.62882C11.775 9.35382 12.225 9.12882 12.5 9.12882C13.498 9.12882 14 9.99457 14 11.7151C14 13.4806 14.4145 14.1288 15.5435 14.1288C16.417 14.1288 17 13.3888 17 12.2798C17 11.4276 17.0495 11.3598 17.5625 11.5126C17.8717 11.6048 18.4843 11.8861 18.9233 12.1376C19.6458 12.5518 19.7065 12.5551 19.565 12.1743C19.256 11.3423 18.3985 10.0068 17.5 9.49982C16.9967 9.21582 16.259 8.48457 16 7.99982C14 5.49982 11.7822 5.36282 9.5435 6.49982ZM19.464 15.3983C17.9598 16.0128 16.1025 16.5393 14.5265 16.7981C12.1812 17.1828 11.8212 17.1833 9.50775 16.8036C8.13725 16.5786 6.14025 16.0541 5.07025 15.6378C4.0005 15.2216 3.24675 15.0004 3 14.9999C2.5 14.9999 1 14.8801 1 16.7066C1 17.5583 2.50425 19.4201 3.921 20.3218C6.054 21.6796 7.63675 22.0031 12.125 21.9998C18.0257 21.9953 19.8097 21.2373 22.0405 17.7861C23.0758 16.1843 23.6178 15.1179 23 14.4999C22 13.9999 20.5 14.4999 19.464 15.3983Z" fill="#213F12"/>
</g>
<defs>
<filter id="filter0_bii_442_17572" x="-11" y="-9.97754" width="46.0078" height="43.9614" filterUnits="userSpaceOnUse" color-interpolation-filters="sRGB">
<feFlood flood-opacity="0" result="BackgroundImageFix"/>
<feGaussianBlur in="BackgroundImageFix" stdDeviation="6"/>
<feComposite in2="SourceAlpha" operator="in" result="effect1_backgroundBlur_442_17572"/>
<feBlend mode="normal" in="SourceGraphic" in2="effect1_backgroundBlur_442_17572" result="shape"/>
<feColorMatrix in="SourceAlpha" type="matrix" values="0 0 0 0 0 0 0 0 0 0 0 0 0 0 0 0 0 0 127 0" result="hardAlpha"/>
<feOffset dx="-1.24988" dy="1.24988"/>
<feGaussianBlur stdDeviation="0.624942"/>
<feComposite in2="hardAlpha" operator="arithmetic" k2="-1" k3="1"/>
<feColorMatrix type="matrix" values="0 0 0 0 1 0 0 0 0 1 0 0 0 0 1 0 0 0 0.1 0"/>
<feBlend mode="normal" in2="shape" result="effect2_innerShadow_442_17572"/>
<feColorMatrix in="SourceAlpha" type="matrix" values="0 0 0 0 0 0 0 0 0 0 0 0 0 0 0 0 0 0 127 0" result="hardAlpha"/>
<feOffset dx="1.24988" dy="-1.24988"/>
<feGaussianBlur stdDeviation="0.624942"/>
<feComposite in2="hardAlpha" operator="arithmetic" k2="-1" k3="1"/>
<feColorMatrix type="matrix" values="0 0 0 0 0.76 0 0 0 0 0.76 0 0 0 0 0.76 0 0 0 0.096 0"/>
<feBlend mode="normal" in2="effect2_innerShadow_442_17572" result="effect3_innerShadow_442_17572"/>
</filter>
<filter id="filter1_bii_442_17572" x="-11" y="-9.85791" width="46.2612" height="43.8579" filterUnits="userSpaceOnUse" color-interpolation-filters="sRGB">
<feFlood flood-opacity="0" result="BackgroundImageFix"/>
<feGaussianBlur in="BackgroundImageFix" stdDeviation="6"/>
<feComposite in2="SourceAlpha" operator="in" result="effect1_backgroundBlur_442_17572"/>
<feBlend mode="normal" in="SourceGraphic" in2="effect1_backgroundBlur_442_17572" result="shape"/>
<feColorMatrix in="SourceAlpha" type="matrix" values="0 0 0 0 0 0 0 0 0 0 0 0 0 0 0 0 0 0 127 0" result="hardAlpha"/>
<feOffset dx="-1.24988" dy="1.24988"/>
<feGaussianBlur stdDeviation="0.624942"/>
<feComposite in2="hardAlpha" operator="arithmetic" k2="-1" k3="1"/>
<feColorMatrix type="matrix" values="0 0 0 0 1 0 0 0 0 1 0 0 0 0 1 0 0 0 0.1 0"/>
<feBlend mode="normal" in2="shape" result="effect2_innerShadow_442_17572"/>
<feColorMatrix in="SourceAlpha" type="matrix" values="0 0 0 0 0 0 0 0 0 0 0 0 0 0 0 0 0 0 127 0" result="hardAlpha"/>
<feOffset dx="1.24988" dy="-1.24988"/>
<feGaussianBlur stdDeviation="0.624942"/>
<feComposite in2="hardAlpha" operator="arithmetic" k2="-1" k3="1"/>
<feColorMatrix type="matrix" values="0 0 0 0 0.76 0 0 0 0 0.76 0 0 0 0 0.76 0 0 0 0.096 0"/>
<feBlend mode="normal" in2="effect2_innerShadow_442_17572" result="effect3_innerShadow_442_17572"/>
</filter>
</defs>
</svg>
