<svg width="178" height="132" viewBox="0 0 178 132" fill="none" xmlns="http://www.w3.org/2000/svg">
<g clip-path="url(#clip0_71_1236)">
<g clip-path="url(#clip1_71_1236)" filter="url(#filter0_bii_71_1236)">
<g filter="url(#filter1_bii_71_1236)">
<path d="M102.373 95.9659L102.851 100.084L125.447 97.4527L125.806 100.539L103.331 104.203L103.811 108.318L126.524 106.715L126.884 109.801L104.293 112.436L104.789 116.71C104.789 116.71 118.737 117.01 137.896 114.779C137.896 114.779 140.054 111.132 140.575 106.18L149.971 105.434L152.812 141.249C152.812 141.249 155.076 142.75 159.192 142.27C163.308 141.789 165.162 139.81 165.162 139.81L156.927 86.3366C163.3 83.8032 167.429 77.2479 166.314 67.6881C164.972 56.1688 156.534 44.6648 147.894 45.6706C139.255 46.6773 133.687 59.8143 135.03 71.3336C136.148 80.9314 141.713 86.3641 148.536 87.3332L149.252 96.343L139.604 97.8281C137.957 93.1282 135.019 90.0762 135.019 90.0762C115.862 92.3085 102.373 95.9659 102.373 95.9659ZM162.639 94.2825L165.414 104.208L195.127 101.851C195.127 101.851 196.627 99.5882 196.148 95.471C195.669 91.3547 193.688 89.5008 193.688 89.5008L162.639 94.2825Z" fill="#DDFFCD"/>
</g>
</g>
<path fill-rule="evenodd" clip-rule="evenodd" d="M72.7716 9.10534C70.5265 9.50999 68.7566 11.0541 68.2965 13.0096C68.1282 13.7249 68.1826 14.5059 68.439 15.055C68.9039 16.0506 69.7074 16.4973 72.0901 17.0847C73.4252 17.4138 73.9091 17.5998 73.9922 17.8157C74.0189 17.8853 74.0409 18.0645 74.0409 18.2141C74.0409 18.5555 73.726 18.8911 73.2934 19.0109C72.8919 19.1221 71.9399 19.1198 71.4892 19.0066C71.0134 18.8872 70.4981 18.3966 70.378 17.9489C70.3166 17.7198 70.2483 17.6194 70.1558 17.6222C70.0823 17.6244 69.2673 17.7574 68.3446 17.9177L66.6669 18.2091L66.6423 18.4599C66.5802 19.0935 67.1295 20.2851 67.7561 20.876C68.241 21.3333 68.746 21.6008 69.569 21.8363C70.0972 21.9874 70.36 22.0105 71.5439 22.0094C72.6915 22.0083 73.0197 21.9806 73.6005 21.8355C74.5039 21.6099 75.2275 21.3018 75.8983 20.8571C78.1411 19.3706 78.8733 16.4997 77.3965 14.9826C76.8738 14.4455 76.1805 14.1677 74.1579 13.6848C72.315 13.2448 72.055 13.0717 72.2676 12.4273C72.4425 11.8972 73.2225 11.6296 74.151 11.7814C74.862 11.8975 75.2838 12.2487 75.4734 12.8824C75.5064 12.9925 75.732 12.9467 77.1965 12.5322L78.8815 12.0553L78.8353 11.8219C78.7385 11.3344 78.276 10.4954 77.8966 10.1191C77.4193 9.64584 76.6136 9.25223 75.807 9.09834C75.055 8.95487 73.5873 8.95821 72.7716 9.10534ZM117.231 9.0315C117.145 9.04878 116.865 9.10254 116.607 9.15101C113.316 9.77032 110.69 13.4388 110.685 17.4237C110.683 18.8909 110.927 19.6661 111.681 20.5887C112.115 21.1198 112.745 21.5465 113.477 21.8046C113.963 21.9759 114.168 22.001 115.124 22.0071C116.061 22.013 116.3 21.9882 116.802 21.8329C117.495 21.6187 118.108 21.2948 118.611 20.8775C118.812 20.7109 118.993 20.5747 119.013 20.5747C119.051 20.5747 119.178 21.1059 119.259 21.6056L119.306 21.8974H121.144L121.86 18.3765C122.254 16.44 122.576 14.8294 122.576 14.7975C122.576 14.7656 121.297 14.7395 119.734 14.7395H116.891L116.808 15.148C116.762 15.3727 116.641 15.9678 116.54 16.4706L116.355 17.3848H117.398C118.599 17.3848 118.597 17.3829 118.213 18.0499C117.467 19.347 115.484 19.4439 114.923 18.2107C114.528 17.3454 114.945 14.6631 115.697 13.2223C116.212 12.2364 116.833 11.7757 117.662 11.7642C118.555 11.7519 119.065 12.3458 119.065 13.3969V13.7376L119.397 13.6946C119.579 13.671 120.325 13.5974 121.055 13.5313C121.784 13.4652 122.499 13.3927 122.642 13.3702L122.903 13.3292L122.847 12.7701C122.591 10.2144 121.055 8.96039 118.219 8.99113C117.762 8.9961 117.317 9.01431 117.231 9.0315ZM83.904 9.70178C83.7484 10.012 82.3102 12.8217 80.7083 15.9454C79.1062 19.0692 77.7721 21.6863 77.7435 21.7612C77.6952 21.888 77.7978 21.8974 79.2422 21.8974H80.7928L82.079 19.3269L85.5505 19.3688L85.6422 20.3802C85.6927 20.9365 85.7365 21.5055 85.7397 21.6445L85.7456 21.8974H89.7154L89.6791 21.6445C89.6233 21.2566 88.3206 9.36505 88.3206 9.24406C88.3206 9.15677 87.9493 9.13771 86.2538 9.13771H84.1869L83.904 9.70178ZM93.5124 9.30467C93.4371 9.62358 90.9737 21.7928 90.9737 21.8462C90.9737 21.9261 95.9154 21.9022 96.7827 21.8181C97.7707 21.7224 98.5749 21.5018 99.3544 21.1129C102.016 19.7853 103.725 16.9723 103.701 13.9615C103.686 12.0655 102.807 10.4449 101.43 9.7746C100.325 9.23667 100.011 9.19637 96.615 9.157L93.5558 9.1216L93.5124 9.30467ZM106.542 9.31276C106.466 9.63572 104.005 21.7945 104.005 21.8476C104.005 21.8765 104.871 21.8907 105.931 21.8792L107.856 21.8585L109.129 15.5953C109.829 12.1506 110.402 9.28849 110.403 9.23496C110.403 9.1598 109.97 9.13771 108.493 9.13771H106.583L106.542 9.31276ZM125.815 9.31276C125.737 9.64233 123.28 21.7806 123.279 21.8403C123.279 21.8732 124.145 21.8907 125.205 21.8792L127.131 21.8585L128.403 15.5953C129.103 12.1506 129.676 9.28849 129.677 9.23496C129.677 9.1598 129.244 9.13771 127.767 9.13771H125.857L125.815 9.31276ZM130.888 9.23496C130.841 9.37594 130.302 12.0059 130.302 12.096C130.302 12.1424 130.814 12.172 131.619 12.172H132.936L131.97 16.9289C131.439 19.5451 131.004 21.734 131.004 21.7929C131.004 21.8816 131.318 21.8966 132.816 21.8793L134.627 21.8585L136.587 12.2109L139.253 12.1684L139.537 10.7503C139.694 9.97035 139.821 9.28849 139.821 9.23496C139.821 9.0925 130.936 9.0925 130.888 9.23496ZM98.7908 12.2436C99.4118 12.6679 99.6838 13.4721 99.6086 14.6617C99.5207 16.0513 99.0122 17.3013 98.2032 18.1164C97.5712 18.753 97.1706 18.9327 96.2481 18.9931C95.8281 19.0206 95.5034 19.0101 95.4774 18.9682C95.4528 18.9284 95.746 17.3567 96.1291 15.4756C96.5121 13.5944 96.8257 12.0427 96.8258 12.0272C96.826 12.0118 97.2066 12.0122 97.6718 12.0281C98.409 12.0532 98.5526 12.0809 98.7908 12.2436ZM85.27 14.5061C85.3212 15.2549 85.3834 16.034 85.4083 16.2372L85.4536 16.6068H84.3901C83.8052 16.6068 83.3266 16.5883 83.3266 16.5658C83.3266 16.5434 83.6638 15.8343 84.0759 14.9903C84.488 14.1463 84.8776 13.3349 84.9418 13.1873C85.1176 12.7828 85.1652 12.9742 85.27 14.5061Z" fill="#DDFFCD"/>
<path fill-rule="evenodd" clip-rule="evenodd" d="M52.3012 8.56407C52.131 8.87435 51.1415 10.7212 50.1024 12.6682C49.0633 14.6152 48.0736 16.4629 47.9029 16.7743L47.5928 17.3403L47.8919 17.2245C48.0565 17.1608 49.0988 16.7947 50.2081 16.4109C51.3176 16.027 52.2345 15.7018 52.2457 15.6882C52.257 15.6747 52.5901 15.1034 52.9861 14.4187C53.382 13.7341 53.7332 13.1453 53.7666 13.1105C53.8 13.0756 55.1943 13.0894 56.8651 13.1411L59.9028 13.2351L63.2706 10.6759C65.1228 9.26834 66.6399 8.09048 66.6419 8.05835C66.6439 8.02622 63.4878 8 59.6282 8H52.6108L52.3012 8.56407ZM61.7296 14.5492C60.5064 14.9742 59.4652 15.3637 59.4158 15.4149C59.3664 15.4661 59.0031 16.0681 58.6083 16.7528C58.2135 17.4375 57.8853 18.0024 57.8788 18.0082C57.8723 18.0139 56.4975 17.9749 54.8238 17.9213C53.15 17.8677 51.7454 17.8493 51.7025 17.8803C51.6596 17.9113 50.134 19.0708 48.3122 20.4568L45 22.977L52.0144 22.9969C55.8724 23.0078 59.0566 22.9891 59.0905 22.9552C59.1803 22.8658 64.0064 13.8225 63.9776 13.7976C63.9643 13.786 62.9527 14.1243 61.7296 14.5492Z" fill="#DDFFCD"/>
</g>
<defs>
<filter id="filter0_bii_71_1236" x="71" y="20" width="158.852" height="158.852" filterUnits="userSpaceOnUse" color-interpolation-filters="sRGB">
<feFlood flood-opacity="0" result="BackgroundImageFix"/>
<feGaussianBlur in="BackgroundImageFix" stdDeviation="6"/>
<feComposite in2="SourceAlpha" operator="in" result="effect1_backgroundBlur_71_1236"/>
<feBlend mode="normal" in="SourceGraphic" in2="effect1_backgroundBlur_71_1236" result="shape"/>
<feColorMatrix in="SourceAlpha" type="matrix" values="0 0 0 0 0 0 0 0 0 0 0 0 0 0 0 0 0 0 127 0" result="hardAlpha"/>
<feOffset dx="-1.24988" dy="1.24988"/>
<feGaussianBlur stdDeviation="0.624942"/>
<feComposite in2="hardAlpha" operator="arithmetic" k2="-1" k3="1"/>
<feColorMatrix type="matrix" values="0 0 0 0 1 0 0 0 0 1 0 0 0 0 1 0 0 0 0.1 0"/>
<feBlend mode="normal" in2="shape" result="effect2_innerShadow_71_1236"/>
<feColorMatrix in="SourceAlpha" type="matrix" values="0 0 0 0 0 0 0 0 0 0 0 0 0 0 0 0 0 0 127 0" result="hardAlpha"/>
<feOffset dx="1.24988" dy="-1.24988"/>
<feGaussianBlur stdDeviation="0.624942"/>
<feComposite in2="hardAlpha" operator="arithmetic" k2="-1" k3="1"/>
<feColorMatrix type="matrix" values="0 0 0 0 0.76 0 0 0 0 0.76 0 0 0 0 0.76 0 0 0 0.096 0"/>
<feBlend mode="normal" in2="effect2_innerShadow_71_1236" result="effect3_innerShadow_71_1236"/>
</filter>
<filter id="filter1_bii_71_1236" x="90.3734" y="33.6091" width="117.869" height="120.756" filterUnits="userSpaceOnUse" color-interpolation-filters="sRGB">
<feFlood flood-opacity="0" result="BackgroundImageFix"/>
<feGaussianBlur in="BackgroundImageFix" stdDeviation="6"/>
<feComposite in2="SourceAlpha" operator="in" result="effect1_backgroundBlur_71_1236"/>
<feBlend mode="normal" in="SourceGraphic" in2="effect1_backgroundBlur_71_1236" result="shape"/>
<feColorMatrix in="SourceAlpha" type="matrix" values="0 0 0 0 0 0 0 0 0 0 0 0 0 0 0 0 0 0 127 0" result="hardAlpha"/>
<feOffset dx="-1.24988" dy="1.24988"/>
<feGaussianBlur stdDeviation="0.624942"/>
<feComposite in2="hardAlpha" operator="arithmetic" k2="-1" k3="1"/>
<feColorMatrix type="matrix" values="0 0 0 0 1 0 0 0 0 1 0 0 0 0 1 0 0 0 0.1 0"/>
<feBlend mode="normal" in2="shape" result="effect2_innerShadow_71_1236"/>
<feColorMatrix in="SourceAlpha" type="matrix" values="0 0 0 0 0 0 0 0 0 0 0 0 0 0 0 0 0 0 127 0" result="hardAlpha"/>
<feOffset dx="1.24988" dy="-1.24988"/>
<feGaussianBlur stdDeviation="0.624942"/>
<feComposite in2="hardAlpha" operator="arithmetic" k2="-1" k3="1"/>
<feColorMatrix type="matrix" values="0 0 0 0 0.76 0 0 0 0 0.76 0 0 0 0 0.76 0 0 0 0.096 0"/>
<feBlend mode="normal" in2="effect2_innerShadow_71_1236" result="effect3_innerShadow_71_1236"/>
</filter>
<clipPath id="clip0_71_1236">
<rect width="178" height="132" fill="white"/>
</clipPath>
<clipPath id="clip1_71_1236">
<rect width="96" height="96" fill="white" transform="translate(83 107.283) rotate(-51.6465)"/>
</clipPath>
</defs>
</svg>
