<svg width="24" height="24" viewBox="0 0 24 24" fill="none" xmlns="http://www.w3.org/2000/svg">
<g opacity="0.35" filter="url(#filter0_bii_442_17596)">
<path fill-rule="evenodd" clip-rule="evenodd" d="M4.66844 2.94869C3.52344 3.14519 2.22944 3.60219 1.79344 3.96419C0.689436 4.88019 0.801936 6.86819 1.99994 7.61619C2.90244 8.17969 2.99994 8.78219 2.99994 13.7932C2.99994 21.2252 2.72144 21.0002 11.9144 21.0002C21.1624 21.0002 20.9999 21.1347 20.9999 13.4847C20.9999 9.10669 21.1509 7.91069 21.7309 7.68819C22.7554 7.29519 23.1539 5.72219 22.5264 4.54969C22.1724 3.88769 21.2954 3.47419 19.8734 3.29819C15.8569 2.80119 6.74694 2.59169 4.66844 2.94869Z" fill="#213F12"/>
</g>
<g filter="url(#filter1_bii_442_17596)">
<path fill-rule="evenodd" clip-rule="evenodd" d="M3.29262 3.02221C0.878125 3.74421 -0.186379 6.05616 1.50012 7.50016C2.38512 8.25816 3.00012 8.84121 3.00012 13.6112C3.00012 20.1787 3.50062 21.0002 7.50012 21.0002H10.0001L9.00012 20.0002C8.12712 19.1272 8.00012 18.3337 8.00012 13.7502C8.00012 9.16671 7.87313 8.37321 7.00012 7.50021C5.29212 5.79221 6.09762 4.09074 8.50012 3.50024C9.05012 3.36474 11.0001 2.50024 7.50012 2.50024C6.26262 2.49174 4.09412 2.78221 3.29262 3.02221ZM10.2231 5.54371C9.70812 6.37771 10.8666 7.33371 11.5566 6.64371C12.1336 6.06671 11.7726 5.00021 11.0001 5.00021C10.7576 5.00021 10.4081 5.24471 10.2231 5.54371ZM16.2231 5.54371C15.7081 6.37771 16.8666 7.33371 17.5566 6.64371C18.1336 6.06671 17.7726 5.00021 17.0001 5.00021C16.7576 5.00021 16.4081 5.24471 16.2231 5.54371ZM12.2231 9.54371C11.7081 10.3777 12.8666 11.3337 13.5566 10.6437C14.1336 10.0667 13.7726 9.00021 13.0001 9.00021C12.7576 9.00021 12.4081 9.24471 12.2231 9.54371ZM17.2231 10.5437C16.7081 11.3777 17.8666 12.3337 18.5566 11.6437C19.1336 11.0667 18.7726 10.0002 18.0001 10.0002C17.7576 10.0002 17.4081 10.2447 17.2231 10.5437ZM10.2231 14.5437C9.70812 15.3777 10.8666 16.3337 11.5566 15.6437C12.1336 15.0667 11.7726 14.0002 11.0001 14.0002C10.7576 14.0002 10.4081 14.2447 10.2231 14.5437ZM17.2231 15.5437C16.7081 16.3777 17.8666 17.3337 18.5566 16.6437C19.1336 16.0667 18.7726 15.0002 18.0001 15.0002C17.7576 15.0002 17.4081 15.2447 17.2231 15.5437ZM13.2231 17.5437C12.7081 18.3777 13.8666 19.3337 14.5566 18.6437C15.1336 18.0667 14.7726 17.0002 14.0001 17.0002C13.7576 17.0002 13.4081 17.2447 13.2231 17.5437Z" fill="#213F12"/>
</g>
<defs>
<filter id="filter0_bii_442_17596" x="-10.9707" y="-9.22998" width="45.7974" height="42.231" filterUnits="userSpaceOnUse" color-interpolation-filters="sRGB">
<feFlood flood-opacity="0" result="BackgroundImageFix"/>
<feGaussianBlur in="BackgroundImageFix" stdDeviation="6"/>
<feComposite in2="SourceAlpha" operator="in" result="effect1_backgroundBlur_442_17596"/>
<feBlend mode="normal" in="SourceGraphic" in2="effect1_backgroundBlur_442_17596" result="shape"/>
<feColorMatrix in="SourceAlpha" type="matrix" values="0 0 0 0 0 0 0 0 0 0 0 0 0 0 0 0 0 0 127 0" result="hardAlpha"/>
<feOffset dx="-1.24988" dy="1.24988"/>
<feGaussianBlur stdDeviation="0.624942"/>
<feComposite in2="hardAlpha" operator="arithmetic" k2="-1" k3="1"/>
<feColorMatrix type="matrix" values="0 0 0 0 1 0 0 0 0 1 0 0 0 0 1 0 0 0 0.1 0"/>
<feBlend mode="normal" in2="shape" result="effect2_innerShadow_442_17596"/>
<feColorMatrix in="SourceAlpha" type="matrix" values="0 0 0 0 0 0 0 0 0 0 0 0 0 0 0 0 0 0 127 0" result="hardAlpha"/>
<feOffset dx="1.24988" dy="-1.24988"/>
<feGaussianBlur stdDeviation="0.624942"/>
<feComposite in2="hardAlpha" operator="arithmetic" k2="-1" k3="1"/>
<feColorMatrix type="matrix" values="0 0 0 0 0.76 0 0 0 0 0.76 0 0 0 0 0.76 0 0 0 0.096 0"/>
<feBlend mode="normal" in2="effect2_innerShadow_442_17596" result="effect3_innerShadow_442_17596"/>
</filter>
<filter id="filter1_bii_442_17596" x="-11.3213" y="-9.5" width="42.1616" height="42.5" filterUnits="userSpaceOnUse" color-interpolation-filters="sRGB">
<feFlood flood-opacity="0" result="BackgroundImageFix"/>
<feGaussianBlur in="BackgroundImageFix" stdDeviation="6"/>
<feComposite in2="SourceAlpha" operator="in" result="effect1_backgroundBlur_442_17596"/>
<feBlend mode="normal" in="SourceGraphic" in2="effect1_backgroundBlur_442_17596" result="shape"/>
<feColorMatrix in="SourceAlpha" type="matrix" values="0 0 0 0 0 0 0 0 0 0 0 0 0 0 0 0 0 0 127 0" result="hardAlpha"/>
<feOffset dx="-1.24988" dy="1.24988"/>
<feGaussianBlur stdDeviation="0.624942"/>
<feComposite in2="hardAlpha" operator="arithmetic" k2="-1" k3="1"/>
<feColorMatrix type="matrix" values="0 0 0 0 1 0 0 0 0 1 0 0 0 0 1 0 0 0 0.1 0"/>
<feBlend mode="normal" in2="shape" result="effect2_innerShadow_442_17596"/>
<feColorMatrix in="SourceAlpha" type="matrix" values="0 0 0 0 0 0 0 0 0 0 0 0 0 0 0 0 0 0 127 0" result="hardAlpha"/>
<feOffset dx="1.24988" dy="-1.24988"/>
<feGaussianBlur stdDeviation="0.624942"/>
<feComposite in2="hardAlpha" operator="arithmetic" k2="-1" k3="1"/>
<feColorMatrix type="matrix" values="0 0 0 0 0.76 0 0 0 0 0.76 0 0 0 0 0.76 0 0 0 0.096 0"/>
<feBlend mode="normal" in2="effect2_innerShadow_442_17596" result="effect3_innerShadow_442_17596"/>
</filter>
</defs>
</svg>
