<svg width="24" height="24" viewBox="0 0 24 24" fill="none" xmlns="http://www.w3.org/2000/svg">
<g opacity="0.35" filter="url(#filter0_bii_442_17614)">
<path fill-rule="evenodd" clip-rule="evenodd" d="M8.75017 4.35704C8.13142 4.52879 7.28767 4.84704 6.87517 5.06454C5.45042 5.81554 3.25017 8.51629 3.25017 9.51404C3.25017 9.67304 2.96892 10.0243 2.62517 10.2948C1.85692 10.899 1.79842 11.99 2.50017 12.625C3.13592 13.2003 3.13592 13.7998 2.50017 14.375C1.81642 14.9938 1.85642 16.1008 2.58317 16.6723C2.90367 16.9245 3.24417 17.4418 3.33942 17.8218C3.58592 18.804 5.29742 20.4203 6.42142 20.7323C7.66017 21.0763 16.3402 21.0763 17.5789 20.7323C18.7029 20.4203 20.4144 18.804 20.6609 17.8218C20.7562 17.4418 21.0967 16.9245 21.4172 16.6723C22.1439 16.1008 22.1839 14.9938 21.5002 14.375C21.2252 14.1263 21.0002 13.7325 21.0002 13.5C21.0002 13.2675 21.2252 12.8738 21.5002 12.625C22.2019 11.99 22.1434 10.899 21.3752 10.2948C21.0314 10.0243 20.7502 9.67304 20.7502 9.51404C20.7502 8.51554 18.5477 5.81329 17.1252 5.06604C15.1499 4.02854 11.1527 3.69029 8.75017 4.35704Z" fill="#213F12"/>
</g>
<g filter="url(#filter1_bii_442_17614)">
<path fill-rule="evenodd" clip-rule="evenodd" d="M11.0565 4.29475C11.24 4.84525 11.9662 5.14375 12.4225 4.85575C13.2475 4.3355 13.0817 4 12 4C11.3115 4 10.9918 4.1 11.0565 4.29475ZM6.93 5.147C6.20225 5.5415 6.221 6 6.96475 6C7.47825 6 8 5.534 8 5.075C8 4.6635 7.79625 4.67725 6.93 5.147ZM16 5.075C16 5.534 16.5217 6 17.0352 6C17.799 6 17.7913 5.53425 17.0205 5.13575C16.113 4.66625 16 4.65975 16 5.075ZM9.26 6.363C8.59575 7.16325 9.57125 8.3925 10.4375 7.847C10.993 7.49725 11.1287 6.83125 10.74 6.363C10.354 5.89775 9.646 5.89775 9.26 6.363ZM13.26 6.363C12.8713 6.83125 13.007 7.49725 13.5625 7.847C14.4288 8.3925 15.4043 7.16325 14.74 6.363C14.354 5.89775 13.646 5.89775 13.26 6.363ZM2.5 10.5C2.225 10.775 2 11.225 2 11.5C2 11.775 2.225 12.225 2.5 12.5C2.9815 12.9815 3.33325 13 12 13C20.6667 13 21.0185 12.9815 21.5 12.5C21.775 12.225 22 11.775 22 11.5C22 11.225 21.775 10.775 21.5 10.5C21.0185 10.0185 20.6667 10 12 10C3.33325 10 2.9815 10.0185 2.5 10.5ZM2.25875 14.7335C1.87475 15.4512 1.94175 15.9417 2.5 16.5C2.9815 16.9815 3.33325 17 12 17C20.6667 17 21.0185 16.9815 21.5 16.5C22.0893 15.9108 22.137 15.282 21.6435 14.6103C21.3072 14.1525 21.2472 14.148 20.581 14.532C20.0702 14.8265 19.4258 14.9145 18.25 14.85C17.3562 14.8013 16.4845 14.7673 16.3125 14.7745C16.1407 14.782 15.55 14.7852 15 14.782C14.45 14.7787 13.775 14.776 13.5 14.776C13.225 14.776 12.55 14.776 12 14.776C11.45 14.776 10.775 14.776 10.5 14.776C10.225 14.776 9.55 14.7787 9 14.782C8.45 14.7852 7.8595 14.782 7.6875 14.7745C7.51575 14.7673 6.64375 14.803 5.75 14.8542C4.65 14.9172 3.946 14.8348 3.57125 14.5988C2.82975 14.1318 2.5665 14.1587 2.25875 14.7335Z" fill="#213F12"/>
</g>
<defs>
<filter id="filter0_bii_442_17614" x="-9.99072" y="-7.98682" width="43.9819" height="40.9771" filterUnits="userSpaceOnUse" color-interpolation-filters="sRGB">
<feFlood flood-opacity="0" result="BackgroundImageFix"/>
<feGaussianBlur in="BackgroundImageFix" stdDeviation="6"/>
<feComposite in2="SourceAlpha" operator="in" result="effect1_backgroundBlur_442_17614"/>
<feBlend mode="normal" in="SourceGraphic" in2="effect1_backgroundBlur_442_17614" result="shape"/>
<feColorMatrix in="SourceAlpha" type="matrix" values="0 0 0 0 0 0 0 0 0 0 0 0 0 0 0 0 0 0 127 0" result="hardAlpha"/>
<feOffset dx="-1.24988" dy="1.24988"/>
<feGaussianBlur stdDeviation="0.624942"/>
<feComposite in2="hardAlpha" operator="arithmetic" k2="-1" k3="1"/>
<feColorMatrix type="matrix" values="0 0 0 0 1 0 0 0 0 1 0 0 0 0 1 0 0 0 0.1 0"/>
<feBlend mode="normal" in2="shape" result="effect2_innerShadow_442_17614"/>
<feColorMatrix in="SourceAlpha" type="matrix" values="0 0 0 0 0 0 0 0 0 0 0 0 0 0 0 0 0 0 127 0" result="hardAlpha"/>
<feOffset dx="1.24988" dy="-1.24988"/>
<feGaussianBlur stdDeviation="0.624942"/>
<feComposite in2="hardAlpha" operator="arithmetic" k2="-1" k3="1"/>
<feColorMatrix type="matrix" values="0 0 0 0 0.76 0 0 0 0 0.76 0 0 0 0 0.76 0 0 0 0.096 0"/>
<feBlend mode="normal" in2="effect2_innerShadow_442_17614" result="effect3_innerShadow_442_17614"/>
</filter>
<filter id="filter1_bii_442_17614" x="-10" y="-8" width="44" height="37" filterUnits="userSpaceOnUse" color-interpolation-filters="sRGB">
<feFlood flood-opacity="0" result="BackgroundImageFix"/>
<feGaussianBlur in="BackgroundImageFix" stdDeviation="6"/>
<feComposite in2="SourceAlpha" operator="in" result="effect1_backgroundBlur_442_17614"/>
<feBlend mode="normal" in="SourceGraphic" in2="effect1_backgroundBlur_442_17614" result="shape"/>
<feColorMatrix in="SourceAlpha" type="matrix" values="0 0 0 0 0 0 0 0 0 0 0 0 0 0 0 0 0 0 127 0" result="hardAlpha"/>
<feOffset dx="-1.24988" dy="1.24988"/>
<feGaussianBlur stdDeviation="0.624942"/>
<feComposite in2="hardAlpha" operator="arithmetic" k2="-1" k3="1"/>
<feColorMatrix type="matrix" values="0 0 0 0 1 0 0 0 0 1 0 0 0 0 1 0 0 0 0.1 0"/>
<feBlend mode="normal" in2="shape" result="effect2_innerShadow_442_17614"/>
<feColorMatrix in="SourceAlpha" type="matrix" values="0 0 0 0 0 0 0 0 0 0 0 0 0 0 0 0 0 0 127 0" result="hardAlpha"/>
<feOffset dx="1.24988" dy="-1.24988"/>
<feGaussianBlur stdDeviation="0.624942"/>
<feComposite in2="hardAlpha" operator="arithmetic" k2="-1" k3="1"/>
<feColorMatrix type="matrix" values="0 0 0 0 0.76 0 0 0 0 0.76 0 0 0 0 0.76 0 0 0 0.096 0"/>
<feBlend mode="normal" in2="effect2_innerShadow_442_17614" result="effect3_innerShadow_442_17614"/>
</filter>
</defs>
</svg>
