<svg width="25" height="24" viewBox="0 0 25 24" fill="none" xmlns="http://www.w3.org/2000/svg">
<g id="ion:call-outline">
<path id="Vector (Stroke)" fill-rule="evenodd" clip-rule="evenodd" d="M6.91515 1.83407C7.07239 1.95756 7.24898 2.1237 7.45216 2.32438C7.88744 2.75279 8.39243 3.43918 8.82576 4.09811C9.26394 4.76442 9.66997 5.46586 9.89754 5.95407L9.89769 5.95438L9.89783 5.95469C10.0268 6.23209 10.1431 6.48346 10.2248 6.70377C10.3078 6.92751 10.3768 7.1736 10.3772 7.44216C10.3782 8.0043 10.073 8.43816 9.77913 8.83834C9.69469 8.95329 9.62295 9.0475 9.56111 9.12869C9.42783 9.30371 9.34045 9.41844 9.2705 9.55114C9.20227 9.68057 9.18236 9.77402 9.21466 9.92446C9.26122 10.1414 9.46368 10.6162 9.85679 11.2374C10.237 11.8381 10.7575 12.5157 11.3794 13.1357C12.0012 13.7555 12.6681 14.2623 13.2568 14.6291C13.8635 15.0069 14.3307 15.2009 14.5539 15.2485C14.7092 15.2817 14.8062 15.2609 14.9359 15.1934C15.0727 15.1222 15.1944 15.0293 15.3837 14.8848C15.4581 14.828 15.5429 14.7632 15.6432 14.6887L15.6433 14.6886L15.6509 14.683C16.0524 14.3846 16.4985 14.0532 17.064 14.0538C17.3434 14.0541 17.5942 14.133 17.815 14.2231C18.026 14.3092 18.2683 14.4313 18.5342 14.5652L18.5564 14.5764C19.0224 14.8114 19.7152 15.2095 20.3859 15.6434C21.0448 16.0696 21.74 16.5672 22.1729 17.0034L22.1735 17.004C22.3748 17.2073 22.5413 17.3839 22.6651 17.5411C22.785 17.6932 22.9165 17.89 22.972 18.1348C23.0345 18.4106 22.9778 18.64 22.9197 18.7992C22.8936 18.8709 22.8627 18.9398 22.8405 18.9891C22.8371 18.9968 22.8337 19.0043 22.8304 19.0116C22.8098 19.0573 22.7918 19.0972 22.7727 19.1428L22.7723 19.1439L22.7718 19.145C22.5759 19.6096 22.3376 20.0552 22.0599 20.476L22.059 20.4773L22.0582 20.4785C21.5156 21.2937 21.0051 21.8263 20.2116 22.196C19.7993 22.388 19.2102 22.582 18.2946 22.4678C17.4139 22.358 16.2682 21.9681 14.7046 21.0923L14.7042 21.0921C12.2019 19.6888 10.4657 18.4789 8.22599 16.2454C5.99286 14.0186 4.89522 12.5651 3.35761 9.77183C1.80967 6.95976 1.81188 5.22563 2.25394 4.28102C2.6251 3.48789 3.16307 2.97978 3.97555 2.43999L3.97715 2.43893L3.97875 2.43787C4.40007 2.16106 4.84584 1.92342 5.3105 1.72792L5.31203 1.72727L5.31357 1.72664C5.35955 1.70753 5.39977 1.6895 5.44576 1.66888C5.45297 1.66565 5.46032 1.66235 5.46786 1.65898C5.51727 1.63687 5.58618 1.60613 5.65788 1.58008C5.8168 1.52236 6.04578 1.46597 6.32104 1.52804C6.56578 1.58322 6.76267 1.71431 6.91515 1.83407ZM5.89082 3.11112C5.51166 3.27074 5.14788 3.46466 4.804 3.69046C4.11763 4.14666 3.8234 4.46621 3.61253 4.9168C3.4724 5.21624 3.21306 6.39868 4.67168 9.04849C6.14062 11.7171 7.15236 13.0565 9.28517 15.1833C11.4113 17.3035 13.0322 18.4346 15.4375 19.7836C16.9095 20.608 17.8638 20.9025 18.4802 20.9793C19.0617 21.0518 19.3667 20.9348 19.5783 20.8362C20.0324 20.6247 20.3534 20.3325 20.8088 19.6485C21.0352 19.3052 21.2295 18.9419 21.3893 18.563C21.4109 18.5115 21.432 18.4638 21.4499 18.424C21.3799 18.341 21.2728 18.2263 21.108 18.0598C20.7964 17.746 20.2182 17.3214 19.5711 16.9028C18.9358 16.4917 18.2901 16.1221 17.8813 15.9159C17.5863 15.7673 17.3973 15.6727 17.2481 15.6118C17.103 15.5526 17.0608 15.5538 17.0624 15.5538C17.076 15.5538 17.0297 15.5273 16.5379 15.8927C16.4876 15.93 16.4333 15.9716 16.3758 16.0157C16.1567 16.1837 15.8914 16.3871 15.6285 16.524C15.2356 16.7285 14.7846 16.8315 14.241 16.7155C13.7653 16.6141 13.1237 16.3133 12.4638 15.9023C11.786 15.4801 11.0285 14.9038 10.3205 14.198C9.61256 13.4924 9.02356 12.7258 8.58929 12.0396C8.16795 11.3738 7.85103 10.7189 7.74807 10.2393C7.63083 9.69317 7.73772 9.24217 7.94359 8.85164C8.07625 8.59998 8.27457 8.33996 8.43779 8.12595C8.48582 8.06298 8.5308 8.004 8.57019 7.95038C8.88547 7.52109 8.87807 7.45266 8.87727 7.4452C8.87724 7.44495 8.87722 7.44477 8.87722 7.44464C8.8772 7.43019 8.87386 7.37482 8.81846 7.22546C8.76179 7.0727 8.67358 6.87939 8.53778 6.58734C8.35232 6.18959 7.98878 5.55534 7.57247 4.92229C7.15135 4.28191 6.71699 3.70533 6.3996 3.39308L6.39906 3.39255L6.39852 3.39202C6.23104 3.22659 6.11586 3.11938 6.0327 3.04959C5.9923 3.06765 5.94361 3.08915 5.89082 3.11112Z" fill="#2F4C21"/>
</g>
</svg>
