<svg width="17" height="12" viewBox="0 0 17 12" fill="none" xmlns="http://www.w3.org/2000/svg">
<path d="M8.50007 8.66667C7.0294 8.66667 5.8334 7.47067 5.8334 6C5.8334 4.52933 7.0294 3.33333 8.50007 3.33333C9.97073 3.33333 11.1667 4.52933 11.1667 6C11.1667 7.47067 9.97073 8.66667 8.50007 8.66667ZM8.50007 4.66667C7.76473 4.66667 7.16673 5.26467 7.16673 6C7.16673 6.73533 7.76473 7.33333 8.50007 7.33333C9.2354 7.33333 9.8334 6.73533 9.8334 6C9.8334 5.26467 9.2354 4.66667 8.50007 4.66667ZM3.8334 2.66667C3.4654 2.66667 3.16673 2.96533 3.16673 3.33333C3.16673 3.70133 3.4654 4 3.8334 4C4.2014 4 4.50007 3.70133 4.50007 3.33333C4.50007 2.96533 4.2014 2.66667 3.8334 2.66667ZM12.5001 4.66667C12.5001 5.03467 12.7987 5.33333 13.1667 5.33333C13.5347 5.33333 13.8334 5.03467 13.8334 4.66667C13.8334 4.29867 13.5347 4 13.1667 4C12.7987 4 12.5001 4.29867 12.5001 4.66667ZM3.8334 6.66667C3.4654 6.66667 3.16673 6.96533 3.16673 7.33333C3.16673 7.70133 3.4654 8 3.8334 8C4.2014 8 4.50007 7.70133 4.50007 7.33333C4.50007 6.96533 4.2014 6.66667 3.8334 6.66667ZM12.5001 8.66667C12.5001 9.03467 12.7987 9.33333 13.1667 9.33333C13.5347 9.33333 13.8334 9.03467 13.8334 8.66667C13.8334 8.29867 13.5347 8 13.1667 8C12.7987 8 12.5001 8.29867 12.5001 8.66667ZM11.8327 12C10.7434 12 9.7674 11.734 8.82407 11.4767C7.9254 11.2313 7.0774 11 6.16673 11C5.1194 11 4.45873 11.0673 3.8874 11.2327C3.0834 11.464 2.23807 11.308 1.5674 10.8033C0.889399 10.2933 0.500732 9.51467 0.500732 8.66667V3.63467C0.500732 2.25933 1.36673 1.00533 2.65607 0.514C3.55007 0.172667 4.3954 0 5.16807 0C6.2574 0 7.23273 0.266 8.17673 0.523333C9.0754 0.768667 9.9234 1 10.8341 1C11.8807 1 12.5421 0.932667 13.1134 0.767333C13.9187 0.536 14.7641 0.692 15.4341 1.19667C16.1121 1.70667 16.5007 2.48533 16.5007 3.33333V8.36533C16.5007 9.74067 15.6341 10.9947 14.3447 11.486C13.4507 11.8273 12.6061 12 11.8327 12ZM6.16673 9.66667C7.25607 9.66667 8.2314 9.93267 9.1754 10.19C10.0741 10.4353 10.9221 10.6667 11.8327 10.6667C12.4421 10.6667 13.1274 10.5233 13.8701 10.24C14.6587 9.94 15.1674 9.204 15.1674 8.36533V3.33333C15.1674 2.90867 14.9721 2.518 14.6321 2.26267C14.2994 2.01267 13.8814 1.934 13.4821 2.04867C12.7814 2.25067 12.0141 2.33333 10.8327 2.33333C9.7434 2.33333 8.76807 2.06733 7.82407 1.81C6.9254 1.56467 6.0774 1.33333 5.16673 1.33333C4.55673 1.33333 3.87207 1.47667 3.1294 1.76C2.34073 2.06 1.83207 2.796 1.83207 3.63467V8.66667C1.83207 9.09133 2.0274 9.482 2.3674 9.73733C2.70007 9.98733 3.11807 10.066 3.51673 9.95067C4.2174 9.74867 4.9854 9.666 6.16607 9.666L6.16673 9.66667Z" fill="#213F12"/>
</svg>
