<svg width="17" height="16" viewBox="0 0 17 16" fill="none" xmlns="http://www.w3.org/2000/svg">
<g clip-path="url(#clip0_1042_2583)">
<path d="M9.8334 8C9.8334 8.73533 9.2354 9.33333 8.50007 9.33333C7.76473 9.33333 7.16673 8.73533 7.16673 8C7.16673 7.26467 7.76473 6.66667 8.50007 6.66667C9.2354 6.66667 9.8334 7.26467 9.8334 8ZM16.5007 10.3653C16.5007 11.7407 15.6341 12.9947 14.3447 13.486C13.4507 13.8273 12.6061 14 11.8327 14C10.7434 14 9.7674 13.734 8.82407 13.4767C7.9254 13.2313 7.0774 13 6.16673 13C5.1194 13 4.45873 13.0673 3.8874 13.2327C3.0834 13.464 2.23807 13.308 1.5674 12.8033C0.889399 12.2933 0.500732 11.5147 0.500732 10.6667V5.63467C0.500732 4.25933 1.36673 3.00533 2.65607 2.514C3.55007 2.17267 4.3954 2 5.16807 2C6.2574 2 7.23273 2.266 8.17673 2.52333C9.0754 2.76867 9.9234 3 10.8341 3C11.8807 3 12.5421 2.93267 13.1134 2.76733C13.9187 2.536 14.7641 2.692 15.4341 3.19667C16.1121 3.70667 16.5007 4.48533 16.5007 5.33333V10.3653ZM4.50073 9.33333C4.50073 8.96533 4.20207 8.66667 3.83407 8.66667C3.46607 8.66667 3.1674 8.96533 3.1674 9.33333C3.1674 9.70133 3.46607 10 3.83407 10C4.20207 10 4.50073 9.70133 4.50073 9.33333ZM4.50073 5.33333C4.50073 4.96533 4.20207 4.66667 3.83407 4.66667C3.46607 4.66667 3.1674 4.96533 3.1674 5.33333C3.1674 5.70133 3.46607 6 3.83407 6C4.20207 6 4.50073 5.70133 4.50073 5.33333ZM11.1674 8C11.1674 6.52933 9.9714 5.33333 8.50073 5.33333C7.03007 5.33333 5.83407 6.52933 5.83407 8C5.83407 9.47067 7.03007 10.6667 8.50073 10.6667C9.9714 10.6667 11.1674 9.47067 11.1674 8ZM13.8341 10.6667C13.8341 10.2987 13.5354 10 13.1674 10C12.7994 10 12.5007 10.2987 12.5007 10.6667C12.5007 11.0347 12.7994 11.3333 13.1674 11.3333C13.5354 11.3333 13.8341 11.0347 13.8341 10.6667ZM13.8341 6.66667C13.8341 6.29867 13.5354 6 13.1674 6C12.7994 6 12.5007 6.29867 12.5007 6.66667C12.5007 7.03467 12.7994 7.33333 13.1674 7.33333C13.5354 7.33333 13.8341 7.03467 13.8341 6.66667Z" fill="white"/>
</g>
<defs>
<clipPath id="clip0_1042_2583">
<rect width="16" height="16" fill="white" transform="translate(0.5)"/>
</clipPath>
</defs>
</svg>
