<svg width="25" height="24" viewBox="0 0 25 24" fill="none" xmlns="http://www.w3.org/2000/svg">
<path fill-rule="evenodd" clip-rule="evenodd" d="M12.9535 2.762C12.7471 2.7494 12.5402 2.7454 12.3335 2.75C9.9555 2.75 8.2475 2.752 6.9475 2.926C5.6685 3.098 4.8975 3.426 4.3275 3.995C3.7585 4.565 3.4315 5.335 3.2595 6.614C3.0855 7.914 3.0835 9.622 3.0835 12C3.0835 14.378 3.0855 16.086 3.2595 17.386C3.4315 18.665 3.7595 19.436 4.3285 20.006C4.8415 20.519 5.5185 20.835 6.5835 21.018V20.948C6.5835 20.049 6.5835 19.3 6.6635 18.706C6.7475 18.078 6.9335 17.511 7.3885 17.056C7.8445 16.6 8.4115 16.414 9.0385 16.33C9.6335 16.25 10.3835 16.25 11.2815 16.25H13.3855C14.2845 16.25 15.0335 16.25 15.6275 16.33C16.2555 16.414 16.8225 16.6 17.2775 17.056C17.7335 17.511 17.9195 18.078 18.0035 18.706C18.0835 19.3 18.0835 20.049 18.0835 20.948V21.018C19.1485 20.835 19.8255 20.518 20.3385 20.005C20.9085 19.435 21.2355 18.665 21.4075 17.386C21.5815 16.086 21.5835 14.378 21.5835 12C21.5835 11.647 21.5835 11.513 21.5715 11.38C21.5106 10.7157 21.2494 10.0856 20.8225 9.573C20.6825 9.41469 20.5361 9.26222 20.3835 9.116L15.2175 3.95C15.0713 3.79713 14.9188 3.65034 14.7605 3.51C14.2481 3.08356 13.6183 2.82273 12.9545 2.762H12.9535ZM16.5835 21.18V21C16.5835 20.036 16.5815 19.388 16.5165 18.905C16.4545 18.444 16.3475 18.246 16.2165 18.116C16.0865 17.986 15.8895 17.879 15.4285 17.816C14.9455 17.752 14.2975 17.75 13.3335 17.75H11.3335C10.3695 17.75 9.7215 17.752 9.2385 17.817C8.7775 17.879 8.5795 17.986 8.4495 18.117C8.3195 18.247 8.2125 18.444 8.1495 18.905C8.0855 19.388 8.0835 20.036 8.0835 21V21.18C9.2095 21.25 10.5915 21.25 12.3335 21.25C14.0755 21.25 15.4575 21.25 16.5835 21.18ZM12.3645 1.25C12.6765 1.25 12.8775 1.25 13.0845 1.268C14.0553 1.35555 14.9763 1.73721 15.7245 2.362C15.8845 2.495 16.0295 2.641 16.2545 2.866L16.2785 2.889L21.4685 8.079C21.6925 8.304 21.8385 8.449 21.9715 8.609C22.5962 9.35722 22.9779 10.2782 23.0655 11.249C23.0835 11.456 23.0835 11.657 23.0835 11.969V12.057C23.0835 14.366 23.0835 16.175 22.8935 17.587C22.6995 19.031 22.2935 20.171 21.3995 21.066C20.5045 21.961 19.3645 22.366 17.9195 22.56C16.5085 22.75 14.6995 22.75 12.3905 22.75H12.2765C9.9675 22.75 8.1585 22.75 6.7465 22.56C5.3025 22.366 4.1625 21.96 3.2675 21.066C2.3725 20.171 1.9675 19.031 1.7735 17.586C1.5835 16.175 1.5835 14.366 1.5835 12.057V11.943C1.5835 9.634 1.5835 7.825 1.7735 6.413C1.9675 4.969 2.3735 3.829 3.2675 2.934C4.1625 2.039 5.3025 1.634 6.7475 1.44C8.1585 1.25 9.9675 1.25 12.2765 1.25H12.3645ZM6.5835 8C6.5835 7.80109 6.66251 7.61032 6.80317 7.46967C6.94382 7.32902 7.13458 7.25 7.3335 7.25H13.3335C13.5324 7.25 13.7232 7.32902 13.8638 7.46967C14.0045 7.61032 14.0835 7.80109 14.0835 8C14.0835 8.19891 14.0045 8.38968 13.8638 8.53033C13.7232 8.67098 13.5324 8.75 13.3335 8.75H7.3335C7.13458 8.75 6.94382 8.67098 6.80317 8.53033C6.66251 8.38968 6.5835 8.19891 6.5835 8Z" fill="#3E632B"/>
</svg>
