<svg width="25" height="24" viewBox="0 0 25 24" fill="none" xmlns="http://www.w3.org/2000/svg">
<path fill-rule="evenodd" clip-rule="evenodd" d="M1.5835 12C1.5835 6.063 6.3965 1.25 12.3335 1.25C12.5324 1.25 12.7232 1.32902 12.8638 1.46967C13.0045 1.61032 13.0835 1.80109 13.0835 2C13.0835 2.19891 13.0045 2.38968 12.8638 2.53033C12.7232 2.67098 12.5324 2.75 12.3335 2.75C10.504 2.75 8.71563 3.2925 7.19447 4.30891C5.67332 5.32531 4.48772 6.76996 3.78761 8.46018C3.0875 10.1504 2.90432 12.0103 3.26123 13.8046C3.61815 15.5989 4.49912 17.2471 5.79276 18.5407C7.08639 19.8344 8.73459 20.7154 10.5289 21.0723C12.3232 21.4292 14.1831 21.246 15.8733 20.5459C17.5635 19.8458 19.0082 18.6602 20.0246 17.139C21.041 15.6179 21.5835 13.8295 21.5835 12C21.5835 11.8011 21.6625 11.6103 21.8032 11.4697C21.9438 11.329 22.1346 11.25 22.3335 11.25C22.5324 11.25 22.7232 11.329 22.8638 11.4697C23.0045 11.6103 23.0835 11.8011 23.0835 12C23.0835 17.937 18.2705 22.75 12.3335 22.75C6.3965 22.75 1.5835 17.937 1.5835 12ZM17.1035 2.276C17.7634 1.63425 18.6494 1.27805 19.5699 1.28443C20.4904 1.29081 21.3714 1.65926 22.0224 2.3101C22.6734 2.96094 23.042 3.84186 23.0486 4.76235C23.0551 5.68285 22.6991 6.56894 22.0575 7.229L15.4095 13.878C15.0385 14.248 14.8055 14.482 14.5465 14.684C14.2406 14.9226 13.9097 15.1271 13.5595 15.294C13.2625 15.435 12.9495 15.539 12.4525 15.705L9.5475 16.673C9.28467 16.7605 9.00267 16.7732 8.73307 16.7095C8.46348 16.6458 8.21693 16.5083 8.02105 16.3124C7.82517 16.1166 7.68769 15.87 7.62401 15.6004C7.56033 15.3308 7.57297 15.0488 7.6605 14.786L8.6285 11.881C8.7945 11.383 8.8985 11.071 9.0395 10.774C9.2065 10.424 9.4115 10.094 9.6495 9.787C9.8515 9.527 10.0845 9.295 10.4555 8.924L17.1035 2.276ZM20.9965 3.336C20.6209 2.96057 20.1116 2.74967 19.5805 2.74967C19.0494 2.74967 18.5401 2.96057 18.1645 3.336L17.7885 3.713C17.8105 3.809 17.8425 3.923 17.8865 4.051C18.0295 4.464 18.3015 5.008 18.8135 5.52C19.3113 6.01977 19.9361 6.37417 20.6205 6.545L20.9965 6.169C21.3719 5.79339 21.5828 5.28406 21.5828 4.753C21.5828 4.22194 21.3719 3.71161 20.9965 3.336ZM19.4385 7.727C18.8088 7.45557 18.2366 7.06664 17.7525 6.581C17.2668 6.09694 16.8779 5.52472 16.6065 4.895L11.5505 9.95C11.1345 10.367 10.9705 10.532 10.8325 10.71C10.6608 10.93 10.5136 11.1681 10.3935 11.42C10.2965 11.623 10.2225 11.843 10.0355 12.402L9.6045 13.697L10.6365 14.73L11.9315 14.298C12.4915 14.111 12.7105 14.037 12.9145 13.94C13.1655 13.82 13.4045 13.673 13.6245 13.501C13.8015 13.362 13.9665 13.199 14.3835 12.783L19.4385 7.727Z" fill="#3E632B"/>
</svg>
