<svg width="25" height="24" viewBox="0 0 25 24" fill="none" xmlns="http://www.w3.org/2000/svg">
<path fill-rule="evenodd" clip-rule="evenodd" d="M10.6435 2.25H14.0235C14.2405 2.25 14.4295 2.25 14.6075 2.278C14.9542 2.33354 15.2831 2.46946 15.5679 2.67488C15.8527 2.8803 16.0854 3.14952 16.2475 3.461C16.3315 3.621 16.3905 3.8 16.4595 4.005L16.5705 4.34C16.6471 4.61216 16.8137 4.85032 17.0431 5.0156C17.2724 5.18088 17.5511 5.26351 17.8335 5.25H20.8335C21.0324 5.25 21.2232 5.32902 21.3638 5.46967C21.5045 5.61032 21.5835 5.80109 21.5835 6C21.5835 6.19891 21.5045 6.38968 21.3638 6.53033C21.2232 6.67098 21.0324 6.75 20.8335 6.75H3.8335C3.63458 6.75 3.44382 6.67098 3.30317 6.53033C3.16251 6.38968 3.0835 6.19891 3.0835 6C3.0835 5.80109 3.16251 5.61032 3.30317 5.46967C3.44382 5.32902 3.63458 5.25 3.8335 5.25H6.9235C7.1906 5.24359 7.44862 5.15177 7.65972 4.988C7.87083 4.82423 8.0239 4.59713 8.0965 4.34L8.2085 4.005C8.2765 3.8 8.3355 3.621 8.4185 3.461C8.58069 3.1494 8.81359 2.8801 9.09855 2.67468C9.38351 2.46925 9.71261 2.3334 10.0595 2.278C10.2375 2.25 10.4265 2.25 10.6425 2.25H10.6435ZM9.3415 5.25C9.41171 5.11249 9.47025 4.96932 9.5165 4.822L9.6165 4.522C9.7075 4.249 9.7285 4.194 9.7495 4.154C9.80348 4.05001 9.88108 3.96011 9.97607 3.89152C10.0711 3.82292 10.1808 3.77754 10.2965 3.759C10.4269 3.74799 10.5578 3.74498 10.6885 3.75H13.9785C14.2665 3.75 14.3265 3.752 14.3705 3.76C14.4861 3.77843 14.5958 3.82366 14.6908 3.89208C14.7857 3.9605 14.8634 4.05019 14.9175 4.154C14.9385 4.194 14.9595 4.249 15.0505 4.523L15.1505 4.823L15.1895 4.935C15.2285 5.045 15.2745 5.149 15.3255 5.25H9.3415Z" fill="#3E632B"/>
<path d="M6.24867 8.45017C6.23541 8.25165 6.14383 8.06654 5.99408 7.93554C5.84434 7.80455 5.64868 7.73841 5.45017 7.75167C5.25165 7.76493 5.06654 7.85651 4.93554 8.00626C4.80455 8.156 4.73841 8.35166 4.75167 8.55017L5.21567 15.5022C5.30067 16.7842 5.36967 17.8202 5.53167 18.6342C5.70067 19.4792 5.98667 20.1852 6.57867 20.7382C7.16967 21.2922 7.89367 21.5312 8.74867 21.6422C9.57067 21.7502 10.6087 21.7502 11.8947 21.7502H12.7737C14.0587 21.7502 15.0977 21.7502 15.9197 21.6422C16.7737 21.5312 17.4977 21.2922 18.0897 20.7382C18.6807 20.1852 18.9667 19.4782 19.1357 18.6342C19.2977 17.8212 19.3657 16.7842 19.4517 15.5022L19.9157 8.55017C19.9289 8.35166 19.8628 8.156 19.7318 8.00626C19.6008 7.85651 19.4157 7.76493 19.2172 7.75167C19.0187 7.73841 18.823 7.80455 18.6733 7.93554C18.5235 8.06654 18.4319 8.25165 18.4187 8.45017L17.9587 15.3502C17.8687 16.6972 17.8047 17.6352 17.6647 18.3402C17.5277 19.0252 17.3377 19.3872 17.0647 19.6432C16.7907 19.8992 16.4167 20.0652 15.7247 20.1552C15.0117 20.2482 14.0717 20.2502 12.7207 20.2502H11.9467C10.5967 20.2502 9.65667 20.2482 8.94267 20.1552C8.25067 20.0652 7.87667 19.8992 7.60267 19.6432C7.32967 19.3872 7.13967 19.0252 7.00267 18.3412C6.86267 17.6352 6.79867 16.6972 6.70867 15.3492L6.24867 8.45017Z" fill="#3E632B"/>
<path d="M9.75873 10.2542C9.95656 10.2344 10.1542 10.2939 10.3081 10.4198C10.4621 10.5456 10.5598 10.7274 10.5797 10.9252L11.0797 15.9252C11.0944 16.1203 11.0322 16.3134 10.9065 16.4633C10.7808 16.6132 10.6015 16.708 10.4069 16.7276C10.2122 16.7472 10.0176 16.6899 9.86458 16.568C9.71156 16.4462 9.61221 16.2693 9.58772 16.0752L9.08772 11.0752C9.0679 10.8774 9.12744 10.6798 9.25327 10.5258C9.37909 10.3719 9.5609 10.2742 9.75873 10.2542ZM14.9087 10.2542C15.1064 10.2742 15.288 10.3717 15.4138 10.5255C15.5396 10.6792 15.5993 10.8766 15.5797 11.0742L15.0797 16.0742C15.0549 16.268 14.9555 16.4444 14.8027 16.566C14.6498 16.6875 14.4556 16.7447 14.2613 16.7253C14.0669 16.7059 13.8878 16.6114 13.762 16.462C13.6363 16.3126 13.5737 16.12 13.5877 15.9252L14.0877 10.9252C14.1077 10.7276 14.2052 10.5459 14.359 10.4202C14.5127 10.2944 14.711 10.2347 14.9087 10.2542Z" fill="#3E632B"/>
</svg>
