<svg width="24" height="24" viewBox="0 0 24 24" fill="none" xmlns="http://www.w3.org/2000/svg">
<g id="solar:chef-hat-minimalistic-bold-duotone">
<g id="Group">
<path id="Vector" opacity="0.5" d="M2 9.99991C1.99991 9.28095 2.15487 8.57043 2.45432 7.9168C2.75377 7.26317 3.19065 6.6818 3.73518 6.21235C4.27972 5.7429 4.91909 5.3964 5.60969 5.19648C6.3003 4.99657 7.02589 4.94794 7.737 5.05391C8.0394 4.16323 8.61319 3.38963 9.37779 2.84176C10.1424 2.29389 11.0594 1.99927 12 1.99927C12.9406 1.99927 13.8576 2.29389 14.6222 2.84176C15.3868 3.38963 15.9606 4.16323 16.263 5.05391C17.4631 4.8733 18.6878 5.13531 19.709 5.79108C20.7301 6.44685 21.4779 7.45162 21.8129 8.61803C22.1479 9.78445 22.0472 11.0329 21.5297 12.1306C21.0121 13.2282 20.113 14.1002 19 14.5839V17.9999C19 19.8859 19 20.8279 18.414 21.4139C17.828 21.9999 16.886 21.9999 15 21.9999H9C7.114 21.9999 6.172 21.9999 5.586 21.4139C5 20.8279 5 19.8859 5 17.9999V14.5839C4.10819 14.1946 3.34935 13.5535 2.81647 12.7392C2.2836 11.925 1.99985 10.973 2 9.99991Z" fill="#2F4C21"/>
<path id="Vector_2" d="M9 17.25C8.80109 17.25 8.61032 17.329 8.46967 17.4697C8.32902 17.6103 8.25 17.8011 8.25 18C8.25 18.1989 8.32902 18.3897 8.46967 18.5303C8.61032 18.671 8.80109 18.75 9 18.75H15C15.1989 18.75 15.3897 18.671 15.5303 18.5303C15.671 18.3897 15.75 18.1989 15.75 18C15.75 17.8011 15.671 17.6103 15.5303 17.4697C15.3897 17.329 15.1989 17.25 15 17.25H9Z" fill="#2F4C21"/>
</g>
</g>
</svg>
