<svg width="24" height="24" viewBox="0 0 24 24" fill="none" xmlns="http://www.w3.org/2000/svg">
<g filter="url(#filter0_bii_442_17497)">
<path opacity="0.35" d="M9 5C4 5 0 11 0 16C0 19 4 21 7.5 21C8.163 21 13.235 21 14 21C18 21 21 20 21 15C21 11 16 5 9 5Z" fill="#213F12"/>
<path opacity="0.35" d="M21.9999 6C21.9999 4.895 21.1049 4 19.9999 4C18.8949 4 17.9999 4.895 17.9999 6C17.9999 6.477 18.1739 6.909 18.4529 7.253L13.5399 11.347C12.9039 11.877 12.8179 12.823 13.3479 13.46C13.6449 13.816 14.0709 14 14.5009 14C14.8389 14 15.1799 13.886 15.4599 13.652L20.5689 9.394C20.9329 9.767 21.4389 10 21.9999 10C23.1049 10 23.9999 9.105 23.9999 8C23.9999 6.895 23.1049 6 21.9999 6Z" fill="#213F12"/>
<path d="M19.6631 10.1502L17.7422 7.84521L17.5761 7.98321C16.6722 8.73621 15.5111 9.12222 14.3401 9.01522C13.8091 8.96622 13.2441 9.02922 12.6551 9.24122C11.3351 9.71622 10.3131 10.8802 10.0661 12.2612C9.62515 14.7272 11.4471 16.8812 13.8041 16.9942C15.2931 17.0662 16.6281 16.2002 17.4101 14.9322C17.7401 14.3972 17.9111 13.8942 17.9721 13.4182C18.1321 12.1772 18.6342 11.0062 19.5962 10.2042L19.6631 10.1502Z" fill="#213F12"/>
</g>
<defs>
<filter id="filter0_bii_442_17497" x="-12" y="-12" width="48" height="48" filterUnits="userSpaceOnUse" color-interpolation-filters="sRGB">
<feFlood flood-opacity="0" result="BackgroundImageFix"/>
<feGaussianBlur in="BackgroundImageFix" stdDeviation="6"/>
<feComposite in2="SourceAlpha" operator="in" result="effect1_backgroundBlur_442_17497"/>
<feBlend mode="normal" in="SourceGraphic" in2="effect1_backgroundBlur_442_17497" result="shape"/>
<feColorMatrix in="SourceAlpha" type="matrix" values="0 0 0 0 0 0 0 0 0 0 0 0 0 0 0 0 0 0 127 0" result="hardAlpha"/>
<feOffset dx="-1.24988" dy="1.24988"/>
<feGaussianBlur stdDeviation="0.624942"/>
<feComposite in2="hardAlpha" operator="arithmetic" k2="-1" k3="1"/>
<feColorMatrix type="matrix" values="0 0 0 0 1 0 0 0 0 1 0 0 0 0 1 0 0 0 0.1 0"/>
<feBlend mode="normal" in2="shape" result="effect2_innerShadow_442_17497"/>
<feColorMatrix in="SourceAlpha" type="matrix" values="0 0 0 0 0 0 0 0 0 0 0 0 0 0 0 0 0 0 127 0" result="hardAlpha"/>
<feOffset dx="1.24988" dy="-1.24988"/>
<feGaussianBlur stdDeviation="0.624942"/>
<feComposite in2="hardAlpha" operator="arithmetic" k2="-1" k3="1"/>
<feColorMatrix type="matrix" values="0 0 0 0 0.76 0 0 0 0 0.76 0 0 0 0 0.76 0 0 0 0.096 0"/>
<feBlend mode="normal" in2="effect2_innerShadow_442_17497" result="effect3_innerShadow_442_17497"/>
</filter>
</defs>
</svg>
