<svg width="25" height="24" viewBox="0 0 25 24" fill="none" xmlns="http://www.w3.org/2000/svg">
<path d="M7.1001 11.397C7.1001 8.67101 7.1001 7.30801 7.9431 6.46101C8.7871 5.61401 10.1441 5.61401 12.8601 5.61401H15.7401C18.4551 5.61401 19.8121 5.61401 20.6561 6.46101C21.5001 7.30801 21.5001 8.67101 21.5001 11.397V16.217C21.5001 18.943 21.5001 20.306 20.6561 21.153C19.8131 22 18.4551 22 15.7401 22H12.8601C10.1441 22 8.7871 22 7.9431 21.153C7.1001 20.306 7.1001 18.943 7.1001 16.217V11.397Z" fill="#2F4C21"/>
<path opacity="0.5" d="M4.672 3.172C3.5 4.343 3.5 6.229 3.5 10V12C3.5 15.771 3.5 17.657 4.672 18.828C5.289 19.446 6.105 19.738 7.292 19.876C7.1 19.036 7.1 17.88 7.1 16.216V11.397C7.1 8.671 7.1 7.308 7.943 6.461C8.787 5.614 10.144 5.614 12.86 5.614H15.74C17.392 5.614 18.54 5.614 19.378 5.804C19.24 4.611 18.948 3.792 18.328 3.172C17.157 2 15.271 2 11.5 2C7.729 2 5.843 2 4.672 3.172Z" fill="#2F4C21"/>
</svg>
