<svg width="24" height="24" viewBox="0 0 24 24" fill="none" xmlns="http://www.w3.org/2000/svg">
<g opacity="0.35" filter="url(#filter0_bii_442_17620)">
<path fill-rule="evenodd" clip-rule="evenodd" d="M17.5835 2.30921C17.2858 2.48296 16.8105 2.92046 16.5278 3.28121C16.111 3.81271 15.7495 3.95896 14.6235 4.05246C13.4878 4.14671 13.085 4.31221 12.4175 4.95896C11.9483 5.41371 11.3385 5.75021 10.9833 5.75021C10.1183 5.75021 5.75002 10.1265 5.75002 10.993C5.75002 11.3375 5.40677 11.9557 4.95877 12.4177C4.31052 13.0867 4.14652 13.487 4.05152 14.6337C3.95402 15.8075 3.82227 16.1167 3.23327 16.552C1.88777 17.547 1.67502 19.4025 2.79077 20.4117C3.19352 20.776 3.71877 20.8782 5.24677 20.8895C6.70327 20.9002 7.36852 21.0205 7.90052 21.369C8.86452 22.0005 10.6708 22.1445 11.7858 21.6785C12.341 21.4465 12.8143 21.3875 13.0288 21.5232C13.66 21.923 14.6528 21.759 16.1608 21.0055C19.4868 19.3432 22.5945 14.7207 21.523 13.029C21.3873 12.8145 21.4463 12.3412 21.6783 11.786C22.1443 10.671 22.0003 8.86471 21.3688 7.90071C21.019 7.36721 20.9 6.70296 20.8893 5.22771C20.8773 3.59071 20.7895 3.17896 20.36 2.74946C19.7228 2.11196 18.3063 1.88721 17.5835 2.30921Z" fill="#213F12"/>
</g>
<g filter="url(#filter1_bii_442_17620)">
<path fill-rule="evenodd" clip-rule="evenodd" d="M13.3748 4.33686C12.9623 4.52636 12.4255 4.90536 12.1818 5.17886C11.7513 5.66236 11.768 5.69561 12.774 6.36111C13.3433 6.73786 15.489 8.27311 17.5423 9.77286L21.2755 12.4994L21.6375 11.6326C22.0903 10.5496 22.096 9.71437 21.6588 8.66761C21.2715 7.74061 20.6078 7.13686 18.0773 5.40936C16.1 4.05936 14.682 3.73611 13.3748 4.33686ZM4.89751 12.5729C3.94001 13.8284 3.79626 15.1786 4.47451 16.5451C5.21251 18.0316 7.36976 20.9031 8.11576 21.3919C9.03526 21.9944 10.5013 22.1104 11.5675 21.6649L12.4923 21.2784L9.43351 17.0669C7.75126 14.7504 6.19826 12.5874 5.98251 12.2599L5.59026 11.6646L4.89751 12.5729Z" fill="#213F12"/>
</g>
<defs>
<filter id="filter0_bii_442_17620" x="-9.92725" y="-9.90625" width="43.8799" height="43.8589" filterUnits="userSpaceOnUse" color-interpolation-filters="sRGB">
<feFlood flood-opacity="0" result="BackgroundImageFix"/>
<feGaussianBlur in="BackgroundImageFix" stdDeviation="6"/>
<feComposite in2="SourceAlpha" operator="in" result="effect1_backgroundBlur_442_17620"/>
<feBlend mode="normal" in="SourceGraphic" in2="effect1_backgroundBlur_442_17620" result="shape"/>
<feColorMatrix in="SourceAlpha" type="matrix" values="0 0 0 0 0 0 0 0 0 0 0 0 0 0 0 0 0 0 127 0" result="hardAlpha"/>
<feOffset dx="-1.24988" dy="1.24988"/>
<feGaussianBlur stdDeviation="0.624942"/>
<feComposite in2="hardAlpha" operator="arithmetic" k2="-1" k3="1"/>
<feColorMatrix type="matrix" values="0 0 0 0 1 0 0 0 0 1 0 0 0 0 1 0 0 0 0.1 0"/>
<feBlend mode="normal" in2="shape" result="effect2_innerShadow_442_17620"/>
<feColorMatrix in="SourceAlpha" type="matrix" values="0 0 0 0 0 0 0 0 0 0 0 0 0 0 0 0 0 0 127 0" result="hardAlpha"/>
<feOffset dx="1.24988" dy="-1.24988"/>
<feGaussianBlur stdDeviation="0.624942"/>
<feComposite in2="hardAlpha" operator="arithmetic" k2="-1" k3="1"/>
<feColorMatrix type="matrix" values="0 0 0 0 0.76 0 0 0 0 0.76 0 0 0 0 0.76 0 0 0 0.096 0"/>
<feBlend mode="normal" in2="effect2_innerShadow_442_17620" result="effect3_innerShadow_442_17620"/>
</filter>
<filter id="filter1_bii_442_17620" x="-7.9458" y="-7.95264" width="41.9277" height="41.8877" filterUnits="userSpaceOnUse" color-interpolation-filters="sRGB">
<feFlood flood-opacity="0" result="BackgroundImageFix"/>
<feGaussianBlur in="BackgroundImageFix" stdDeviation="6"/>
<feComposite in2="SourceAlpha" operator="in" result="effect1_backgroundBlur_442_17620"/>
<feBlend mode="normal" in="SourceGraphic" in2="effect1_backgroundBlur_442_17620" result="shape"/>
<feColorMatrix in="SourceAlpha" type="matrix" values="0 0 0 0 0 0 0 0 0 0 0 0 0 0 0 0 0 0 127 0" result="hardAlpha"/>
<feOffset dx="-1.24988" dy="1.24988"/>
<feGaussianBlur stdDeviation="0.624942"/>
<feComposite in2="hardAlpha" operator="arithmetic" k2="-1" k3="1"/>
<feColorMatrix type="matrix" values="0 0 0 0 1 0 0 0 0 1 0 0 0 0 1 0 0 0 0.1 0"/>
<feBlend mode="normal" in2="shape" result="effect2_innerShadow_442_17620"/>
<feColorMatrix in="SourceAlpha" type="matrix" values="0 0 0 0 0 0 0 0 0 0 0 0 0 0 0 0 0 0 127 0" result="hardAlpha"/>
<feOffset dx="1.24988" dy="-1.24988"/>
<feGaussianBlur stdDeviation="0.624942"/>
<feComposite in2="hardAlpha" operator="arithmetic" k2="-1" k3="1"/>
<feColorMatrix type="matrix" values="0 0 0 0 0.76 0 0 0 0 0.76 0 0 0 0 0.76 0 0 0 0.096 0"/>
<feBlend mode="normal" in2="effect2_innerShadow_442_17620" result="effect3_innerShadow_442_17620"/>
</filter>
</defs>
</svg>
