<svg width="222" height="104" viewBox="0 0 222 104" fill="none" xmlns="http://www.w3.org/2000/svg">
<path d="M153.676 53.1084V70.4737H148.816V60.892L145.518 70.4737H141.451L138.129 60.8181V70.4737H133.269V53.1084H139.145L143.534 64.3897L147.824 53.1084H153.676Z" fill="#4A802F"/>
<path d="M169.733 63.4044C169.733 63.7821 169.708 64.1598 169.658 64.5375H160.459C160.509 65.2928 160.715 65.8594 161.079 66.2371C161.459 66.5983 161.939 66.7789 162.517 66.7789C163.327 66.7789 163.906 66.4177 164.253 65.6952H169.435C169.22 66.6476 168.799 67.5015 168.171 68.2568C167.559 68.9958 166.782 69.5787 165.84 70.0057C164.898 70.4326 163.856 70.6461 162.716 70.6461C161.344 70.6461 160.12 70.3587 159.046 69.784C157.988 69.2093 157.153 68.3882 156.541 67.3208C155.946 66.2535 155.649 64.9973 155.649 63.5522C155.649 62.1072 155.946 60.8592 156.541 59.8082C157.137 58.7408 157.963 57.9198 159.021 57.3451C160.096 56.7703 161.327 56.4829 162.716 56.4829C164.088 56.4829 165.303 56.7621 166.361 57.3204C167.419 57.8787 168.245 58.6834 168.84 59.7343C169.435 60.7688 169.733 61.9922 169.733 63.4044ZM164.774 62.1975C164.774 61.6063 164.575 61.1465 164.179 60.8181C163.782 60.4733 163.286 60.3008 162.691 60.3008C162.096 60.3008 161.608 60.4651 161.228 60.7935C160.848 61.1055 160.6 61.5735 160.484 62.1975H164.774Z" fill="#4A802F"/>
<path d="M180.822 56.5322C182.425 56.5322 183.698 57.0659 184.64 58.1333C185.583 59.1842 186.054 60.6128 186.054 62.4192V70.4737H181.194V63.0596C181.194 62.2714 180.987 61.6556 180.574 61.2122C180.161 60.7524 179.607 60.5225 178.913 60.5225C178.185 60.5225 177.615 60.7524 177.202 61.2122C176.788 61.6556 176.582 62.2714 176.582 63.0596V70.4737H171.722V56.6554H176.582V58.6259C177.012 58.0019 177.59 57.5011 178.317 57.1234C179.045 56.7293 179.88 56.5322 180.822 56.5322Z" fill="#4A802F"/>
<path d="M202.953 56.6554V70.4737H198.069V68.5032C197.655 69.1272 197.085 69.6362 196.358 70.0303C195.63 70.408 194.796 70.5968 193.853 70.5968C192.233 70.5968 190.952 70.0714 190.01 69.0204C189.084 67.9531 188.621 66.508 188.621 64.6853V56.6554H193.457V64.0695C193.457 64.8577 193.663 65.4817 194.076 65.9415C194.506 66.3848 195.068 66.6065 195.763 66.6065C196.473 66.6065 197.035 66.3848 197.449 65.9415C197.862 65.4817 198.069 64.8577 198.069 64.0695V56.6554H202.953Z" fill="#4A802F"/>
<path d="M99.9141 17.7416C102.666 17.7416 105.072 18.2958 107.13 19.4042C109.213 20.488 110.812 22.0152 111.928 23.9857C113.043 25.9562 113.601 28.21 113.601 30.7471C113.601 33.2595 113.031 35.5009 111.89 37.4715C110.775 39.442 109.175 40.9938 107.092 42.1268C105.034 43.2353 102.642 43.7895 99.9141 43.7895H89.537V17.7416H99.9141ZM99.3562 37.3976C101.489 37.3976 103.162 36.8187 104.377 35.6611C105.592 34.5034 106.2 32.8654 106.2 30.7471C106.2 28.6041 105.592 26.9538 104.377 25.7961C103.162 24.6138 101.489 24.0226 99.3562 24.0226H96.827V37.3976H99.3562Z" fill="#BAF29D"/>
<path d="M115.697 33.4073C115.697 31.2643 116.082 29.3923 116.85 27.7913C117.644 26.1902 118.71 24.9586 120.049 24.0965C121.413 23.2344 122.925 22.8034 124.587 22.8034C126.025 22.8034 127.265 23.0866 128.306 23.6532C129.347 24.2197 130.153 24.9833 130.724 25.9439V23.062H138.014V43.7895H130.724V40.9076C130.153 41.8682 129.335 42.6318 128.269 43.1983C127.227 43.7648 126 44.0481 124.587 44.0481C122.925 44.0481 121.413 43.6171 120.049 42.7549C118.71 41.8928 117.644 40.6613 116.85 39.0602C116.082 37.4345 115.697 35.5502 115.697 33.4073ZM130.724 33.4073C130.724 32.0772 130.352 31.0303 129.608 30.2667C128.889 29.5032 127.996 29.1214 126.93 29.1214C125.839 29.1214 124.934 29.5032 124.215 30.2667C123.496 31.0057 123.136 32.0525 123.136 33.4073C123.136 34.7374 123.496 35.7965 124.215 36.5847C124.934 37.3483 125.839 37.7301 126.93 37.7301C127.996 37.7301 128.889 37.3483 129.608 36.5847C130.352 35.8212 130.724 34.762 130.724 33.4073Z" fill="#BAF29D"/>
<path d="M153.438 29.0844H150.164V43.7895H142.837V29.0844H140.568V23.062H142.837V22.8773C142.837 20.2171 143.618 18.1849 145.18 16.7809C146.767 15.3523 149.036 14.638 151.987 14.638C152.582 14.638 153.041 14.6503 153.363 14.6749V20.8452C153.165 20.8205 152.892 20.8082 152.545 20.8082C151.751 20.8082 151.169 20.9929 150.797 21.3624C150.425 21.7073 150.214 22.2738 150.164 23.062H153.438V29.0844Z" fill="#BAF29D"/>
<path d="M168.354 37.6193V43.7895H165.193C159.861 43.7895 157.196 41.1662 157.196 35.9197V29.0844H154.629V23.062H157.196V18.0372H164.523V23.062H168.317V29.0844H164.523V36.0305C164.523 36.5971 164.647 37.0035 164.895 37.2498C165.168 37.4961 165.614 37.6193 166.234 37.6193H168.354Z" fill="#BAF29D"/>
<path d="M170.507 33.4073C170.507 31.2643 170.892 29.3923 171.66 27.7913C172.454 26.1902 173.52 24.9586 174.859 24.0965C176.223 23.2344 177.735 22.8034 179.397 22.8034C180.835 22.8034 182.075 23.0866 183.116 23.6532C184.158 24.2197 184.964 24.9833 185.534 25.9439V23.062H192.824V43.7895H185.534V40.9076C184.964 41.8682 184.145 42.6318 183.079 43.1983C182.038 43.7648 180.81 44.0481 179.397 44.0481C177.735 44.0481 176.223 43.6171 174.859 42.7549C173.52 41.8928 172.454 40.6613 171.66 39.0602C170.892 37.4345 170.507 35.5502 170.507 33.4073ZM185.534 33.4073C185.534 32.0772 185.162 31.0303 184.418 30.2667C183.699 29.5032 182.806 29.1214 181.74 29.1214C180.649 29.1214 179.744 29.5032 179.025 30.2667C178.306 31.0057 177.946 32.0525 177.946 33.4073C177.946 34.7374 178.306 35.7965 179.025 36.5847C179.744 37.3483 180.649 37.7301 181.74 37.7301C182.806 37.7301 183.699 37.3483 184.418 36.5847C185.162 35.8212 185.534 34.762 185.534 33.4073Z" fill="#BAF29D"/>
<path d="M204.268 26.7198C205.086 25.5375 206.078 24.6015 207.243 23.9118C208.409 23.2221 209.661 22.8773 211 22.8773V30.5993H208.954C207.367 30.5993 206.19 30.9072 205.421 31.5229C204.652 32.1387 204.268 33.2102 204.268 34.7374V43.7895H196.978V23.062H204.268V26.7198Z" fill="#BAF29D"/>
<path d="M11 26.7143C11 19.1401 17.1811 13 24.8058 13H39.8246C60.5992 13 77.4404 29.7295 77.4404 50.3665C77.4404 72.8078 59.1267 91 36.5357 91H23.4745C16.585 91 11 85.452 11 78.6082V26.7143Z" fill="#BAF29D"/>
<path d="M32.2193 59.02C30.477 59.0474 29.092 60.4674 29.1201 62.2315C29.1239 62.6416 29.2102 63.0468 29.374 63.4233C29.5377 63.7998 29.7757 64.1399 30.0737 64.4237C30.3718 64.7075 30.724 64.9293 31.1095 65.0759C31.4951 65.2225 31.9064 65.291 32.319 65.2774L65.9003 64.4237C67.877 64.3952 69.8199 63.91 71.575 63.0063C73.3302 62.1027 74.8495 60.8056 76.0125 59.2176C77.8781 56.4117 84.7033 56.3044 84.7033 56.3044L120.479 56.3038C122.858 56.2664 124.77 54.3054 124.732 51.9422L124.716 50.8771C124.678 48.5139 122.704 46.614 120.325 46.6514H84.5864C84.5864 46.6514 77.8952 46.7566 75.7729 43.9701C74.5583 42.4311 73.0009 41.1928 71.2232 40.3525C69.4455 39.5123 67.4959 39.0929 65.5275 39.1273L32.2185 39.4774C31.7963 39.4838 31.3797 39.5745 30.9935 39.744C30.6073 39.9136 30.2593 40.1585 29.9703 40.4643C29.6813 40.7702 29.4571 41.1306 29.3111 41.5241C29.1651 41.9177 29.1204 42.7554 29.1204 42.7554C29.1809 44.4524 30.7099 45.7601 32.4522 45.7327L56.8486 45.5228C57.284 45.5159 57.7043 45.6812 58.0171 45.9822C58.3299 46.2832 58.5094 46.6953 58.5163 47.1279C58.5232 47.5604 58.3569 47.978 58.0538 48.2887C57.7508 48.5994 57.336 48.7778 56.9005 48.7846L41.2003 49C40.7781 49.0064 40.3615 49.0971 39.9753 49.2667C39.589 49.4362 39.2411 49.6812 38.9521 49.987C38.663 50.2928 38.4389 50.6532 38.2929 51.0468C38.1468 51.4404 38.082 51.8591 38.1021 52.2781C38.1627 53.975 39.6917 55.2827 41.434 55.2553L57.0002 55.042C57.4357 55.0352 57.856 55.2004 58.1688 55.5014C58.4815 55.8025 58.6611 56.2146 58.668 56.6471C58.6749 57.0797 58.5085 57.4972 58.2055 57.8079C57.9025 58.1186 57.4876 58.297 57.0522 58.3038L32.2193 59.02Z" fill="#4A802F"/>
</svg>
