<svg width="17" height="16" viewBox="0 0 17 16" fill="none" xmlns="http://www.w3.org/2000/svg">
<g clip-path="url(#clip0_1042_2589)">
<path d="M4.16675 11.3333C4.71903 11.3333 5.16675 10.8855 5.16675 10.3333C5.16675 9.78097 4.71903 9.33325 4.16675 9.33325C3.61446 9.33325 3.16675 9.78097 3.16675 10.3333C3.16675 10.8855 3.61446 11.3333 4.16675 11.3333Z" fill="#213F12"/>
<path d="M13.1667 2H3.83333C2.9496 2.00106 2.10237 2.35259 1.47748 2.97748C0.852588 3.60237 0.501059 4.4496 0.5 5.33333L0.5 10.6667C0.501059 11.5504 0.852588 12.3976 1.47748 13.0225C2.10237 13.6474 2.9496 13.9989 3.83333 14H13.1667C14.0504 13.9989 14.8976 13.6474 15.5225 13.0225C16.1474 12.3976 16.4989 11.5504 16.5 10.6667V5.33333C16.4989 4.4496 16.1474 3.60237 15.5225 2.97748C14.8976 2.35259 14.0504 2.00106 13.1667 2ZM3.83333 3.33333H13.1667C13.6971 3.33333 14.2058 3.54405 14.5809 3.91912C14.956 4.29419 15.1667 4.8029 15.1667 5.33333H1.83333C1.83333 4.8029 2.04405 4.29419 2.41912 3.91912C2.79419 3.54405 3.3029 3.33333 3.83333 3.33333ZM13.1667 12.6667H3.83333C3.3029 12.6667 2.79419 12.456 2.41912 12.0809C2.04405 11.7058 1.83333 11.1971 1.83333 10.6667V6.66667H15.1667V10.6667C15.1667 11.1971 14.956 11.7058 14.5809 12.0809C14.2058 12.456 13.6971 12.6667 13.1667 12.6667Z" fill="#213F12"/>
</g>
<defs>
<clipPath id="clip0_1042_2589">
<rect width="16" height="16" fill="white" transform="translate(0.5)"/>
</clipPath>
</defs>
</svg>
