<svg width="17" height="16" viewBox="0 0 17 16" fill="none" xmlns="http://www.w3.org/2000/svg">
<g clip-path="url(#clip0_1042_2592)">
<path d="M13.1667 2H3.83333C2.9496 2.00106 2.10237 2.35259 1.47748 2.97748C0.852588 3.60237 0.501059 4.4496 0.5 5.33333H16.5C16.4989 4.4496 16.1474 3.60237 15.5225 2.97748C14.8976 2.35259 14.0504 2.00106 13.1667 2Z" fill="white"/>
<path d="M0.5 10.6667C0.501059 11.5505 0.852588 12.3977 1.47748 13.0226C2.10237 13.6475 2.9496 13.999 3.83333 14.0001H13.1667C14.0504 13.999 14.8976 13.6475 15.5225 13.0226C16.1474 12.3977 16.4989 11.5505 16.5 10.6667V6.66675H0.5V10.6667ZM5.16667 10.3334C5.16667 10.5312 5.10802 10.7245 4.99814 10.889C4.88826 11.0534 4.73208 11.1816 4.54935 11.2573C4.36662 11.333 4.16556 11.3528 3.97158 11.3142C3.7776 11.2756 3.59941 11.1804 3.45956 11.0405C3.31971 10.9007 3.22447 10.7225 3.18588 10.5285C3.1473 10.3345 3.1671 10.1335 3.24279 9.95073C3.31847 9.76801 3.44665 9.61183 3.6111 9.50195C3.77555 9.39206 3.96889 9.33341 4.16667 9.33341C4.43188 9.33341 4.68624 9.43877 4.87377 9.62631C5.06131 9.81384 5.16667 10.0682 5.16667 10.3334Z" fill="white"/>
</g>
<defs>
<clipPath id="clip0_1042_2592">
<rect width="16" height="16" fill="white" transform="translate(0.5)"/>
</clipPath>
</defs>
</svg>
