<svg width="84" height="84" viewBox="0 0 84 84" fill="none" xmlns="http://www.w3.org/2000/svg">
<g clip-path="url(#clip0_161_1271)">
<path fill-rule="evenodd" clip-rule="evenodd" d="M42 0.840027C19.268 0.840027 0.840027 19.268 0.840027 42C0.840027 64.7321 19.268 83.16 42 83.16C64.7321 83.16 83.16 64.7321 83.16 42C83.16 19.268 64.7321 0.840027 42 0.840027Z" fill="white"/>
<path fill-rule="evenodd" clip-rule="evenodd" d="M42 0.840027V83.16C19.268 83.16 0.840027 64.7321 0.840027 42C0.840027 19.268 19.268 0.840027 42 0.840027Z" fill="#EFEEE5"/>
<path fill-rule="evenodd" clip-rule="evenodd" d="M48.5913 20.0345C50.108 17.7599 52.4795 15.96 55.44 15.96C58.4005 15.96 60.772 17.7599 62.2887 20.0345C63.8168 22.3268 64.68 25.3484 64.68 28.56C64.68 31.7716 63.8168 34.7932 62.2887 37.0854C61.2313 38.6713 59.7583 40.0264 57.96 40.7017V67.2C57.96 68.5917 56.8317 69.72 55.44 69.72C54.0483 69.72 52.92 68.5917 52.92 67.2V40.7017C51.1217 40.0264 49.6487 38.6713 48.5913 37.0854C47.0632 34.7932 46.2 31.7716 46.2 28.56C46.2 25.3484 47.0632 22.3268 48.5913 20.0345Z" fill="#335D1E"/>
<path fill-rule="evenodd" clip-rule="evenodd" d="M24.36 20.16C24.36 18.7683 23.2318 17.64 21.84 17.64C20.4483 17.64 19.32 18.7683 19.32 20.16V30.24C19.32 35.8613 22.66 41.1704 27.72 42.5144V67.2C27.72 68.5917 28.8483 69.72 30.24 69.72C31.6318 69.72 32.76 68.5917 32.76 67.2V42.5144C37.8202 41.1704 41.16 35.8613 41.16 30.24V20.16C41.16 18.7683 40.0317 17.64 38.64 17.64C37.2483 17.64 36.12 18.7683 36.12 20.16V30.24C36.12 33.4781 34.6282 35.8878 32.76 37.042V20.16C32.76 18.7683 31.6318 17.64 30.24 17.64C28.8483 17.64 27.72 18.7683 27.72 20.16V37.042C25.8518 35.8878 24.36 33.4781 24.36 30.24V20.16Z" fill="#213F12"/>
</g>
<defs>
<clipPath id="clip0_161_1271">
<rect width="84" height="84" fill="white"/>
</clipPath>
</defs>
</svg>
