<svg width="16" height="16" viewBox="0 0 16 16" fill="none" xmlns="http://www.w3.org/2000/svg">
<g clip-path="url(#clip0_1042_2547)">
<path d="M14.6666 6.66667C14.6368 7.93363 14.3216 9.17755 13.7444 10.3058C13.1673 11.4341 12.3431 12.4177 11.3333 13.1833V15.3333C11.3333 15.5101 11.263 15.6797 11.138 15.8047C11.013 15.9298 10.8434 16 10.6666 16C10.4898 16 10.3202 15.9298 10.1952 15.8047C10.0702 15.6797 9.99992 15.5101 9.99992 15.3333V1.33333C9.99394 1.08284 10.0624 0.836205 10.1966 0.624619C10.3308 0.413034 10.5248 0.246007 10.7539 0.144667C11.0171 0.0375768 11.3059 0.00948677 11.5848 0.0638294C11.8637 0.118172 12.1208 0.252594 12.3246 0.450667C13.8708 2.1473 14.7088 4.37153 14.6666 6.66667ZM7.33325 0C7.15644 0 6.98687 0.0702379 6.86185 0.195262C6.73682 0.320286 6.66659 0.489856 6.66659 0.666667V4.66667C6.66488 5.07884 6.53586 5.48042 6.29719 5.81647C6.05852 6.15251 5.72186 6.40661 5.33325 6.544V0.666667C5.33325 0.489856 5.26301 0.320286 5.13799 0.195262C5.01297 0.0702379 4.8434 0 4.66659 0C4.48977 0 4.32021 0.0702379 4.19518 0.195262C4.07016 0.320286 3.99992 0.489856 3.99992 0.666667V6.544C3.61131 6.40661 3.27465 6.15251 3.03598 5.81647C2.79731 5.48042 2.66829 5.07884 2.66659 4.66667V0.666667C2.66659 0.489856 2.59635 0.320286 2.47132 0.195262C2.3463 0.0702379 2.17673 0 1.99992 0C1.82311 0 1.65354 0.0702379 1.52851 0.195262C1.40349 0.320286 1.33325 0.489856 1.33325 0.666667V4.66667C1.33422 5.4348 1.59998 6.17912 2.08573 6.77417C2.57148 7.36921 3.24753 7.7786 3.99992 7.93333V15.3333C3.99992 15.5101 4.07016 15.6797 4.19518 15.8047C4.32021 15.9298 4.48977 16 4.66659 16C4.8434 16 5.01297 15.9298 5.13799 15.8047C5.26301 15.6797 5.33325 15.5101 5.33325 15.3333V7.93333C6.08564 7.7786 6.76169 7.36921 7.24744 6.77417C7.73319 6.17912 7.99895 5.4348 7.99992 4.66667V0.666667C7.99992 0.489856 7.92968 0.320286 7.80466 0.195262C7.67963 0.0702379 7.51006 0 7.33325 0Z" fill="white"/>
</g>
<defs>
<clipPath id="clip0_1042_2547">
<rect width="16" height="16" fill="white"/>
</clipPath>
</defs>
</svg>
