<svg width="16" height="16" viewBox="0 0 16 16" fill="none" xmlns="http://www.w3.org/2000/svg">
<g clip-path="url(#clip0_1042_2545)">
<path d="M7.99992 0.666667V4.66667C7.99895 5.4348 7.73319 6.17912 7.24744 6.77417C6.76169 7.36921 6.08564 7.7786 5.33325 7.93333V15.3333C5.33325 15.5101 5.26301 15.6797 5.13799 15.8047C5.01297 15.9298 4.8434 16 4.66659 16C4.48977 16 4.32021 15.9298 4.19518 15.8047C4.07016 15.6797 3.99992 15.5101 3.99992 15.3333V7.93333C3.24753 7.7786 2.57148 7.36921 2.08573 6.77417C1.59998 6.17912 1.33422 5.4348 1.33325 4.66667V0.666667C1.33325 0.489856 1.40349 0.320286 1.52851 0.195262C1.65354 0.0702379 1.82311 0 1.99992 0C2.17673 0 2.3463 0.0702379 2.47132 0.195262C2.59635 0.320286 2.66659 0.489856 2.66659 0.666667V4.66667C2.66829 5.07884 2.79731 5.48042 3.03598 5.81647C3.27465 6.15251 3.61131 6.40661 3.99992 6.544V0.666667C3.99992 0.489856 4.07016 0.320286 4.19518 0.195262C4.32021 0.0702379 4.48977 0 4.66659 0C4.8434 0 5.01297 0.0702379 5.13799 0.195262C5.26301 0.320286 5.33325 0.489856 5.33325 0.666667V6.544C5.72186 6.40661 6.05852 6.15251 6.29719 5.81647C6.53586 5.48042 6.66488 5.07884 6.66659 4.66667V0.666667C6.66659 0.489856 6.73682 0.320286 6.86185 0.195262C6.98687 0.0702379 7.15644 0 7.33325 0C7.51006 0 7.67963 0.0702379 7.80466 0.195262C7.92968 0.320286 7.99992 0.489856 7.99992 0.666667ZM14.6666 6.66667C14.6368 7.93363 14.3216 9.17755 13.7444 10.3058C13.1673 11.4341 12.3431 12.4177 11.3333 13.1833V15.3333C11.3333 15.5101 11.263 15.6797 11.138 15.8047C11.013 15.9298 10.8434 16 10.6666 16C10.4898 16 10.3202 15.9298 10.1952 15.8047C10.0702 15.6797 9.99992 15.5101 9.99992 15.3333V1.33333C9.99394 1.08284 10.0624 0.836205 10.1966 0.624619C10.3308 0.413034 10.5248 0.246007 10.7539 0.144667C11.0171 0.0375768 11.3059 0.00948677 11.5848 0.0638294C11.8637 0.118172 12.1208 0.252594 12.3246 0.450667C13.8708 2.1473 14.7088 4.37153 14.6666 6.66667ZM13.3333 6.66667C13.3522 4.71477 12.6385 2.82672 11.3333 1.37533V11.38C12.5826 10.1255 13.2992 8.43687 13.3333 6.66667Z" fill="white"/>
</g>
<defs>
<clipPath id="clip0_1042_2545">
<rect width="16" height="16" fill="white"/>
</clipPath>
</defs>
</svg>
