<svg width="148" height="148" viewBox="0 0 148 148" fill="none" xmlns="http://www.w3.org/2000/svg">
<path d="M17.077 123.808C20.222 123.808 22.7693 126.355 22.7693 129.5C22.7693 132.645 20.222 135.192 17.077 135.192C13.932 135.192 11.3846 132.645 11.3846 129.5C11.3846 126.355 13.932 123.808 17.077 123.808Z" fill="#779C74"/>
<path d="M132.346 27.0385C136.277 27.0385 139.462 30.2233 139.462 34.1538C139.462 38.0844 136.277 41.2692 132.346 41.2692C128.416 41.2692 125.231 38.0844 125.231 34.1538C125.231 30.2233 128.416 27.0385 132.346 27.0385Z" fill="#779C74"/>
<path d="M113.846 32.7308H106.13C110.861 28.5612 113.846 22.4562 113.846 15.6539H19.9231C19.9231 19.055 20.6688 22.2826 22.0065 25.1799C23.3442 28.0773 25.2739 30.6474 27.639 32.7308H19.9231C19.9231 36.1319 20.6688 39.3595 22.0065 42.2569C23.3442 45.1543 25.2739 47.7243 27.639 49.8077H19.9231C19.9231 53.2089 20.6688 56.4364 22.0065 59.3338C23.3442 62.2312 25.2739 64.8013 27.639 66.8846H19.9231C19.9231 70.2858 20.6688 73.5133 22.0065 76.4107C23.3442 79.3084 25.2739 81.8782 27.639 83.9616H19.9231C19.9231 87.3627 20.6688 90.5903 22.0065 93.4876C23.3442 96.3853 25.2739 98.9551 27.639 101.038H19.9231C19.9231 105.962 21.4856 110.522 24.1439 114.245C26.8022 117.967 30.5535 120.859 34.9309 122.444C37.8909 123.517 39.8462 126.349 39.8462 129.5H101.038C83.8249 129.5 69.4689 117.279 66.1731 101.038C65.7063 98.7388 65.4616 96.3594 65.4616 93.9231C65.4616 90.465 65.9539 87.1208 66.8761 83.9616C68.8342 77.2304 72.7278 71.3246 77.9135 66.8846C84.1323 61.5623 92.2097 58.3462 101.038 58.3462C104.676 58.3462 108.182 58.8926 111.487 59.9059C112.998 56.8633 113.846 53.4366 113.846 49.8077H106.13C110.861 45.6381 113.846 39.5331 113.846 32.7308Z" fill="#D7EDD8"/>
<path d="M66.1731 101.038H27.639H19.9231C19.9231 105.962 21.4856 110.522 24.1439 114.245C26.8023 117.967 30.5535 120.859 34.9309 122.444C37.8909 123.517 39.8462 126.349 39.8462 129.5H101.038C83.8249 129.5 69.4689 117.279 66.1731 101.038Z" fill="#B0D2AF"/>
<path d="M27.639 66.8846H77.9135C72.7278 71.3246 68.8343 77.2304 66.8761 83.9616H27.639C25.2739 81.8782 23.3442 79.3081 22.0065 76.4107C20.6688 73.5133 19.9231 70.2858 19.9231 66.8846H27.639Z" fill="#B0D2AF"/>
<path d="M106.13 32.7308H113.846C113.846 39.5331 110.861 45.6381 106.13 49.8077H27.639C25.2739 47.7243 23.3442 45.1542 22.0065 42.2569C20.6688 39.3595 19.9231 36.1319 19.9231 32.7308H27.639H106.13Z" fill="#B0D2AF"/>
<path d="M27.639 83.9615H66.8761C65.9539 87.1208 65.4616 90.465 65.4616 93.9231C65.4616 96.3594 65.7063 98.7388 66.1731 101.038H27.639C25.2739 98.9551 23.3442 96.385 22.0065 93.4876C20.6688 90.5902 19.9231 87.3627 19.9231 83.9615H27.639Z" fill="#D7EDD8"/>
<path d="M106.13 49.8077H113.846C113.846 53.4365 112.998 56.8633 111.487 59.9058C108.182 58.8926 104.676 58.3461 101.038 58.3461C92.2097 58.3461 84.1323 61.5623 77.9135 66.8846H27.639C25.2739 64.8012 23.3442 62.2311 22.0065 59.3338C20.6688 56.4364 19.9231 53.2088 19.9231 49.8077H27.639H106.13Z" fill="#D7EDD8"/>
<path d="M19.9231 15.6539H113.846C113.846 22.4562 110.861 28.5612 106.13 32.7308H27.639C25.2739 30.6474 23.3442 28.0773 22.0065 25.1799C20.6688 22.2826 19.9231 19.055 19.9231 15.6539Z" fill="#D7EDD8"/>
<path d="M133.769 55.5C135.34 55.5 136.615 56.7751 136.615 58.3462C136.615 59.9172 135.34 61.1923 133.769 61.1923C132.198 61.1923 130.923 59.9172 130.923 58.3462C130.923 56.7751 132.198 55.5 133.769 55.5Z" fill="#779C74"/>
<path d="M130.923 123.808C132.494 123.808 133.769 125.083 133.769 126.654C133.769 128.225 132.494 129.5 130.923 129.5C129.352 129.5 128.077 128.225 128.077 126.654C128.077 125.083 129.352 123.808 130.923 123.808Z" fill="#779C74"/>
<path d="M128.077 12.8077C129.648 12.8077 130.923 14.0828 130.923 15.6538C130.923 17.2249 129.648 18.5 128.077 18.5C126.506 18.5 125.231 17.2249 125.231 15.6538C125.231 14.0828 126.506 12.8077 128.077 12.8077Z" fill="#779C74"/>
<path d="M11.3846 109.577C12.9557 109.577 14.2308 110.852 14.2308 112.423C14.2308 113.994 12.9557 115.269 11.3846 115.269C9.81353 115.269 8.53845 113.994 8.53845 112.423C8.53845 110.852 9.81353 109.577 11.3846 109.577Z" fill="#779C74"/>
<path d="M77.4439 66.3837C83.7125 61.0187 91.8545 57.7769 100.754 57.7769C104.421 57.7769 107.955 58.3276 111.286 59.3491C125.955 63.8478 136.615 77.4979 136.615 93.6385C136.615 113.446 120.561 129.5 100.754 129.5C83.4023 129.5 68.9319 117.181 65.6096 100.811C65.1391 98.4926 64.8923 96.0941 64.8923 93.6385C64.8923 90.1525 65.3887 86.7815 66.3183 83.5972C68.2921 76.8123 72.2166 70.8593 77.4439 66.3837Z" fill="#E0F3D4"/>
<path d="M100.754 115.155C88.8891 115.155 79.2369 105.503 79.2369 93.6384C79.2369 81.7737 88.8891 72.1215 100.754 72.1215C112.619 72.1215 122.271 81.7737 122.271 93.6384C122.271 95.2226 120.986 96.5074 119.402 96.5074C117.818 96.5074 116.533 95.2226 116.533 93.6384C116.533 84.938 109.455 77.8594 100.754 77.8594C92.0535 77.8594 84.9754 84.938 84.9754 93.6384C84.9754 102.339 92.0532 109.418 100.754 109.418C102.338 109.418 103.623 110.702 103.623 112.286C103.623 113.871 102.338 115.155 100.754 115.155Z" fill="white"/>
</svg>
