<svg width="149" height="148" viewBox="0 0 149 148" fill="none" xmlns="http://www.w3.org/2000/svg">
<g filter="url(#filter0_ii_944_1778)">
<path d="M89.6701 104.682C82.4135 109.169 73.8526 111.759 64.6951 111.759C38.4251 111.759 17.127 90.4651 17.127 64.1951C17.127 37.9251 38.4251 16.627 64.6951 16.627C90.9651 16.627 112.263 37.9251 112.263 64.1951C112.263 73.3341 109.687 81.8718 105.219 89.1192L133.053 110.399C140.684 116.18 141.424 127.373 134.718 134.079C133.123 135.675 131.206 136.912 129.094 137.707C126.983 138.502 124.726 138.836 122.474 138.687C120.223 138.538 118.03 137.91 116.041 136.844C114.053 135.778 112.315 134.299 110.945 132.506L89.6701 104.682ZM118.068 117.521C117.419 118.157 116.903 118.914 116.55 119.75C116.196 120.586 116.011 121.484 116.007 122.392C116.002 123.3 116.178 124.199 116.523 125.039C116.868 125.878 117.376 126.641 118.018 127.283C118.66 127.925 119.423 128.433 120.262 128.779C121.102 129.124 122.002 129.299 122.909 129.295C123.817 129.29 124.715 129.106 125.551 128.752C126.387 128.398 127.145 127.882 127.78 127.234C129.047 125.941 129.752 124.201 129.743 122.392C129.734 120.582 129.011 118.85 127.731 117.57C126.452 116.291 124.719 115.568 122.909 115.559C121.1 115.549 119.36 116.255 118.068 117.521Z" fill="#66A447"/>
<path d="M119.64 64.195C119.64 94.5396 95.0396 119.14 64.695 119.14C34.3504 119.14 9.75 94.5396 9.75 64.195C9.75 33.8504 34.3504 9.25 64.695 9.25C95.0396 9.25 119.64 33.8504 119.64 64.195ZM106.32 64.195C106.32 58.7287 105.243 53.316 103.151 48.2658C101.06 43.2156 97.9936 38.6269 94.1283 34.7617C90.2631 30.8964 85.6744 27.8304 80.6242 25.7385C75.574 23.6467 70.1613 22.57 64.695 22.57C59.2287 22.57 53.816 23.6467 48.7658 25.7385C43.7156 27.8304 39.1269 30.8964 35.2617 34.7617C31.3964 38.6269 28.3304 43.2156 26.2385 48.2658C24.1467 53.316 23.07 58.7287 23.07 64.195C23.07 75.2346 27.4555 85.8221 35.2617 93.6283C43.0679 101.435 53.6554 105.82 64.695 105.82C75.7346 105.82 86.3221 101.435 94.1283 93.6283C101.935 85.8221 106.32 75.2346 106.32 64.195Z" fill="#9FCD88"/>
<path d="M89.994 55.4073C88.699 53.6035 86.9877 52.3085 85.0915 51.661C83.0102 50.921 81.1602 49.5798 79.6802 47.961C79.0293 47.2101 78.3177 46.514 77.5527 45.8798C73.9458 42.7825 69.4764 40.8649 64.7464 40.3853C60.0163 39.9057 55.253 40.8871 51.0977 43.1973C48.9702 44.3998 46.6577 45.186 44.2527 45.6485H44.2065C41.709 46.1573 39.7665 48.2848 39.4427 50.8285C39.3965 51.4298 39.3965 51.9848 39.489 52.5398C39.859 54.806 39.9977 57.0723 39.5815 59.3385C38.8845 63.1869 39.1727 67.149 40.4193 70.856C41.6659 74.563 43.8303 77.8942 46.711 80.5395C49.5916 83.1847 53.0949 85.0579 56.8945 85.9847C60.694 86.9114 64.6664 86.8616 68.4415 85.8398C71.124 85.0998 73.9452 84.9148 76.7202 85.0998C78.524 85.1923 80.3277 84.591 81.7152 83.2035C83.519 81.3998 84.074 78.7635 83.2877 76.4973C82.9177 75.3873 83.0102 74.1385 83.4727 73.0748V73.0285C83.9352 71.9648 84.814 71.1785 85.8315 70.716C87.4502 69.976 88.884 68.7735 90.0402 67.1548C92.4452 63.5473 92.4452 58.8298 89.994 55.4073Z" fill="white"/>
<path d="M58.7286 74.8322C60.2652 74.8322 61.7868 74.5295 63.2065 73.9415C64.6261 73.3534 65.9161 72.4915 67.0026 71.405C68.0892 70.3184 68.9511 69.0285 69.5391 67.6088C70.1272 66.1892 70.4298 64.6676 70.4298 63.1309C70.4298 61.5943 70.1272 60.0727 69.5391 58.6531C68.9511 57.2334 68.0892 55.9435 67.0026 54.8569C65.9161 53.7703 64.6261 52.9084 63.2065 52.3204C61.7868 51.7324 60.2652 51.4297 58.7286 51.4297C55.6252 51.4297 52.649 52.6625 50.4546 54.8569C48.2601 57.0513 47.0273 60.0276 47.0273 63.1309C47.0273 66.2343 48.2601 69.2106 50.4546 71.405C52.649 73.5994 55.6252 74.8322 58.7286 74.8322Z" fill="#F9C23C"/>
</g>
<defs>
<filter id="filter0_ii_944_1778" x="0.5" y="-4" width="148" height="152" filterUnits="userSpaceOnUse" color-interpolation-filters="sRGB">
<feFlood flood-opacity="0" result="BackgroundImageFix"/>
<feBlend mode="normal" in="SourceGraphic" in2="BackgroundImageFix" result="shape"/>
<feColorMatrix in="SourceAlpha" type="matrix" values="0 0 0 0 0 0 0 0 0 0 0 0 0 0 0 0 0 0 127 0" result="hardAlpha"/>
<feOffset dy="-4"/>
<feGaussianBlur stdDeviation="12"/>
<feComposite in2="hardAlpha" operator="arithmetic" k2="-1" k3="1"/>
<feColorMatrix type="matrix" values="0 0 0 0 1 0 0 0 0 1 0 0 0 0 1 0 0 0 0.48 0"/>
<feBlend mode="overlay" in2="shape" result="effect1_innerShadow_944_1778"/>
<feColorMatrix in="SourceAlpha" type="matrix" values="0 0 0 0 0 0 0 0 0 0 0 0 0 0 0 0 0 0 127 0" result="hardAlpha"/>
<feOffset dy="-4"/>
<feGaussianBlur stdDeviation="6"/>
<feComposite in2="hardAlpha" operator="arithmetic" k2="-1" k3="1"/>
<feColorMatrix type="matrix" values="0 0 0 0 0.775833 0 0 0 0 0.775833 0 0 0 0 0.775833 0 0 0 0.32 0"/>
<feBlend mode="overlay" in2="effect1_innerShadow_944_1778" result="effect2_innerShadow_944_1778"/>
</filter>
</defs>
</svg>
