<svg width="149" height="148" viewBox="0 0 149 148" fill="none" xmlns="http://www.w3.org/2000/svg">
<g filter="url(#filter0_ii_944_1789)">
<path d="M77.1875 129.375C106.561 129.375 130.375 105.561 130.375 76.1875C130.375 46.8141 106.561 23 77.1875 23C47.8141 23 24 46.8141 24 76.1875C24 105.561 47.8141 129.375 77.1875 129.375Z" fill="#9FCD88"/>
<path d="M76.8125 113.312C86.6255 113.312 96.0366 109.414 102.975 102.475C109.914 95.5366 113.812 86.1255 113.812 76.3125C113.812 66.4995 109.914 57.0884 102.975 50.1495C96.0366 43.2107 86.6255 39.3125 76.8125 39.3125C66.9995 39.3125 57.5884 43.2107 50.6495 50.1495C43.7107 57.0884 39.8125 66.4995 39.8125 76.3125C39.8125 86.1255 43.7107 95.5366 50.6495 102.475C57.5884 109.414 66.9995 113.312 76.8125 113.312Z" fill="#D3E8C8"/>
<path d="M32.0425 29.1837C31.2084 29.1837 30.4085 29.5151 29.8186 30.1049C29.2288 30.6947 28.8975 31.4946 28.8975 32.3287V44.77C28.8975 45.695 28.1575 46.3887 27.2787 46.3887C26.3538 46.3887 25.66 45.6487 25.66 44.77V32.4675C25.66 30.7562 24.3188 29.23 22.6075 29.1837C20.8038 29.1375 19.3238 30.5712 19.3238 32.3287V44.77C19.3238 45.695 18.5837 46.3887 17.705 46.3887C16.78 46.3887 16.0862 45.6487 16.0862 44.77V32.4675C16.0862 30.7562 14.745 29.23 13.0338 29.1837C11.23 29.1375 9.75 30.5712 9.75 32.3287V53.5112C9.75 57.683 11.7711 61.4061 14.8791 63.7278C17.6588 65.2957 17.6588 72.4737 17.6588 72.4737V118.816C17.6588 121.221 19.6013 123.164 22.0063 123.164H23.07C25.475 123.164 27.4175 121.221 27.4175 118.816V72.4737C27.4175 72.4737 27.4175 65.5778 30.1971 63.7278C31.7882 62.5415 33.0803 61.0002 33.9708 59.2265C34.8612 57.4529 35.3254 55.4958 35.3263 53.5112V32.3287C35.2794 31.4859 34.9143 30.6924 34.3047 30.1085C33.6951 29.5247 32.8865 29.1941 32.0425 29.1837ZM131.665 29.1837C135.827 29.1837 139.204 32.56 139.204 36.7225V118.862C139.204 121.267 137.261 123.21 134.856 123.21H133.792C131.387 123.21 129.445 121.267 129.445 118.862V79.0088C126.886 77.8468 124.717 75.9702 123.199 73.6047C121.681 71.2392 120.879 68.4856 120.889 65.675V40.0062C120.878 38.5858 121.149 37.1773 121.686 35.8623C122.223 34.5473 123.015 33.3519 124.018 32.3454C125.02 31.3388 126.212 30.5411 127.525 29.9984C128.837 29.4557 130.245 29.1788 131.665 29.1837Z" fill="#66A447"/>
</g>
<defs>
<filter id="filter0_ii_944_1789" x="0.5" y="-4" width="148" height="152" filterUnits="userSpaceOnUse" color-interpolation-filters="sRGB">
<feFlood flood-opacity="0" result="BackgroundImageFix"/>
<feBlend mode="normal" in="SourceGraphic" in2="BackgroundImageFix" result="shape"/>
<feColorMatrix in="SourceAlpha" type="matrix" values="0 0 0 0 0 0 0 0 0 0 0 0 0 0 0 0 0 0 127 0" result="hardAlpha"/>
<feOffset dy="-4"/>
<feGaussianBlur stdDeviation="12"/>
<feComposite in2="hardAlpha" operator="arithmetic" k2="-1" k3="1"/>
<feColorMatrix type="matrix" values="0 0 0 0 1 0 0 0 0 1 0 0 0 0 1 0 0 0 0.48 0"/>
<feBlend mode="overlay" in2="shape" result="effect1_innerShadow_944_1789"/>
<feColorMatrix in="SourceAlpha" type="matrix" values="0 0 0 0 0 0 0 0 0 0 0 0 0 0 0 0 0 0 127 0" result="hardAlpha"/>
<feOffset dy="-4"/>
<feGaussianBlur stdDeviation="6"/>
<feComposite in2="hardAlpha" operator="arithmetic" k2="-1" k3="1"/>
<feColorMatrix type="matrix" values="0 0 0 0 0.775833 0 0 0 0 0.775833 0 0 0 0 0.775833 0 0 0 0.32 0"/>
<feBlend mode="overlay" in2="effect1_innerShadow_944_1789" result="effect2_innerShadow_944_1789"/>
</filter>
</defs>
</svg>
