<svg width="21" height="16" viewBox="0 0 21 16" fill="none" xmlns="http://www.w3.org/2000/svg">
<g id="flagpack:us" clip-path="url(#clip0_812_15963)">
<g id="Mask group">
<mask id="mask0_812_15963" style="mask-type:luminance" maskUnits="userSpaceOnUse" x="0" y="0" width="21" height="16">
<g id="Group">
<path id="Vector" d="M0 0H21V16H0V0Z" fill="white"/>
</g>
</mask>
<g mask="url(#mask0_812_15963)">
<g id="Group_2">
<path id="Vector_2" fill-rule="evenodd" clip-rule="evenodd" d="M0 0H21V16H0V0Z" fill="#F7FCFF"/>
<path id="Vector_3" fill-rule="evenodd" clip-rule="evenodd" d="M0 9.778V11.1113H21V9.778H0ZM0 12.222V13.5553H21V12.222H0ZM0 4.88867V6.222H21V4.88867H0ZM0 14.6667V16H21V14.6667H0ZM0 7.33333V8.66667H21V7.33333H0ZM0 0V1.33333H21V0H0ZM0 2.44467V3.778H21V2.44467H0Z" fill="#E31D1C"/>
<path id="Vector_4" d="M0 0H13.125V8.66667H0V0Z" fill="#2E42A5"/>
<path id="Vector_5" fill-rule="evenodd" clip-rule="evenodd" d="M1.13005 1.95951L0.653613 2.29885L0.814395 1.69485L0.391113 1.31218H0.944332L1.12939 0.818848L1.34661 1.31218H1.8178L1.44768 1.69485L1.59074 2.29885L1.13005 1.95951ZM3.75505 1.95951L3.27861 2.29885L3.43939 1.69485L3.01677 1.31218H3.56933L3.75439 0.818848L3.97161 1.31218H4.4428L4.07268 1.69485L4.21574 2.29885L3.75505 1.95951ZM5.90361 2.29885L6.38005 1.95885L6.84074 2.29885L6.69768 1.69485L7.0678 1.31218H6.59661L6.37939 0.818848L6.19433 1.31218H5.64177L6.06439 1.69485L5.90361 2.29885ZM9.00505 1.95885L8.52861 2.29885L8.68939 1.69485L8.26677 1.31218H8.81933L9.00439 0.818848L9.22161 1.31218H9.6928L9.32268 1.69485L9.46574 2.29885L9.00505 1.95885ZM0.653613 4.96618L1.13005 4.62618L1.59074 4.96618L1.44768 4.36218L1.8178 3.97951H1.34661L1.12939 3.48618L0.944332 3.97951H0.391113L0.814395 4.36218L0.653613 4.96618ZM3.75505 4.62618L3.27861 4.96618L3.43939 4.36218L3.01677 3.97951H3.56933L3.75439 3.48618L3.97161 3.97951H4.4428L4.07268 4.36218L4.21574 4.96618L3.75505 4.62618ZM5.90361 4.96618L6.38005 4.62618L6.84074 4.96618L6.69768 4.36218L7.0678 3.97951H6.59661L6.37939 3.48618L6.19433 3.97951H5.64177L6.06439 4.36218L5.90361 4.96618ZM9.00505 4.62618L8.52861 4.96618L8.68939 4.36218L8.26677 3.97951H8.81933L9.00439 3.48618L9.22161 3.97951H9.6928L9.32268 4.36218L9.46574 4.96618L9.00505 4.62618ZM0.653613 7.63285L1.13005 7.29285L1.59074 7.63285L1.44768 7.02885L1.8178 6.64618H1.34661L1.12939 6.15285L0.944332 6.64618H0.391113L0.814395 7.02885L0.653613 7.63218V7.63285ZM3.75505 7.29285L3.27861 7.63285L3.43939 7.02885L3.01677 6.64618H3.56933L3.75439 6.15285L3.97161 6.64618H4.4428L4.07268 7.02885L4.21574 7.63218L3.75505 7.29285ZM5.90361 7.63285L6.38005 7.29285L6.84074 7.63285L6.69768 7.02885L7.0678 6.64618H6.59661L6.37939 6.15285L6.19433 6.64618H5.64177L6.06439 7.02885L5.90361 7.63218V7.63285ZM9.00505 7.29285L8.52861 7.63285L8.68939 7.02885L8.26677 6.64618H8.81933L9.00439 6.15285L9.22161 6.64618H9.6928L9.32268 7.02885L9.46574 7.63218L9.00505 7.29285ZM11.1536 2.29951L11.6301 1.95951L12.0907 2.29951L11.9477 1.69551L12.3178 1.31285H11.8466L11.6294 0.819514L11.4443 1.31285H10.8911L11.3144 1.69551L11.1536 2.29951ZM11.6301 4.62618L11.1536 4.96618L11.3144 4.36218L10.8911 3.97951H11.4443L11.6294 3.48618L11.8466 3.97951H12.3178L11.9477 4.36218L12.0907 4.96618L11.6301 4.62618ZM11.1536 7.63285L11.6301 7.29285L12.0907 7.63285L11.9477 7.02885L12.3178 6.64618H11.8466L11.6294 6.15285L11.4443 6.64618H10.8911L11.3144 7.02885L11.1536 7.63218V7.63285ZM2.44255 3.29218L1.96611 3.63218L2.12689 3.02818L1.70361 2.64551H2.25683L2.44189 2.15218L2.65911 2.64551H3.1303L2.76018 3.02818L2.90324 3.63218L2.44255 3.29218ZM4.59111 3.63218L5.06755 3.29218L5.52824 3.63218L5.38518 3.02818L5.7553 2.64551H5.28411L5.06689 2.15218L4.88183 2.64551H4.32861L4.75189 3.02818L4.59111 3.63218ZM7.69255 3.29218L7.21611 3.63218L7.37689 3.02818L6.95427 2.64551H7.50683L7.69189 2.15218L7.90911 2.64551H8.3803L8.01018 3.02818L8.15324 3.63218L7.69255 3.29218ZM1.96611 6.29885L2.44255 5.95885L2.90324 6.29885L2.76018 5.69485L3.1303 5.31218H2.65911L2.44189 4.81885L2.25683 5.31218H1.70361L2.12689 5.69485L1.96611 6.29885ZM5.06755 5.95885L4.59111 6.29885L4.75189 5.69485L4.32927 5.31218H4.88183L5.06689 4.81885L5.28411 5.31218H5.7553L5.38518 5.69485L5.52824 6.29885L5.06755 5.95885ZM7.21611 6.29885L7.69255 5.95885L8.15324 6.29885L8.01018 5.69485L8.3803 5.31218H7.90911L7.69189 4.81885L7.50683 5.31218H6.95427L7.37689 5.69485L7.21611 6.29885ZM10.3176 3.29218L9.84111 3.63218L10.0019 3.02818L9.57927 2.64551H10.1318L10.3169 2.15218L10.5341 2.64551H11.0053L10.6352 3.02818L10.7782 3.63218L10.3176 3.29218ZM9.84111 6.29885L10.3176 5.95885L10.7782 6.29885L10.6352 5.69485L11.0053 5.31218H10.5341L10.3169 4.81885L10.1318 5.31218H9.57927L10.0019 5.69485L9.84111 6.29885Z" fill="#F7FCFF"/>
</g>
</g>
</g>
</g>
<defs>
<clipPath id="clip0_812_15963">
<rect width="21" height="16" fill="white"/>
</clipPath>
</defs>
</svg>
