<svg width="25" height="24" viewBox="0 0 25 24" fill="none" xmlns="http://www.w3.org/2000/svg">
<g id="ion:logo-instagram">
<path id="Vector" d="M16.8748 3.24984C18.0342 3.25331 19.1451 3.71539 19.9648 4.53517C20.7846 5.35495 21.2467 6.46582 21.2502 7.62516V16.3748C21.2467 17.5342 20.7846 18.6451 19.9648 19.4648C19.1451 20.2846 18.0342 20.7467 16.8748 20.7502H8.12516C6.96582 20.7467 5.85495 20.2846 5.03517 19.4648C4.21539 18.6451 3.75331 17.5342 3.74984 16.3748V7.62516C3.75331 6.46582 4.21539 5.35495 5.03517 4.53517C5.85495 3.71539 6.96582 3.25331 8.12516 3.24984H16.8748ZM16.8748 1.5H8.12516C4.75625 1.5 2 4.25625 2 7.62516V16.3748C2 19.7437 4.75625 22.5 8.12516 22.5H16.8748C20.2437 22.5 23 19.7437 23 16.3748V7.62516C23 4.25625 20.2437 1.5 16.8748 1.5Z" fill="#2F4C21"/>
<path id="Vector_2" d="M18.1873 7.625C17.9278 7.625 17.674 7.54802 17.4582 7.4038C17.2423 7.25959 17.0741 7.0546 16.9748 6.81477C16.8754 6.57494 16.8494 6.31104 16.9001 6.05644C16.9507 5.80184 17.0757 5.56798 17.2593 5.38442C17.4428 5.20087 17.6767 5.07586 17.9313 5.02522C18.1859 4.97458 18.4498 5.00057 18.6896 5.09991C18.9294 5.19925 19.1344 5.36748 19.2786 5.58331C19.4229 5.79915 19.4998 6.05291 19.4998 6.3125C19.5002 6.48496 19.4665 6.6558 19.4007 6.81521C19.3349 6.97462 19.2382 7.11945 19.1163 7.24141C18.9943 7.36336 18.8495 7.46002 18.6901 7.52585C18.5306 7.59168 18.3598 7.62537 18.1873 7.625ZM12.5 8.49969C13.1923 8.49969 13.869 8.70497 14.4446 9.08957C15.0202 9.47417 15.4688 10.0208 15.7337 10.6604C15.9986 11.3 16.068 12.0037 15.9329 12.6827C15.7978 13.3617 15.4645 13.9853 14.975 14.4748C14.4855 14.9643 13.8618 15.2977 13.1828 15.4327C12.5039 15.5678 11.8001 15.4985 11.1606 15.2336C10.521 14.9686 9.97433 14.52 9.58973 13.9444C9.20513 13.3688 8.99985 12.6921 8.99985 11.9998C9.00084 11.0718 9.36992 10.1821 10.0261 9.52596C10.6823 8.86976 11.572 8.50068 12.5 8.49969ZM12.5 6.74984C11.4617 6.74984 10.4466 7.05775 9.58326 7.63463C8.7199 8.21151 8.04699 9.03144 7.64963 9.99076C7.25227 10.9501 7.14831 12.0057 7.35088 13.0241C7.55345 14.0425 8.05347 14.9779 8.78769 15.7122C9.52192 16.4464 10.4574 16.9464 11.4758 17.149C12.4942 17.3515 13.5498 17.2476 14.5091 16.8502C15.4684 16.4529 16.2883 15.7799 16.8652 14.9166C17.4421 14.0532 17.75 13.0382 17.75 11.9998C17.75 10.6075 17.1969 9.2721 16.2123 8.28753C15.2277 7.30297 13.8924 6.74984 12.5 6.74984Z" fill="#2F4C21"/>
</g>
</svg>
