<svg width="24" height="24" viewBox="0 0 24 24" fill="none" xmlns="http://www.w3.org/2000/svg">
<g filter="url(#filter0_bii_71_1287)">
<path opacity="0.35" d="M16 22C19.3137 22 22 19.3137 22 16C22 12.6863 19.3137 10 16 10C12.6863 10 10 12.6863 10 16C10 19.3137 12.6863 22 16 22Z" fill="#213F12"/>
<path d="M2.857 19.15C2.937 20.746 4.255 22 5.854 22H8.146C9.745 22 11.062 20.746 11.142 19.15L11.75 7H2.25L2.857 19.15Z" fill="#213F12"/>
<path opacity="0.35" d="M9.89801 2H4.10201C2.95901 2 2.04801 2.958 2.10501 4.1L2.25001 7H11.75L11.895 4.1C11.952 2.958 11.041 2 9.89801 2Z" fill="#213F12"/>
<path d="M19 9.00006H17C16.823 9.00006 16.654 9.03006 16.49 9.07406C15.767 7.78506 14.521 7.14306 14.447 7.10606C13.954 6.86006 13.36 7.06006 13.111 7.54906C12.862 8.03906 13.058 8.64006 13.547 8.89206C13.562 8.89906 15 9.65806 15 11.0001C15 11.1381 15.028 11.2701 15.079 11.3891C15.23 11.7481 15.585 12.0001 16 12.0001H18C19.105 12.0001 20 11.1051 20 10.0001C20 9.44806 19.552 9.00006 19 9.00006Z" fill="#213F12"/>
</g>
<defs>
<filter id="filter0_bii_71_1287" x="-12" y="-12" width="48" height="48" filterUnits="userSpaceOnUse" color-interpolation-filters="sRGB">
<feFlood flood-opacity="0" result="BackgroundImageFix"/>
<feGaussianBlur in="BackgroundImageFix" stdDeviation="6"/>
<feComposite in2="SourceAlpha" operator="in" result="effect1_backgroundBlur_71_1287"/>
<feBlend mode="normal" in="SourceGraphic" in2="effect1_backgroundBlur_71_1287" result="shape"/>
<feColorMatrix in="SourceAlpha" type="matrix" values="0 0 0 0 0 0 0 0 0 0 0 0 0 0 0 0 0 0 127 0" result="hardAlpha"/>
<feOffset dx="-1.24988" dy="1.24988"/>
<feGaussianBlur stdDeviation="0.624942"/>
<feComposite in2="hardAlpha" operator="arithmetic" k2="-1" k3="1"/>
<feColorMatrix type="matrix" values="0 0 0 0 1 0 0 0 0 1 0 0 0 0 1 0 0 0 0.1 0"/>
<feBlend mode="normal" in2="shape" result="effect2_innerShadow_71_1287"/>
<feColorMatrix in="SourceAlpha" type="matrix" values="0 0 0 0 0 0 0 0 0 0 0 0 0 0 0 0 0 0 127 0" result="hardAlpha"/>
<feOffset dx="1.24988" dy="-1.24988"/>
<feGaussianBlur stdDeviation="0.624942"/>
<feComposite in2="hardAlpha" operator="arithmetic" k2="-1" k3="1"/>
<feColorMatrix type="matrix" values="0 0 0 0 0.76 0 0 0 0 0.76 0 0 0 0 0.76 0 0 0 0.096 0"/>
<feBlend mode="normal" in2="effect2_innerShadow_71_1287" result="effect3_innerShadow_71_1287"/>
</filter>
</defs>
</svg>
