<svg width="456" height="316" viewBox="0 0 456 316" fill="none" xmlns="http://www.w3.org/2000/svg">
<path fill-rule="evenodd" clip-rule="evenodd" d="M153.813 11.8831C150.226 18.4196 129.382 57.3256 107.491 98.3426C85.6009 139.36 64.7501 178.285 61.155 184.845L54.6206 196.769L60.9232 194.33C64.3901 192.988 86.3472 185.274 109.718 177.189C133.09 169.102 152.406 162.252 152.643 161.965C152.881 161.68 159.899 149.645 168.239 135.221C176.58 120.798 183.979 108.395 184.683 107.661C185.387 106.926 214.759 107.216 249.958 108.306L313.953 110.286L384.901 56.3716C423.921 26.7197 455.881 1.90621 455.924 1.22928C455.965 0.552358 389.475 0 308.167 0H160.334L153.813 11.8831ZM352.436 137.97C326.668 146.922 304.734 155.129 303.694 156.207C302.652 157.286 294.998 169.969 286.681 184.392C278.365 198.816 271.449 210.717 271.313 210.838C271.177 210.96 242.215 210.137 206.954 209.009C171.693 207.88 142.104 207.491 141.2 208.145C140.295 208.798 108.156 233.224 69.777 262.424L0 315.516L147.77 315.934C229.044 316.165 296.125 315.77 296.841 315.057C298.731 313.172 400.401 122.661 399.796 122.137C399.515 121.892 378.204 129.019 352.436 137.97Z" fill="#70B44E"/>
</svg>
