<svg width="25" height="21" viewBox="0 0 25 21" fill="none" xmlns="http://www.w3.org/2000/svg">
<path d="M23.5 19V17C23.4964 14.2573 22.4692 11.6148 20.6196 9.58964C18.77 7.5645 16.2311 6.30261 13.5 6.05102V4.72302C13.8813 4.50288 14.1793 4.16309 14.3478 3.75633C14.5162 3.34958 14.5458 2.8986 14.4319 2.47333C14.3179 2.04806 14.0668 1.67228 13.7175 1.40426C13.3682 1.13624 12.9403 0.990967 12.5 0.990967C12.0597 0.990967 11.6318 1.13624 11.2825 1.40426C10.9332 1.67228 10.6821 2.04806 10.5681 2.47333C10.4542 2.8986 10.4838 3.34958 10.6522 3.75633C10.8207 4.16309 11.1187 4.50288 11.5 4.72302V6.05102C8.76889 6.30261 6.23002 7.5645 4.38041 9.58964C2.5308 11.6148 1.50363 14.2573 1.5 17V19C1.23478 19 0.98043 19.1054 0.792893 19.2929C0.605357 19.4804 0.5 19.7348 0.5 20C0.5 20.2652 0.605357 20.5196 0.792893 20.7071C0.98043 20.8947 1.23478 21 1.5 21H23.5C23.7652 21 24.0196 20.8947 24.2071 20.7071C24.3946 20.5196 24.5 20.2652 24.5 20C24.5 19.7348 24.3946 19.4804 24.2071 19.2929C24.0196 19.1054 23.7652 19 23.5 19ZM3.5 17C3.973 5.06602 21.031 5.07502 21.5 17V19H3.5V17Z" fill="#213F12"/>
</svg>
