<svg width="32" height="32" viewBox="0 0 32 32" fill="none" xmlns="http://www.w3.org/2000/svg">
<path opacity="0.5" d="M2.66663 16.0001C2.66663 9.71475 2.66663 6.57208 4.61863 4.61875C6.57329 2.66675 9.71463 2.66675 16 2.66675C22.2853 2.66675 25.428 2.66675 27.38 4.61875C29.3333 6.57341 29.3333 9.71475 29.3333 16.0001C29.3333 22.2854 29.3333 25.4281 27.38 27.3801C25.4293 29.3334 22.2853 29.3334 16 29.3334C9.71463 29.3334 6.57196 29.3334 4.61863 27.3801C2.66663 25.4294 2.66663 22.2854 2.66663 16.0001Z" fill="#D7D7D7"/>
<path d="M20.1333 16.1254C19.8866 15.7227 19.6453 15.3294 19.4106 15.0494C19.1613 14.7507 18.724 14.34 18.0546 14.3667C17.3853 14.3934 16.9826 14.8374 16.7573 15.1547C16.5453 15.4547 16.3373 15.864 16.124 16.2854L13.4733 21.512C13.3733 21.7094 13.2906 21.8734 13.216 22.0147C13.1088 21.8597 13.003 21.7037 12.8986 21.5467L12.664 21.192C12.4318 20.8312 12.184 20.4806 11.9213 20.1414C11.6751 19.8198 11.3656 19.5521 11.012 19.3547C10.6513 19.1698 10.2564 19.0609 9.85196 19.0347C9.42423 19.0044 8.99537 18.9928 8.56663 19H6.66663C6.40141 19 6.14706 19.1054 5.95952 19.2929C5.77198 19.4805 5.66663 19.7348 5.66663 20C5.66663 20.2653 5.77198 20.5196 5.95952 20.7072C6.14706 20.8947 6.40141 21 6.66663 21H8.52529C9.06796 21 9.40663 21 9.66663 21.0254C9.90663 21.048 10.0053 21.084 10.068 21.1187C10.1306 21.152 10.216 21.212 10.368 21.4C10.532 21.6027 10.7213 21.884 11.0213 22.336L11.2706 22.708C11.5213 23.0854 11.768 23.4547 12.008 23.72C12.264 24.004 12.704 24.3827 13.3546 24.344C14.0026 24.3054 14.3946 23.8774 14.6173 23.5654C14.8226 23.2734 15.024 22.876 15.2293 22.472L17.8786 17.248C17.984 17.0414 18.0706 16.8694 18.1493 16.7214C18.2386 16.8627 18.34 17.028 18.46 17.224L19.332 18.648C19.5986 19.084 19.836 19.4694 20.0653 19.7734C20.3133 20.1027 20.5973 20.3987 20.988 20.6174C21.3786 20.836 21.7786 20.924 22.1893 20.964C22.568 21 23.02 21 23.5306 21H25.3333C25.5985 21 25.8529 20.8947 26.0404 20.7072C26.2279 20.5196 26.3333 20.2653 26.3333 20C26.3333 19.7348 26.2279 19.4805 26.0404 19.2929C25.8529 19.1054 25.5985 19 25.3333 19H23.5733C23.008 19 22.6533 19 22.3813 18.9734C22.1306 18.948 22.0293 18.908 21.9653 18.872C21.9 18.836 21.8133 18.7707 21.6626 18.5694C21.4329 18.2445 21.2171 17.91 21.016 17.5667L20.132 16.1254H20.1333Z" fill="#D7D7D7"/>
</svg>
