<svg width="32" height="32" viewBox="0 0 32 32" fill="none" xmlns="http://www.w3.org/2000/svg">
<path opacity="0.5" d="M17.4746 29.3334H14.5253C9.9293 29.3334 7.63197 29.3334 6.0653 27.9841C4.49864 26.6347 4.1733 24.3774 3.52397 19.8601L3.15197 17.2774C2.6453 13.7614 2.39197 12.0027 3.1133 10.5001C3.8333 8.99741 5.36797 8.08275 8.43597 6.25608L10.2826 5.15608C13.0666 3.49608 14.4613 2.66675 16 2.66675C17.5386 2.66675 18.932 3.49608 21.7173 5.15608L23.564 6.25608C26.6306 8.08275 28.1653 8.99741 28.8866 10.5001C29.6066 12.0027 29.3533 13.7614 28.8466 17.2774L28.476 19.8601C27.8266 24.3774 27.5013 26.6347 25.9346 27.9841C24.368 29.3334 22.0706 29.3334 17.4746 29.3334Z" fill="#D7D7D7"/>
<path d="M11 24C11 23.7348 11.1054 23.4804 11.2929 23.2929C11.4804 23.1054 11.7348 23 12 23H20C20.2652 23 20.5196 23.1054 20.7071 23.2929C20.8946 23.4804 21 23.7348 21 24C21 24.2652 20.8946 24.5196 20.7071 24.7071C20.5196 24.8946 20.2652 25 20 25H12C11.7348 25 11.4804 24.8946 11.2929 24.7071C11.1054 24.5196 11 24.2652 11 24Z" fill="#D7D7D7"/>
</svg>
