<svg width="32" height="32" viewBox="0 0 32 32" fill="none" xmlns="http://www.w3.org/2000/svg">
<path opacity="0.5" d="M2.66663 13.3333C2.66651 12.3747 2.87312 11.4273 3.27239 10.5558C3.67165 9.68431 4.25416 8.90915 4.98021 8.28321C5.70625 7.65728 6.55874 7.19528 7.47955 6.92872C8.40036 6.66217 9.36782 6.59733 10.316 6.73863C10.7192 5.55105 11.4842 4.51959 12.5037 3.78909C13.5231 3.0586 14.7458 2.66577 16 2.66577C17.2541 2.66577 18.4768 3.0586 19.4962 3.78909C20.5157 4.51959 21.2808 5.55105 21.684 6.73863C23.284 6.49782 24.9171 6.84716 26.2786 7.72152C27.6401 8.59588 28.6371 9.93557 29.0838 11.4908C29.5304 13.046 29.3962 14.7106 28.7062 16.1742C28.0161 17.6377 26.8173 18.8004 25.3333 19.4453V24C25.3333 26.5146 25.3333 27.7706 24.552 28.552C23.7706 29.3333 22.5146 29.3333 20 29.3333H12C9.48529 29.3333 8.22929 29.3333 7.44796 28.552C6.66663 27.7706 6.66663 26.5146 6.66663 24V19.4453C5.47755 18.9262 4.46575 18.0714 3.75526 16.9857C3.04476 15.9001 2.66643 14.6308 2.66663 13.3333Z" fill="#D7D7D7"/>
<path d="M12 23C11.7348 23 11.4804 23.1054 11.2929 23.2929C11.1054 23.4804 11 23.7348 11 24C11 24.2652 11.1054 24.5196 11.2929 24.7071C11.4804 24.8946 11.7348 25 12 25H20C20.2652 25 20.5196 24.8946 20.7071 24.7071C20.8946 24.5196 21 24.2652 21 24C21 23.7348 20.8946 23.4804 20.7071 23.2929C20.5196 23.1054 20.2652 23 20 23H12Z" fill="#D7D7D7"/>
</svg>
