<svg width="32" height="32" viewBox="0 0 32 32" fill="none" xmlns="http://www.w3.org/2000/svg">
<path opacity="0.5" d="M2.66669 13.3333C2.66657 12.3747 2.87319 11.4273 3.27245 10.5558C3.67171 9.68431 4.25422 8.90915 4.98027 8.28321C5.70631 7.65728 6.5588 7.19528 7.47961 6.92872C8.40042 6.66217 9.36788 6.59733 10.316 6.73863C10.7192 5.55105 11.4843 4.51959 12.5037 3.78909C13.5232 3.0586 14.7459 2.66577 16 2.66577C17.2542 2.66577 18.4768 3.0586 19.4963 3.78909C20.5158 4.51959 21.2808 5.55105 21.684 6.73863C23.2841 6.49782 24.9171 6.84716 26.2786 7.72152C27.6402 8.59588 28.6372 9.93557 29.0838 11.4908C29.5305 13.046 29.3963 14.7106 28.7062 16.1742C28.0162 17.6377 26.8174 18.8004 25.3334 19.4453V24C25.3334 26.5146 25.3334 27.7706 24.552 28.552C23.7707 29.3333 22.5147 29.3333 20 29.3333H12C9.48535 29.3333 8.22935 29.3333 7.44802 28.552C6.66669 27.7706 6.66669 26.5146 6.66669 24V19.4453C5.47761 18.9262 4.46581 18.0714 3.75532 16.9857C3.04482 15.9001 2.66649 14.6308 2.66669 13.3333Z" fill="#3E632B"/>
<path d="M12 23C11.7348 23 11.4804 23.1054 11.2929 23.2929C11.1054 23.4804 11 23.7348 11 24C11 24.2652 11.1054 24.5196 11.2929 24.7071C11.4804 24.8946 11.7348 25 12 25H20C20.2652 25 20.5196 24.8946 20.7071 24.7071C20.8946 24.5196 21 24.2652 21 24C21 23.7348 20.8946 23.4804 20.7071 23.2929C20.5196 23.1054 20.2652 23 20 23H12Z" fill="#3E632B"/>
</svg>
