<svg width="32" height="32" viewBox="0 0 32 32" fill="none" xmlns="http://www.w3.org/2000/svg">
<path opacity="0.5" d="M2.66669 16.0001C2.66669 9.71475 2.66669 6.57208 4.61869 4.61875C6.57335 2.66675 9.71469 2.66675 16 2.66675C22.2854 2.66675 25.428 2.66675 27.38 4.61875C29.3334 6.57341 29.3334 9.71475 29.3334 16.0001C29.3334 22.2854 29.3334 25.4281 27.38 27.3801C25.4294 29.3334 22.2854 29.3334 16 29.3334C9.71469 29.3334 6.57202 29.3334 4.61869 27.3801C2.66669 25.4294 2.66669 22.2854 2.66669 16.0001Z" fill="#3E632B"/>
<path d="M20.1334 16.1254C19.8867 15.7227 19.6454 15.3294 19.4107 15.0494C19.1614 14.7507 18.724 14.34 18.0547 14.3667C17.3854 14.3934 16.9827 14.8374 16.7574 15.1547C16.5454 15.4547 16.3374 15.864 16.124 16.2854L13.4734 21.512C13.3734 21.7094 13.2907 21.8734 13.216 22.0147C13.1088 21.8597 13.0031 21.7037 12.8987 21.5467L12.664 21.192C12.4319 20.8312 12.1841 20.4806 11.9214 20.1414C11.6752 19.8198 11.3657 19.5521 11.012 19.3547C10.6513 19.1698 10.2565 19.0609 9.85202 19.0347C9.42429 19.0044 8.99543 18.9928 8.56669 19H6.66669C6.40147 19 6.14712 19.1054 5.95958 19.2929C5.77204 19.4805 5.66669 19.7348 5.66669 20C5.66669 20.2653 5.77204 20.5196 5.95958 20.7072C6.14712 20.8947 6.40147 21 6.66669 21H8.52535C9.06802 21 9.40669 21 9.66669 21.0254C9.90669 21.048 10.0054 21.084 10.068 21.1187C10.1307 21.152 10.216 21.212 10.368 21.4C10.532 21.6027 10.7214 21.884 11.0214 22.336L11.2707 22.708C11.5214 23.0854 11.768 23.4547 12.008 23.72C12.264 24.004 12.704 24.3827 13.3547 24.344C14.0027 24.3054 14.3947 23.8774 14.6174 23.5654C14.8227 23.2734 15.024 22.876 15.2294 22.472L17.8787 17.248C17.984 17.0414 18.0707 16.8694 18.1494 16.7214C18.2387 16.8627 18.34 17.028 18.46 17.224L19.332 18.648C19.5987 19.084 19.836 19.4694 20.0654 19.7734C20.3134 20.1027 20.5974 20.3987 20.988 20.6174C21.3787 20.836 21.7787 20.924 22.1894 20.964C22.568 21 23.02 21 23.5307 21H25.3334C25.5986 21 25.8529 20.8947 26.0405 20.7072C26.228 20.5196 26.3334 20.2653 26.3334 20C26.3334 19.7348 26.228 19.4805 26.0405 19.2929C25.8529 19.1054 25.5986 19 25.3334 19H23.5734C23.008 19 22.6534 19 22.3814 18.9734C22.1307 18.948 22.0294 18.908 21.9654 18.872C21.9 18.836 21.8134 18.7707 21.6627 18.5694C21.4329 18.2445 21.2172 17.91 21.016 17.5667L20.132 16.1254H20.1334Z" fill="#3E632B"/>
</svg>
