<svg width="24" height="23" viewBox="0 0 24 23" fill="none" xmlns="http://www.w3.org/2000/svg">
<path d="M24 22C24 22.2652 23.8946 22.5196 23.7071 22.7071C23.5196 22.8947 23.2652 23 23 23H1C0.734784 23 0.48043 22.8947 0.292893 22.7071C0.105357 22.5196 0 22.2652 0 22C0 21.7348 0.105357 21.4804 0.292893 21.2929C0.48043 21.1054 0.734784 21 1 21H23C23.2652 21 23.5196 21.1054 23.7071 21.2929C23.8946 21.4804 24 21.7348 24 22ZM2 19H22C22.2652 19 22.5196 18.8947 22.7071 18.7071C22.8946 18.5196 23 18.2652 23 18V17C22.9964 14.2573 21.9692 11.6148 20.1196 9.58964C18.27 7.5645 15.7311 6.30261 13 6.05102V4.72302C13.3813 4.50288 13.6793 4.16309 13.8478 3.75633C14.0162 3.34958 14.0458 2.8986 13.9319 2.47333C13.8179 2.04806 13.5668 1.67228 13.2175 1.40426C12.8682 1.13624 12.4403 0.990967 12 0.990967C11.5597 0.990967 11.1318 1.13624 10.7825 1.40426C10.4332 1.67228 10.1821 2.04806 10.0681 2.47333C9.9542 2.8986 9.98376 3.34958 10.1522 3.75633C10.3207 4.16309 10.6187 4.50288 11 4.72302V6.05102C8.26889 6.30261 5.73002 7.5645 3.88041 9.58964C2.0308 11.6148 1.00363 14.2573 1 17V18C1 18.2652 1.10536 18.5196 1.29289 18.7071C1.48043 18.8947 1.73478 19 2 19Z" fill="#5A973C"/>
</svg>
