<svg width="32" height="32" viewBox="0 0 32 32" fill="none" xmlns="http://www.w3.org/2000/svg">
<path fill-rule="evenodd" clip-rule="evenodd" d="M2.42396 7.0295C2.55143 6.99756 2.68395 6.99106 2.81394 7.01036C2.94392 7.02967 3.06883 7.07441 3.18152 7.14202C3.2942 7.20963 3.39246 7.29879 3.47066 7.4044C3.54887 7.51001 3.60549 7.62999 3.63729 7.7575L4.14663 9.79483C4.54517 11.3888 5.37501 12.8422 6.54513 13.9956C7.71525 15.149 9.18043 15.9579 10.78 16.3335H21.3333C22.6804 16.3334 23.9807 16.8278 24.9874 17.723C25.9941 18.6181 26.6372 19.8516 26.7946 21.1895L27.66 28.5495C27.6754 28.6799 27.6649 28.8122 27.6292 28.9386C27.5936 29.065 27.5333 29.1831 27.452 29.2863C27.3706 29.3894 27.2698 29.4755 27.1552 29.5397C27.0405 29.6038 26.9144 29.6448 26.784 29.6602C26.6535 29.6756 26.5213 29.6651 26.3949 29.6295C26.2685 29.5938 26.1503 29.5335 26.0472 29.4522C25.9441 29.3709 25.858 29.27 25.7938 29.1554C25.7297 29.0407 25.6887 28.9146 25.6733 28.7842L24.8066 21.4242C24.7067 20.573 24.2978 19.7881 23.6576 19.2185C23.0174 18.6488 22.1903 18.3339 21.3333 18.3335H10.5573L10.4506 18.3095C8.46623 17.8688 6.64376 16.8842 5.18744 15.466C3.73112 14.0479 2.6985 12.2522 2.20529 10.2802L1.69596 8.24283C1.664 8.11545 1.65744 7.98302 1.67666 7.8531C1.69588 7.72319 1.74051 7.59833 1.80799 7.48566C1.87546 7.37299 1.96447 7.27471 2.06994 7.19645C2.1754 7.11818 2.29657 7.06145 2.42396 7.0295Z" fill="#D7D7D7"/>
<path opacity="0.5" d="M10.6666 18.3335V24.0002C10.6666 26.5148 10.6666 27.7708 11.448 28.5522C12.2293 29.3335 13.4853 29.3335 16 29.3335C18.5146 29.3335 19.7706 29.3335 20.552 28.5522C21.3333 27.7708 21.3333 26.5148 21.3333 24.0002V18.3335H10.6666Z" fill="#D7D7D7"/>
<path d="M16 13.3334C18.9455 13.3334 21.3333 10.9456 21.3333 8.00008C21.3333 5.05456 18.9455 2.66675 16 2.66675C13.0544 2.66675 10.6666 5.05456 10.6666 8.00008C10.6666 10.9456 13.0544 13.3334 16 13.3334Z" fill="#D7D7D7"/>
</svg>
