<svg width="32" height="32" viewBox="0 0 32 32" fill="none" xmlns="http://www.w3.org/2000/svg">
<path d="M20.6666 9.99992C20.6666 10.6128 20.5459 11.2196 20.3114 11.7858C20.0768 12.352 19.7331 12.8664 19.2997 13.2997C18.8664 13.7331 18.352 14.0768 17.7858 14.3114C17.2196 14.5459 16.6128 14.6666 15.9999 14.6666C15.3871 14.6666 14.7802 14.5459 14.2141 14.3114C13.6479 14.0768 13.1334 13.7331 12.7001 13.2997C12.2667 12.8664 11.923 12.352 11.6885 11.7858C11.454 11.2196 11.3333 10.6128 11.3333 9.99992C11.3333 8.76224 11.8249 7.57526 12.7001 6.70009C13.5753 5.82492 14.7622 5.33325 15.9999 5.33325C17.2376 5.33325 18.4246 5.82492 19.2997 6.70009C20.1749 7.57526 20.6666 8.76224 20.6666 9.99992Z" fill="#D7D7D7"/>
<path opacity="0.4" d="M26 9.99984C26 10.8839 25.6488 11.7317 25.0237 12.3569C24.3986 12.982 23.5507 13.3332 22.6667 13.3332C21.7826 13.3332 20.9348 12.982 20.3096 12.3569C19.6845 11.7317 19.3333 10.8839 19.3333 9.99984C19.3333 9.11578 19.6845 8.26794 20.3096 7.64281C20.9348 7.01769 21.7826 6.6665 22.6667 6.6665C23.5507 6.6665 24.3986 7.01769 25.0237 7.64281C25.6488 8.26794 26 9.11578 26 9.99984ZM6 9.99984C6 10.8839 6.35119 11.7317 6.97631 12.3569C7.60143 12.982 8.44928 13.3332 9.33333 13.3332C10.2174 13.3332 11.0652 12.982 11.6904 12.3569C12.3155 11.7317 12.6667 10.8839 12.6667 9.99984C12.6667 9.11578 12.3155 8.26794 11.6904 7.64281C11.0652 7.01769 10.2174 6.6665 9.33333 6.6665C8.44928 6.6665 7.60143 7.01769 6.97631 7.64281C6.35119 8.26794 6 9.11578 6 9.99984Z" fill="#D7D7D7"/>
<path d="M24 21.9999C24 24.5773 20.4187 26.6666 16 26.6666C11.5813 26.6666 8 24.5773 8 21.9999C8 19.4226 11.5813 17.3333 16 17.3333C20.4187 17.3333 24 19.4226 24 21.9999Z" fill="#D7D7D7"/>
<path opacity="0.4" d="M29.3333 21.9998C29.3333 23.8398 26.9466 25.3332 24 25.3332C21.0533 25.3332 18.6666 23.8398 18.6666 21.9998C18.6666 20.1598 21.0533 18.6665 24 18.6665C26.9466 18.6665 29.3333 20.1598 29.3333 21.9998ZM2.66663 21.9998C2.66663 23.8398 5.05329 25.3332 7.99996 25.3332C10.9466 25.3332 13.3333 23.8398 13.3333 21.9998C13.3333 20.1598 10.9466 18.6665 7.99996 18.6665C5.05329 18.6665 2.66663 20.1598 2.66663 21.9998Z" fill="#D7D7D7"/>
</svg>
