<svg width="32" height="32" viewBox="0 0 32 32" fill="none" xmlns="http://www.w3.org/2000/svg">
<path fill-rule="evenodd" clip-rule="evenodd" d="M2.42402 7.0295C2.55149 6.99756 2.68401 6.99106 2.814 7.01036C2.94399 7.02967 3.06889 7.07441 3.18158 7.14202C3.29426 7.20963 3.39252 7.29879 3.47072 7.4044C3.54893 7.51001 3.60555 7.62999 3.63736 7.7575L4.14669 9.79483C4.54523 11.3888 5.37507 12.8422 6.54519 13.9956C7.71531 15.149 9.1805 15.9579 10.78 16.3335H21.3334C22.6805 16.3334 23.9807 16.8278 24.9874 17.723C25.9942 18.6181 26.6372 19.8516 26.7947 21.1895L27.66 28.5495C27.6754 28.6799 27.665 28.8122 27.6293 28.9386C27.5936 29.065 27.5334 29.1831 27.452 29.2863C27.3707 29.3894 27.2698 29.4755 27.1552 29.5397C27.0406 29.6038 26.9145 29.6448 26.784 29.6602C26.6536 29.6756 26.5214 29.6651 26.395 29.6295C26.2685 29.5938 26.1504 29.5335 26.0473 29.4522C25.9441 29.3709 25.858 29.27 25.7939 29.1554C25.7297 29.0407 25.6888 28.9146 25.6734 28.7842L24.8067 21.4242C24.7067 20.573 24.2979 19.7881 23.6577 19.2185C23.0174 18.6488 22.1904 18.3339 21.3334 18.3335H10.5574L10.4507 18.3095C8.46629 17.8688 6.64382 16.8842 5.1875 15.466C3.73118 14.0479 2.69856 12.2522 2.20536 10.2802L1.69602 8.24283C1.66406 8.11545 1.6575 7.98302 1.67672 7.8531C1.69594 7.72319 1.74057 7.59833 1.80805 7.48566C1.87552 7.37299 1.96454 7.27471 2.07 7.19645C2.17546 7.11818 2.29664 7.06145 2.42402 7.0295Z" fill="#3E632B"/>
<path opacity="0.5" d="M10.6667 18.3335V24.0002C10.6667 26.5148 10.6667 27.7708 11.448 28.5522C12.2294 29.3335 13.4854 29.3335 16 29.3335C18.5147 29.3335 19.7707 29.3335 20.552 28.5522C21.3334 27.7708 21.3334 26.5148 21.3334 24.0002V18.3335H10.6667Z" fill="#3E632B"/>
<path d="M16 13.3334C18.9455 13.3334 21.3334 10.9456 21.3334 8.00008C21.3334 5.05456 18.9455 2.66675 16 2.66675C13.0545 2.66675 10.6667 5.05456 10.6667 8.00008C10.6667 10.9456 13.0545 13.3334 16 13.3334Z" fill="#3E632B"/>
</svg>
