<svg width="24" height="24" viewBox="0 0 24 24" fill="none" xmlns="http://www.w3.org/2000/svg">
<g filter="url(#filter0_bii_71_1292)">
<path opacity="0.35" d="M11.489 5.66903C11.362 5.66903 11.233 5.64503 11.108 5.59403C10.597 5.38403 10.354 4.79903 10.564 4.28803L12.075 0.619028C12.286 0.108028 12.869 -0.132972 13.381 0.0750279C13.892 0.285028 14.135 0.870028 13.925 1.38103L12.414 5.05003C12.255 5.43603 11.882 5.66903 11.489 5.66903Z" fill="#213F12"/>
<path opacity="0.35" d="M4 8L5.609 18.456C5.834 19.92 7.093 21 8.574 21H15.426C16.907 21 18.166 19.92 18.391 18.456L20 8H4Z" fill="#213F12"/>
<path d="M20 8H4C3.447 8 3 7.553 3 7C3 6.447 3.447 6 4 6H20C20.553 6 21 6.447 21 7C21 7.553 20.553 8 20 8Z" fill="#213F12"/>
<path d="M19.737 7C19.272 5.2 18.202 3.643 16.752 2.568C16.243 2.191 15.619 2 14.985 2H9.015C8.381 2 7.757 2.191 7.248 2.568C5.797 3.643 4.728 5.2 4.263 7H19.737Z" fill="#213F12"/>
</g>
<defs>
<filter id="filter0_bii_71_1292" x="-12" y="-12" width="48" height="48" filterUnits="userSpaceOnUse" color-interpolation-filters="sRGB">
<feFlood flood-opacity="0" result="BackgroundImageFix"/>
<feGaussianBlur in="BackgroundImageFix" stdDeviation="6"/>
<feComposite in2="SourceAlpha" operator="in" result="effect1_backgroundBlur_71_1292"/>
<feBlend mode="normal" in="SourceGraphic" in2="effect1_backgroundBlur_71_1292" result="shape"/>
<feColorMatrix in="SourceAlpha" type="matrix" values="0 0 0 0 0 0 0 0 0 0 0 0 0 0 0 0 0 0 127 0" result="hardAlpha"/>
<feOffset dx="-1.24988" dy="1.24988"/>
<feGaussianBlur stdDeviation="0.624942"/>
<feComposite in2="hardAlpha" operator="arithmetic" k2="-1" k3="1"/>
<feColorMatrix type="matrix" values="0 0 0 0 1 0 0 0 0 1 0 0 0 0 1 0 0 0 0.1 0"/>
<feBlend mode="normal" in2="shape" result="effect2_innerShadow_71_1292"/>
<feColorMatrix in="SourceAlpha" type="matrix" values="0 0 0 0 0 0 0 0 0 0 0 0 0 0 0 0 0 0 127 0" result="hardAlpha"/>
<feOffset dx="1.24988" dy="-1.24988"/>
<feGaussianBlur stdDeviation="0.624942"/>
<feComposite in2="hardAlpha" operator="arithmetic" k2="-1" k3="1"/>
<feColorMatrix type="matrix" values="0 0 0 0 0.76 0 0 0 0 0.76 0 0 0 0 0.76 0 0 0 0.096 0"/>
<feBlend mode="normal" in2="effect2_innerShadow_71_1292" result="effect3_innerShadow_71_1292"/>
</filter>
</defs>
</svg>
