<svg width="17" height="16" viewBox="0 0 17 16" fill="none" xmlns="http://www.w3.org/2000/svg">
<g clip-path="url(#clip0_1102_1982)">
<path d="M13.1667 1.33325H3.83333C1.99533 1.33325 0.5 2.82859 0.5 4.66659V11.3333C0.5 13.1713 1.99533 14.6666 3.83333 14.6666H13.1667C15.0047 14.6666 16.5 13.1713 16.5 11.3333V4.66659C16.5 2.82859 15.0047 1.33325 13.1667 1.33325ZM3.16667 7.33325H7.16667C7.53467 7.33325 7.83333 7.63192 7.83333 7.99992C7.83333 8.36792 7.53467 8.66659 7.16667 8.66659H3.16667C2.79867 8.66659 2.5 8.36792 2.5 7.99992C2.5 7.63192 2.79867 7.33325 3.16667 7.33325ZM13.8333 11.3333H3.16667C2.79867 11.3333 2.5 11.0346 2.5 10.6666C2.5 10.2986 2.79867 9.99992 3.16667 9.99992H13.8333C14.2013 9.99992 14.5 10.2986 14.5 10.6666C14.5 11.0346 14.2013 11.3333 13.8333 11.3333ZM14.5 7.33325C14.5 8.06859 13.902 8.66659 13.1667 8.66659H10.5C9.76467 8.66659 9.16667 8.06859 9.16667 7.33325V5.99992C9.16667 5.26459 9.76467 4.66659 10.5 4.66659H13.1667C13.902 4.66659 14.5 5.26459 14.5 5.99992V7.33325ZM13.1667 5.99992V7.33325H10.5V5.99992H13.1667Z" fill="white"/>
</g>
<defs>
<clipPath id="clip0_1102_1982">
<rect width="16" height="16" fill="white" transform="translate(0.5)"/>
</clipPath>
</defs>
</svg>
