<svg width="24" height="24" viewBox="0 0 24 24" fill="none" xmlns="http://www.w3.org/2000/svg">
<path d="M14.25 19H15.75C18.067 18.995 19.308 18.938 20.222 18.326C20.6588 18.0344 21.034 17.6596 21.326 17.223C22 16.213 22 14.809 22 12C22 9.19098 22 7.78698 21.326 6.77798C21.0339 6.34143 20.6588 5.96663 20.222 5.67498C19.307 5.06298 18.067 5.00598 15.75 5.00098H14.25V8.99998H15C15.7956 8.99998 16.5587 9.31605 17.1213 9.87866C17.6839 10.4413 18 11.2043 18 12C18 12.7956 17.6839 13.5587 17.1213 14.1213C16.5587 14.6839 15.7956 15 15 15H14.25V19ZM9.75 19V15H9C8.20435 15 7.44129 14.6839 6.87868 14.1213C6.31607 13.5587 6 12.7956 6 12C6 11.2043 6.31607 10.4413 6.87868 9.87866C7.44129 9.31605 8.20435 8.99998 9 8.99998H9.75V5.00098H8.25C5.933 5.00598 4.693 5.06298 3.778 5.67498C3.34115 5.96659 2.96601 6.34139 2.674 6.77798C2 7.78698 2 9.19198 2 12C2 14.81 2 16.214 2.674 17.223C2.96601 17.6596 3.34115 18.0344 3.778 18.326C4.693 18.938 5.933 18.995 8.25 19H9.75Z" fill="#2F4C21"/>
<path opacity="0.5" d="M9.75 19H14.25V5H9.75V19Z" fill="#2F4C21"/>
</svg>
