<svg width="17" height="16" viewBox="0 0 17 16" fill="none" xmlns="http://www.w3.org/2000/svg">
<g clip-path="url(#clip0_1088_1990)">
<path d="M13.1667 14.6666H3.83333C1.99533 14.6666 0.5 13.1713 0.5 11.3333V4.66659C0.5 2.82859 1.99533 1.33325 3.83333 1.33325H13.1667C15.0047 1.33325 16.5 2.82859 16.5 4.66659V11.3333C16.5 13.1713 15.0047 14.6666 13.1667 14.6666ZM3.83333 2.66659C2.73067 2.66659 1.83333 3.56392 1.83333 4.66659V11.3333C1.83333 12.4359 2.73067 13.3333 3.83333 13.3333H13.1667C14.2693 13.3333 15.1667 12.4359 15.1667 11.3333V4.66659C15.1667 3.56392 14.2693 2.66659 13.1667 2.66659H3.83333ZM12.5 8.66659H9.83333C9.098 8.66659 8.5 8.06859 8.5 7.33325V5.99992C8.5 5.26459 9.098 4.66659 9.83333 4.66659H12.5C13.2353 4.66659 13.8333 5.26459 13.8333 5.99992V7.33325C13.8333 8.06859 13.2353 8.66659 12.5 8.66659ZM9.83333 5.99992V7.33325H12.5007V5.99992H9.83333ZM7.16667 7.99992C7.16667 7.63192 6.868 7.33325 6.5 7.33325H3.83333C3.46533 7.33325 3.16667 7.63192 3.16667 7.99992C3.16667 8.36792 3.46533 8.66659 3.83333 8.66659H6.5C6.868 8.66659 7.16667 8.36792 7.16667 7.99992ZM13.8333 10.6666C13.8333 10.2986 13.5347 9.99992 13.1667 9.99992H3.83333C3.46533 9.99992 3.16667 10.2986 3.16667 10.6666C3.16667 11.0346 3.46533 11.3333 3.83333 11.3333H13.1667C13.5347 11.3333 13.8333 11.0346 13.8333 10.6666Z" fill="#213F12"/>
</g>
<defs>
<clipPath id="clip0_1088_1990">
<rect width="16" height="16" fill="white" transform="translate(0.5)"/>
</clipPath>
</defs>
</svg>
