<svg width="24" height="24" viewBox="0 0 24 24" fill="none" xmlns="http://www.w3.org/2000/svg">
<g opacity="0.35" filter="url(#filter0_bii_442_17581)">
<path fill-rule="evenodd" clip-rule="evenodd" d="M10.2999 3.2999C10.1349 3.4649 9.99995 3.74615 9.99995 3.9249C9.99995 4.37015 9.1322 4.3354 8.74995 3.8749C8.3047 3.3384 7.5897 3.41215 7.1502 4.03965C6.8692 4.4409 6.3737 4.63415 5.22195 4.79165C3.5432 5.02115 2.99995 5.31665 2.99995 5.9999C2.99995 6.8329 3.64945 7.07915 5.3792 6.90215C6.9832 6.73765 6.99995 6.7424 6.99995 7.3569C6.99995 7.95365 6.9297 7.9809 5.2137 8.0514C3.8377 8.1079 3.3642 8.2254 3.15245 8.5624C2.95245 8.8804 2.95245 9.1194 3.15245 9.4374C3.3642 9.7744 3.8377 9.8919 5.2137 9.9484L6.99995 10.0219V11.5109V12.9999H5.54345C4.34445 12.9999 3.9912 13.1022 3.54345 13.5784C2.77695 14.3944 2.8172 16.0349 3.64445 17.6949C4.4242 19.2602 5.35495 20.0824 7.49995 21.1024C9.0237 21.8267 9.30395 21.8749 11.9999 21.8749C14.6959 21.8749 14.9762 21.8267 16.4999 21.1024C18.6449 20.0824 19.5757 19.2602 20.3554 17.6949C21.2119 15.9764 21.2234 14.4507 20.3862 13.6137C19.7727 12.9999 19.7719 12.9999 14.3862 12.9999H8.99995V9.7499C8.99995 6.6889 9.02845 6.4999 9.48995 6.4999C9.9302 6.4999 9.98695 6.7054 10.0524 8.53615C10.1099 10.1514 10.2154 10.6292 10.5624 10.8472C10.8804 11.0472 11.1194 11.0474 11.4374 10.8477C11.7829 10.6307 11.9012 10.1054 11.9999 8.3514C12.1044 6.49365 12.1964 6.1164 12.5624 6.04665C12.9524 5.9724 12.9999 6.2039 12.9999 8.18165C12.9999 9.57365 13.1117 10.5117 13.2999 10.6999C13.7487 11.1487 14.4277 11.0624 14.8164 10.5077C15.1239 10.0687 15.5069 10.0079 18.3662 9.94515C21.0992 9.88515 21.6119 9.8104 21.8469 9.4374C22.0474 9.11865 22.0474 8.88115 21.8469 8.5624C21.6112 8.18815 21.0957 8.1149 18.2857 8.05515L14.9999 7.9854V6.86765C14.9999 5.9729 15.0872 5.7484 15.4374 5.74165C16.9109 5.7144 21.3139 5.0079 21.6262 4.74865C22.1067 4.3499 22.1044 3.6479 21.6214 3.2469C21.3172 2.99465 20.6277 2.99715 18.1157 3.26065C15.7167 3.5124 14.9202 3.52015 14.6944 3.2944C14.2557 2.85565 13.6342 2.93715 13.1249 3.4999C12.5529 4.13215 12.2027 4.13215 11.8079 3.4999C11.4582 2.93965 10.7537 2.84615 10.2999 3.2999Z" fill="#213F12"/>
</g>
<g filter="url(#filter1_bii_442_17581)">
<path fill-rule="evenodd" clip-rule="evenodd" d="M17.75 3.38739C16.4438 3.56314 15.2907 3.71664 15.1875 3.72839C15.0843 3.74014 15 4.20214 15 4.75464C15 5.66489 15.053 5.74839 15.5625 5.64139C15.8717 5.57639 17.3062 5.39589 18.75 5.24014C20.1938 5.08439 21.5158 4.84039 21.6875 4.69789C22.0835 4.36939 22.0895 3.68939 21.7 3.29989C21.3495 2.94939 20.9357 2.95864 17.75 3.38739ZM12 4.99989C12 5.83314 12.0833 5.99989 12.5 5.99989C12.9167 5.99989 13 5.83314 13 4.99989C13 4.16664 12.9167 3.99989 12.5 3.99989C12.0833 3.99989 12 4.16664 12 4.99989ZM9.3125 4.41539C9.139 4.48539 9 4.96664 9 5.49739C9 6.32989 9.0645 6.43614 9.5 6.32239C9.89175 6.21989 10 5.98139 10 5.22064C10 4.26064 9.92225 4.16939 9.3125 4.41539ZM4.501 4.93539C3.4715 5.05939 3 5.39389 3 5.99989C3 6.81314 3.59775 7.02939 5.34975 6.84989L7 6.68089V5.71539C7 4.65739 6.9455 4.64039 4.501 4.93539ZM3.3 8.29989C2.916 8.68389 2.916 9.31589 3.3 9.69989C3.4745 9.87439 4.311 9.99989 5.3 9.99989H7V8.99989V7.99989H5.3C4.311 7.99989 3.4745 8.12539 3.3 8.29989ZM15 8.99989V10.0144L18.2857 9.94464C21.0957 9.88489 21.6112 9.81164 21.847 9.43739C22.0475 9.11864 22.0475 8.88114 21.847 8.56239C21.6112 8.18814 21.0957 8.11489 18.2857 8.05514L15 7.98539V8.99989ZM4.08025 13.2971C2.398 14.1104 2.91275 17.3921 5.0405 19.4201C9.93925 24.0884 19.7575 21.9201 20.8827 15.9216C21.1017 14.7546 20.671 13.6581 19.8463 13.2824C19.0255 12.9084 4.857 12.9216 4.08025 13.2971Z" fill="#213F12"/>
</g>
<defs>
<filter id="filter0_bii_442_17581" x="-9.00488" y="-8.98828" width="43.0024" height="42.8633" filterUnits="userSpaceOnUse" color-interpolation-filters="sRGB">
<feFlood flood-opacity="0" result="BackgroundImageFix"/>
<feGaussianBlur in="BackgroundImageFix" stdDeviation="6"/>
<feComposite in2="SourceAlpha" operator="in" result="effect1_backgroundBlur_442_17581"/>
<feBlend mode="normal" in="SourceGraphic" in2="effect1_backgroundBlur_442_17581" result="shape"/>
<feColorMatrix in="SourceAlpha" type="matrix" values="0 0 0 0 0 0 0 0 0 0 0 0 0 0 0 0 0 0 127 0" result="hardAlpha"/>
<feOffset dx="-1.24988" dy="1.24988"/>
<feGaussianBlur stdDeviation="0.624942"/>
<feComposite in2="hardAlpha" operator="arithmetic" k2="-1" k3="1"/>
<feColorMatrix type="matrix" values="0 0 0 0 1 0 0 0 0 1 0 0 0 0 1 0 0 0 0.1 0"/>
<feBlend mode="normal" in2="shape" result="effect2_innerShadow_442_17581"/>
<feColorMatrix in="SourceAlpha" type="matrix" values="0 0 0 0 0 0 0 0 0 0 0 0 0 0 0 0 0 0 127 0" result="hardAlpha"/>
<feOffset dx="1.24988" dy="-1.24988"/>
<feGaussianBlur stdDeviation="0.624942"/>
<feComposite in2="hardAlpha" operator="arithmetic" k2="-1" k3="1"/>
<feColorMatrix type="matrix" values="0 0 0 0 0.76 0 0 0 0 0.76 0 0 0 0 0.76 0 0 0 0.096 0"/>
<feBlend mode="normal" in2="effect2_innerShadow_442_17581" result="effect3_innerShadow_442_17581"/>
</filter>
<filter id="filter1_bii_442_17581" x="-9" y="-8.94971" width="42.9976" height="42.896" filterUnits="userSpaceOnUse" color-interpolation-filters="sRGB">
<feFlood flood-opacity="0" result="BackgroundImageFix"/>
<feGaussianBlur in="BackgroundImageFix" stdDeviation="6"/>
<feComposite in2="SourceAlpha" operator="in" result="effect1_backgroundBlur_442_17581"/>
<feBlend mode="normal" in="SourceGraphic" in2="effect1_backgroundBlur_442_17581" result="shape"/>
<feColorMatrix in="SourceAlpha" type="matrix" values="0 0 0 0 0 0 0 0 0 0 0 0 0 0 0 0 0 0 127 0" result="hardAlpha"/>
<feOffset dx="-1.24988" dy="1.24988"/>
<feGaussianBlur stdDeviation="0.624942"/>
<feComposite in2="hardAlpha" operator="arithmetic" k2="-1" k3="1"/>
<feColorMatrix type="matrix" values="0 0 0 0 1 0 0 0 0 1 0 0 0 0 1 0 0 0 0.1 0"/>
<feBlend mode="normal" in2="shape" result="effect2_innerShadow_442_17581"/>
<feColorMatrix in="SourceAlpha" type="matrix" values="0 0 0 0 0 0 0 0 0 0 0 0 0 0 0 0 0 0 127 0" result="hardAlpha"/>
<feOffset dx="1.24988" dy="-1.24988"/>
<feGaussianBlur stdDeviation="0.624942"/>
<feComposite in2="hardAlpha" operator="arithmetic" k2="-1" k3="1"/>
<feColorMatrix type="matrix" values="0 0 0 0 0.76 0 0 0 0 0.76 0 0 0 0 0.76 0 0 0 0.096 0"/>
<feBlend mode="normal" in2="effect2_innerShadow_442_17581" result="effect3_innerShadow_442_17581"/>
</filter>
</defs>
</svg>
