<svg width="183" height="183" viewBox="0 0 183 183" fill="none" xmlns="http://www.w3.org/2000/svg">
<path d="M128.672 22.875H54.3281C53.5698 22.875 52.8425 23.1763 52.3062 23.7125C51.77 24.2487 51.4688 24.976 51.4688 25.7344V80.0625C51.468 88.3385 54.4585 96.3359 59.8891 102.581C65.3197 108.826 72.8244 112.898 81.0204 114.046C82.3584 114.258 83.5756 114.943 84.4497 115.978C85.3238 117.013 85.7965 118.328 85.7812 119.682V145.828C85.7812 146.586 85.48 147.314 84.9438 147.85C84.4075 148.386 83.6802 148.688 82.9219 148.688H68.931C67.539 148.657 66.1807 149.117 65.0935 149.987C64.0063 150.857 63.2594 152.081 62.9835 153.446C62.8436 154.266 62.8846 155.108 63.1037 155.911C63.3228 156.714 63.7147 157.46 64.252 158.096C64.7892 158.732 65.4589 159.244 66.2143 159.594C66.9696 159.944 67.7923 160.126 68.625 160.125H114.375C115.208 160.126 116.03 159.944 116.786 159.594C117.541 159.244 118.211 158.732 118.748 158.096C119.285 157.46 119.677 156.714 119.896 155.911C120.115 155.108 120.156 154.266 120.017 153.446C119.741 152.081 118.994 150.857 117.907 149.987C116.819 149.117 115.461 148.657 114.069 148.688H100.078C99.3198 148.688 98.5925 148.386 98.0562 147.85C97.52 147.314 97.2188 146.586 97.2188 145.828V119.682C97.2035 118.328 97.6762 117.013 98.5503 115.978C99.4244 114.943 100.642 114.258 101.98 114.046C110.176 112.898 117.68 108.826 123.111 102.581C128.542 96.3359 131.532 88.3385 131.531 80.0625V25.7344C131.531 24.976 131.23 24.2487 130.694 23.7125C130.158 23.1763 129.43 22.875 128.672 22.875Z" fill="#B0D2AF"/>
<path d="M105.966 65.94L95.7891 76.1166V87.2109C95.7891 88.3485 95.3372 89.4394 94.5328 90.2438C93.7285 91.0481 92.6375 91.5 91.5 91.5C90.3625 91.5 89.2715 91.0481 88.4672 90.2438C87.6628 89.4394 87.2109 88.3485 87.2109 87.2109V73.7547C87.2111 72.9964 87.5125 72.2693 88.0487 71.7331L96.8756 62.9062L79.8938 45.9244C79.4952 45.5261 79.1791 45.0532 78.9633 44.5326C78.7476 44.0121 78.6366 43.4541 78.6366 42.8906C78.6366 42.3271 78.7476 41.7692 78.9633 41.2486C79.1791 40.7281 79.4952 40.2551 79.8938 39.8568L87.2109 32.5397V22.875H95.7891V34.9015C95.7889 35.6598 95.4876 36.387 94.9513 36.9231L88.9838 42.8906L105.966 59.8725C106.364 60.2708 106.68 60.7437 106.896 61.2643C107.112 61.7848 107.223 62.3428 107.223 62.9062C107.223 63.4697 107.112 64.0277 106.896 64.5482C106.68 65.0688 106.364 65.5417 105.966 65.94Z" fill="#213F12"/>
<path d="M157.266 94.3594H151.547C150.789 94.3594 150.061 94.0581 149.525 93.5219C148.989 92.9856 148.688 92.2584 148.688 91.5C148.688 90.7416 148.989 90.0144 149.525 89.4781C150.061 88.9419 150.789 88.6406 151.547 88.6406H157.266C158.024 88.6406 158.751 88.9419 159.288 89.4781C159.824 90.0144 160.125 90.7416 160.125 91.5C160.125 92.2584 159.824 92.9856 159.288 93.5219C158.751 94.0581 158.024 94.3594 157.266 94.3594Z" fill="#213F12"/>
<path d="M149.525 113.537L145.482 109.494C144.961 108.955 144.673 108.232 144.68 107.483C144.686 106.733 144.987 106.016 145.517 105.486C146.047 104.956 146.764 104.655 147.514 104.648C148.264 104.642 148.986 104.93 149.525 105.451L153.568 109.494C154.089 110.033 154.378 110.756 154.371 111.505C154.365 112.255 154.064 112.972 153.534 113.502C153.003 114.033 152.286 114.333 151.537 114.34C150.787 114.346 150.065 114.058 149.525 113.537Z" fill="#213F12"/>
<path d="M145.482 77.5491C144.946 77.0129 144.645 76.2857 144.645 75.5275C144.645 74.7693 144.946 74.0422 145.482 73.5059L149.525 69.4628C150.065 68.9419 150.787 68.6537 151.537 68.6602C152.286 68.6667 153.003 68.9675 153.534 69.4976C154.064 70.0278 154.365 70.7449 154.371 71.4947C154.378 72.2444 154.089 72.9667 153.568 73.5059L149.525 77.5491C148.989 78.0852 148.262 78.3863 147.504 78.3863C146.746 78.3863 146.018 78.0852 145.482 77.5491Z" fill="#213F12"/>
<path d="M25.7344 88.6406H31.4531C32.2115 88.6406 32.9388 88.9419 33.475 89.4781C34.0112 90.0144 34.3125 90.7416 34.3125 91.5C34.3125 92.2584 34.0112 92.9856 33.475 93.5219C32.9388 94.0581 32.2115 94.3594 31.4531 94.3594H25.7344C24.976 94.3594 24.2487 94.0581 23.7125 93.5219C23.1763 92.9856 22.875 92.2584 22.875 91.5C22.875 90.7416 23.1763 90.0144 23.7125 89.4781C24.2487 88.9419 24.976 88.6406 25.7344 88.6406Z" fill="#213F12"/>
<path d="M33.4747 69.4628L37.5179 73.5059C37.791 73.7697 38.0088 74.0852 38.1587 74.4341C38.3085 74.7829 38.3874 75.1581 38.3907 75.5378C38.394 75.9175 38.3217 76.294 38.1779 76.6454C38.0341 76.9968 37.8218 77.3161 37.5533 77.5845C37.2848 77.853 36.9656 78.0653 36.6142 78.2091C36.2628 78.3529 35.8863 78.4252 35.5066 78.4219C35.1269 78.4186 34.7517 78.3398 34.4029 78.1899C34.054 78.04 33.7385 77.8222 33.4747 77.5491L29.4316 73.5059C28.9107 72.9667 28.6225 72.2444 28.629 71.4947C28.6355 70.7449 28.9362 70.0278 29.4664 69.4976C29.9965 68.9675 30.7137 68.6667 31.4634 68.6602C32.2132 68.6537 32.9354 68.9419 33.4747 69.4628Z" fill="#213F12"/>
<path d="M37.5179 105.451C38.0539 105.987 38.3551 106.714 38.3551 107.472C38.3551 108.231 38.0539 108.958 37.5179 109.494L33.4747 113.537C32.9354 114.058 32.2132 114.346 31.4634 114.34C30.7137 114.333 29.9965 114.033 29.4664 113.502C28.9362 112.972 28.6355 112.255 28.629 111.505C28.6225 110.756 28.9107 110.033 29.4316 109.494L33.4747 105.451C34.0109 104.915 34.7381 104.614 35.4963 104.614C36.2545 104.614 36.9817 104.915 37.5179 105.451Z" fill="#213F12"/>
</svg>
