<svg width="249" height="160" viewBox="0 0 249 160" fill="none" xmlns="http://www.w3.org/2000/svg">
<rect width="249" height="160" fill="white"/>
<path d="M152 90H100V88C100 73.6406 111.641 62 126 62C140.359 62 152 73.6406 152 88V90Z" fill="#C1FBA5"/>
<path d="M152.984 100H97.0161C94.8105 100 93.0161 98.2056 93.0161 96C93.0161 93.7944 94.8105 92 97.0161 92H152.984C155.189 92 156.984 93.7944 156.984 96C156.984 98.2056 155.189 100 152.984 100ZM97.0161 94C95.9131 94 95.0161 94.897 95.0161 96C95.0161 97.103 95.9131 98 97.0161 98H152.984C154.087 98 154.984 97.103 154.984 96C154.984 94.897 154.087 94 152.984 94H97.0161Z" fill="#213F12"/>
<path d="M151 94H99C98.4477 94 98 93.5522 98 93V91C98 76.1123 110.112 64 125 64C139.888 64 152 76.1123 152 91V93C152 93.5522 151.552 94 151 94ZM100 92H150V91C150 77.2148 138.785 66 125 66C111.215 66 100 77.2148 100 91V92Z" fill="#213F12"/>
<path d="M108.722 77.2149C108.482 77.2149 108.241 77.1289 108.05 76.9551C107.641 76.5835 107.611 75.9512 107.982 75.5425C108.448 75.0303 108.942 74.5327 109.453 74.0645C109.859 73.69 110.493 73.7178 110.865 74.1245C111.239 74.5313 111.212 75.1636 110.805 75.5371C110.339 75.9653 109.887 76.4194 109.462 76.8872C109.265 77.1045 108.994 77.2149 108.722 77.2149Z" fill="#213F12"/>
<path d="M103.091 90C103.061 90 103.031 89.9985 103 89.9961C102.45 89.9463 102.044 89.46 102.094 88.9097C102.415 85.3662 103.581 81.8945 105.464 78.8706C105.756 78.4019 106.374 78.2583 106.842 78.5508C107.311 78.8428 107.454 79.4595 107.162 79.9282C105.442 82.688 104.379 85.8564 104.086 89.0903C104.039 89.6094 103.603 90 103.091 90Z" fill="#213F12"/>
<path d="M125 66C122.794 66 121 64.2056 121 62C121 59.7944 122.794 58 125 58C127.206 58 129 59.7944 129 62C129 64.2056 127.206 66 125 66ZM125 60C123.897 60 123 60.897 123 62C123 63.103 123.897 64 125 64C126.103 64 127 63.103 127 62C127 60.897 126.103 60 125 60Z" fill="#213F12"/>
<path d="M147 90C146.73 90 146.48 89.8897 146.29 89.71C146.11 89.52 146 89.27 146 89C146 88.7398 146.11 88.48 146.29 88.29C146.66 87.9199 147.33 87.9199 147.71 88.29C147.89 88.48 148 88.7398 148 89C148 89.2598 147.89 89.52 147.71 89.71C147.52 89.8897 147.26 90 147 90Z" fill="#213F12"/>
<path d="M143 90C142.74 90 142.48 89.8897 142.29 89.71C142.11 89.52 142 89.2598 142 89C142 88.7398 142.11 88.48 142.29 88.29C142.66 87.9199 143.33 87.9199 143.71 88.29C143.89 88.48 144 88.7398 144 89C144 89.2598 143.89 89.52 143.71 89.71C143.52 89.8897 143.26 90 143 90Z" fill="#213F12"/>
<path d="M139 90C138.74 90 138.48 89.8897 138.29 89.71C138.11 89.52 138 89.2598 138 89C138 88.7398 138.11 88.48 138.29 88.29C138.67 87.9199 139.34 87.9199 139.71 88.29C139.89 88.48 140 88.7398 140 89C140 89.2598 139.89 89.52 139.71 89.71C139.52 89.8897 139.27 90 139 90Z" fill="#213F12"/>
<path d="M135 90C134.74 90 134.48 89.8897 134.29 89.71C134.11 89.52 134 89.27 134 89C134 88.7398 134.11 88.48 134.29 88.29C134.67 87.9199 135.33 87.9199 135.71 88.29C135.89 88.48 136 88.7398 136 89C136 89.27 135.89 89.52 135.71 89.71C135.52 89.8897 135.26 90 135 90Z" fill="#213F12"/>
<path d="M131 90C130.73 90 130.48 89.8897 130.29 89.71C130.11 89.52 130 89.2598 130 89C130 88.7398 130.11 88.48 130.29 88.2901C130.65 87.9297 131.33 87.9199 131.71 88.2901C131.89 88.48 132 88.7398 132 89C132 89.2598 131.89 89.52 131.71 89.71C131.52 89.8897 131.26 90 131 90Z" fill="#213F12"/>
<path d="M147 86C146.73 86 146.48 85.8897 146.29 85.71C146.11 85.52 146 85.2598 146 85C146 84.73 146.11 84.48 146.29 84.2901C146.65 83.9297 147.33 83.9199 147.71 84.2901C147.89 84.48 148 84.7398 148 85C148 85.2598 147.89 85.52 147.71 85.71C147.52 85.8897 147.26 86 147 86Z" fill="#213F12"/>
<path d="M143 86C142.74 86 142.48 85.8897 142.29 85.71C142.11 85.52 142 85.2598 142 85C142 84.7398 142.11 84.48 142.29 84.29C142.67 83.9199 143.33 83.9199 143.71 84.29C143.89 84.48 144 84.7398 144 85C144 85.2598 143.89 85.52 143.71 85.71C143.52 85.8897 143.26 86 143 86Z" fill="#213F12"/>
<path d="M139 86C138.74 86 138.48 85.8897 138.29 85.71C138.11 85.52 138 85.2598 138 85C138 84.7398 138.11 84.48 138.29 84.29C138.67 83.9199 139.34 83.9199 139.71 84.29C139.89 84.48 140 84.7398 140 85C140 85.2598 139.89 85.52 139.71 85.71C139.52 85.8897 139.27 86 139 86Z" fill="#213F12"/>
<path d="M135 86C134.74 86 134.48 85.8897 134.29 85.71C134.11 85.52 134 85.2598 134 85C134 84.73 134.11 84.48 134.29 84.29C134.66 83.9199 135.33 83.9199 135.71 84.29C135.89 84.48 136 84.73 136 85C136 85.2598 135.89 85.52 135.71 85.71C135.52 85.8897 135.26 86 135 86Z" fill="#213F12"/>
<path d="M131 86C130.74 86 130.48 85.8897 130.29 85.71C130.11 85.52 130 85.2598 130 85C130 84.7398 130.11 84.48 130.29 84.2901C130.66 83.9297 131.33 83.9199 131.71 84.2901C131.89 84.48 132 84.7398 132 85C132 85.2598 131.89 85.52 131.71 85.71C131.52 85.8897 131.26 86 131 86Z" fill="#213F12"/>
<path d="M143 82C142.74 82 142.48 81.8897 142.29 81.71C142.11 81.52 142 81.2598 142 81C142 80.7398 142.11 80.48 142.29 80.29C142.66 79.9199 143.34 79.9199 143.71 80.29C143.89 80.48 144 80.7398 144 81C144 81.2598 143.89 81.52 143.71 81.71C143.52 81.8897 143.26 82 143 82Z" fill="#213F12"/>
<path d="M139 82C138.74 82 138.48 81.8897 138.29 81.71C138.11 81.52 138 81.2598 138 81C138 80.7398 138.11 80.48 138.29 80.29C138.67 79.9199 139.34 79.9199 139.71 80.29C139.89 80.48 140 80.7398 140 81C140 81.2598 139.89 81.52 139.71 81.71C139.52 81.8897 139.26 82 139 82Z" fill="#213F12"/>
<path d="M135 82C134.74 82 134.48 81.8897 134.29 81.71C134.11 81.52 134 81.27 134 81C134 80.7398 134.11 80.48 134.29 80.29C134.67 79.9199 135.33 79.9199 135.71 80.29C135.89 80.48 136 80.7398 136 81C136 81.27 135.89 81.52 135.71 81.71C135.52 81.8897 135.26 82 135 82Z" fill="#213F12"/>
<path d="M131 82C130.73 82 130.48 81.8897 130.29 81.71C130.11 81.52 130 81.2598 130 81C130 80.7398 130.11 80.48 130.29 80.29C130.66 79.9199 131.33 79.9199 131.71 80.29C131.89 80.48 132 80.7398 132 81C132 81.2598 131.89 81.52 131.71 81.71C131.52 81.8897 131.26 82 131 82Z" fill="#213F12"/>
<path d="M139 78C138.74 78 138.48 77.8897 138.29 77.71C138.11 77.52 138 77.2598 138 77C138 76.7398 138.11 76.48 138.29 76.29C138.67 75.9199 139.34 75.9199 139.71 76.29C139.89 76.48 140 76.7398 140 77C140 77.27 139.89 77.52 139.71 77.71C139.52 77.8897 139.27 78 139 78Z" fill="#213F12"/>
<path d="M135 78C134.74 78 134.48 77.8897 134.29 77.71C134.11 77.52 134 77.27 134 77C134 76.7398 134.11 76.48 134.29 76.29C134.66 75.9199 135.34 75.9199 135.71 76.29C135.89 76.48 136 76.7398 136 77C136 77.27 135.89 77.52 135.71 77.71C135.52 77.8897 135.26 78 135 78Z" fill="#213F12"/>
<path d="M131 78C130.74 78 130.48 77.8897 130.29 77.71C130.11 77.52 130 77.2598 130 77C130 76.73 130.11 76.48 130.29 76.2901C130.66 75.9297 131.33 75.9199 131.71 76.2901C131.89 76.48 132 76.7398 132 77C132 77.2598 131.89 77.52 131.71 77.71C131.52 77.8897 131.26 78 131 78Z" fill="#213F12"/>
<path d="M135 74C134.74 74 134.48 73.8897 134.29 73.71C134.11 73.52 134 73.2598 134 73C134 72.73 134.11 72.48 134.29 72.29C134.66 71.9199 135.33 71.9199 135.71 72.29C135.89 72.48 136 72.73 136 73C136 73.2598 135.89 73.52 135.71 73.71C135.52 73.8897 135.26 74 135 74Z" fill="#213F12"/>
<path d="M131 74C130.74 74 130.48 73.8897 130.29 73.71C130.11 73.52 130 73.2598 130 73C130 72.7398 130.11 72.48 130.29 72.29C130.66 71.9199 131.33 71.9199 131.71 72.29C131.89 72.48 132 72.7398 132 73C132 73.2598 131.89 73.52 131.71 73.71C131.52 73.8897 131.26 74 131 74Z" fill="#213F12"/>
<path d="M115.732 60C115.514 60 115.294 59.9287 115.11 59.7822C114.348 59.1763 113.946 58.3154 114.006 57.4199C114.068 56.4971 114.608 55.6665 115.487 55.1416C115.795 54.958 115.981 54.7046 115.999 54.4468C116.014 54.2124 115.889 53.9766 115.645 53.7823C115.212 53.4385 115.141 52.8091 115.485 52.377C115.829 51.9453 116.459 51.8745 116.891 52.2178C117.652 52.8238 118.054 53.6851 117.994 54.5806C117.932 55.5034 117.392 56.3335 116.513 56.8584C116.205 57.0425 116.019 57.2954 116.001 57.5537C115.986 57.7876 116.111 58.0235 116.355 58.2178C116.787 58.5615 116.859 59.1905 116.515 59.6226C116.317 59.8706 116.026 60 115.732 60Z" fill="#213F12"/>
<path d="M124.732 55C124.514 55 124.294 54.9287 124.11 54.7823C123.348 54.1763 122.946 53.3155 123.006 52.42C123.068 51.4971 123.608 50.6665 124.487 50.1416C124.795 49.958 124.981 49.7046 124.999 49.4468C125.014 49.2124 124.889 48.9766 124.645 48.7823C124.212 48.4385 124.141 47.8091 124.485 47.377C124.829 46.9449 125.459 46.8736 125.891 47.2178C126.652 47.8238 127.054 48.6851 126.994 49.5806C126.932 50.5035 126.392 51.3335 125.513 51.8584C125.205 52.0425 125.019 52.2954 125.001 52.5537C124.986 52.7876 125.111 53.0235 125.355 53.2178C125.787 53.5616 125.859 54.1905 125.515 54.6226C125.317 54.8706 125.026 55 124.732 55Z" fill="#213F12"/>
<path d="M133.732 60C133.514 60 133.294 59.9287 133.11 59.7822C132.348 59.1763 131.946 58.3154 132.006 57.4199C132.068 56.4971 132.608 55.6665 133.487 55.1416C133.795 54.958 133.981 54.7046 133.999 54.4468C134.014 54.2124 133.889 53.9766 133.645 53.7823C133.212 53.4385 133.141 52.8091 133.485 52.377C133.829 51.9453 134.459 51.8745 134.891 52.2178C135.652 52.8238 136.054 53.6851 135.994 54.5806C135.932 55.5034 135.392 56.3335 134.513 56.8584C134.205 57.0425 134.019 57.2954 134.001 57.5537C133.986 57.7876 134.111 58.0235 134.355 58.2178C134.787 58.5615 134.859 59.1905 134.515 59.6226C134.317 59.8706 134.026 60 133.732 60Z" fill="#213F12"/>
</svg>
