<svg width="26" height="34" viewBox="0 0 26 34" fill="none" xmlns="http://www.w3.org/2000/svg">
<path d="M7.33333 0C5.45541 0.00224947 3.65504 0.74925 2.32714 2.07714C0.999249 3.40504 0.252249 5.20541 0.25 7.08333V32.5833C0.2502 32.841 0.320672 33.0937 0.453832 33.3143C0.586992 33.5349 0.777795 33.715 1.0057 33.8353C1.23361 33.9555 1.48999 34.0113 1.74725 33.9966C2.0045 33.982 2.25289 33.8974 2.46567 33.7521L5.44917 31.7135L8.43267 33.7521C8.66838 33.9135 8.9474 33.9999 9.23308 33.9999C9.51877 33.9999 9.79778 33.9135 10.0335 33.7521L13.0085 31.7135L15.9835 33.7521C16.2194 33.9138 16.4986 34.0004 16.7846 34.0004C17.0706 34.0004 17.3499 33.9138 17.5858 33.7521L20.5607 31.7149L23.5357 33.7507C23.7484 33.8955 23.9965 33.9798 24.2534 33.9943C24.5104 34.0088 24.7664 33.953 24.994 33.833C25.2216 33.713 25.4123 33.5333 25.5455 33.3131C25.6787 33.093 25.7494 32.8407 25.75 32.5833V7.08333C25.7477 5.20541 25.0008 3.40504 23.6729 2.07714C22.345 0.74925 20.5446 0.00224947 18.6667 0L7.33333 0ZM15.8333 19.8333H7.33333C6.95761 19.8333 6.59728 19.6841 6.3316 19.4184C6.06592 19.1527 5.91667 18.7924 5.91667 18.4167C5.91667 18.0409 6.06592 17.6806 6.3316 17.4149C6.59728 17.1493 6.95761 17 7.33333 17H15.8333C16.2091 17 16.5694 17.1493 16.8351 17.4149C17.1007 17.6806 17.25 18.0409 17.25 18.4167C17.25 18.7924 17.1007 19.1527 16.8351 19.4184C16.5694 19.6841 16.2091 19.8333 15.8333 19.8333ZM20.0833 12.75C20.0833 13.1257 19.9341 13.4861 19.6684 13.7517C19.4027 14.0174 19.0424 14.1667 18.6667 14.1667H7.33333C6.95761 14.1667 6.59728 14.0174 6.3316 13.7517C6.06592 13.4861 5.91667 13.1257 5.91667 12.75C5.91667 12.3743 6.06592 12.0139 6.3316 11.7483C6.59728 11.4826 6.95761 11.3333 7.33333 11.3333H18.6667C19.0424 11.3333 19.4027 11.4826 19.6684 11.7483C19.9341 12.0139 20.0833 12.3743 20.0833 12.75Z" fill="white"/>
</svg>
