<svg width="304" height="48" viewBox="0 0 304 48" fill="none" xmlns="http://www.w3.org/2000/svg">
<path fill-rule="evenodd" clip-rule="evenodd" d="M88.8691 3.53705C81.6847 4.83194 76.0213 9.77297 74.5488 16.0308C74.0102 18.3196 74.1842 20.819 75.0047 22.5759C76.4925 25.762 79.0636 27.1913 86.6882 29.071C90.9606 30.1242 92.5093 30.7195 92.7752 31.4103C92.8606 31.6329 92.9308 32.2063 92.9308 32.6851C92.9308 33.7775 91.9232 34.8516 90.5389 35.2347C89.2542 35.5905 86.2076 35.5833 84.7653 35.2211C83.2429 34.8389 81.5938 33.2691 81.2096 31.8363C81.013 31.1034 80.7945 30.7822 80.4984 30.7912C80.2634 30.7981 77.6553 31.2236 74.7026 31.7365L69.334 32.6691L69.2554 33.4716C69.0566 35.4992 70.8145 39.3124 72.8194 41.203C74.3712 42.6665 75.9871 43.5224 78.6207 44.276C80.3111 44.7598 81.1521 44.8335 84.9403 44.83C88.6129 44.8265 89.6629 44.7379 91.5214 44.2736C94.4125 43.5516 96.728 42.5656 98.8746 41.1428C106.052 36.3857 108.394 27.199 103.669 22.3441C101.996 20.6255 99.7775 19.7365 93.3053 18.1913C87.4081 16.7834 86.5759 16.2295 87.2563 14.1673C87.8161 12.471 90.3121 11.6148 93.2831 12.1003C95.5584 12.472 96.9082 13.5959 97.515 15.6235C97.6204 15.976 98.3423 15.8294 103.029 14.5031L108.421 12.9769L108.273 12.23C107.963 10.67 106.483 7.98512 105.269 6.78111C103.742 5.26664 101.163 4.0071 98.5825 3.51464C96.1759 3.05554 91.4795 3.06625 88.8691 3.53705ZM231.14 3.30078C230.865 3.35605 229.966 3.52809 229.142 3.68319C218.611 5.66499 210.208 17.4041 210.192 30.1558C210.186 34.8508 210.967 37.3316 213.379 40.2838C214.767 41.9833 216.785 43.3486 219.127 44.1747C220.682 44.7227 221.336 44.8031 224.398 44.8228C227.396 44.8417 228.161 44.7623 229.767 44.2653C231.983 43.5797 233.944 42.5432 235.555 41.208C236.197 40.675 236.776 40.239 236.841 40.239C236.964 40.239 237.37 41.939 237.629 43.5379L237.78 44.4715H243.66L245.952 33.2047C247.213 27.0078 248.245 21.8542 248.245 21.7521C248.245 21.65 244.151 21.5664 239.148 21.5664H230.052L229.785 22.8735C229.638 23.5925 229.252 25.4968 228.927 27.1059L228.335 30.0313H231.673C235.518 30.0313 235.511 30.0251 234.283 32.1595C231.895 36.3103 225.55 36.6205 223.752 32.6744C222.491 29.9053 223.824 21.3219 226.231 16.7115C227.879 13.5565 229.865 12.0822 232.518 12.0453C235.375 12.006 237.008 13.9066 237.008 17.2699V18.3604L238.069 18.2227C238.653 18.147 241.041 17.9118 243.375 17.7001C245.71 17.4885 247.996 17.2565 248.456 17.1845L249.291 17.0536L249.112 15.2642C248.292 7.0861 243.377 3.07322 234.302 3.17156C232.838 3.1875 231.415 3.24576 231.14 3.30078ZM124.493 5.44564C123.995 6.43828 119.393 15.4293 114.266 25.4254C109.14 35.4215 104.871 43.796 104.779 44.0358C104.625 44.4416 104.953 44.4715 109.575 44.4715H114.537L118.653 36.2461L129.762 36.38L130.055 39.6166C130.217 41.3967 130.357 43.2174 130.367 43.6623L130.386 44.4715H143.089L142.973 43.6623C142.794 42.4212 138.626 4.36811 138.626 3.98096C138.626 3.70162 137.438 3.64062 132.012 3.64062H125.398L124.493 5.44564ZM155.24 4.17491C154.999 5.19543 147.116 44.1369 147.116 44.3079C147.116 44.5636 162.929 44.4869 165.705 44.218C168.866 43.9116 171.44 43.2057 173.934 41.9611C182.45 37.713 187.921 28.7113 187.844 19.0767C187.795 13.0096 184.982 7.82379 180.576 5.67868C177.04 3.95731 176.035 3.82834 165.168 3.70237L155.378 3.58908L155.24 4.17491ZM196.933 4.2008C196.69 5.23427 188.816 44.1423 188.816 44.3124C188.816 44.4048 191.589 44.4503 194.978 44.4135L201.14 44.347L205.213 24.305C207.453 13.2819 209.287 4.12312 209.289 3.95183C209.291 3.71133 207.904 3.64062 203.178 3.64062H197.065L196.933 4.2008ZM258.609 4.2008C258.359 5.25543 250.496 44.0978 250.494 44.289C250.493 44.3943 253.265 44.4503 256.655 44.4135L262.819 44.347L266.89 24.305C269.13 13.2819 270.963 4.12312 270.965 3.95183C270.967 3.71133 269.58 3.64062 264.854 3.64062H258.742L258.609 4.2008ZM274.842 3.95183C274.691 4.40296 272.965 12.8189 272.965 13.1072C272.965 13.2558 274.604 13.3504 277.18 13.3504H281.396L278.304 28.5723C276.604 36.9444 275.212 43.9487 275.212 44.1374C275.212 44.4212 276.218 44.469 281.01 44.4137L286.808 44.347L293.077 13.4749L301.611 13.3389L302.52 8.801C303.02 6.30508 303.429 4.12312 303.429 3.95183C303.428 3.49597 274.996 3.49597 274.842 3.95183ZM172.131 13.5795C174.118 14.9373 174.988 17.5107 174.747 21.3174C174.466 25.7642 172.839 29.7642 170.25 32.3724C168.228 34.4097 166.946 34.9845 163.994 35.178C162.65 35.2659 161.611 35.2323 161.528 35.0983C161.449 34.9708 162.387 29.9414 163.613 23.9219C164.839 17.902 165.842 12.9366 165.843 12.8871C165.843 12.8378 167.061 12.839 168.55 12.8898C170.909 12.9702 171.368 13.0589 172.131 13.5795ZM128.864 20.8195C129.028 23.2158 129.227 25.7087 129.307 26.359L129.451 27.5416H126.048C124.177 27.5416 122.645 27.4826 122.645 27.4107C122.645 27.3387 123.724 25.0699 125.043 22.369C126.361 19.6682 127.608 17.0717 127.814 16.5992C128.376 15.3051 128.529 15.9173 128.864 20.8195Z" fill="#70B44E"/>
<path fill-rule="evenodd" clip-rule="evenodd" d="M23.364 1.80502C22.8191 2.79791 19.6529 8.70768 16.3277 14.9381C13.0027 21.1686 9.83546 27.0813 9.28937 28.0777L8.29681 29.8889L9.25416 29.5185C9.78078 29.3146 13.116 28.1429 16.666 26.9148C20.2163 25.6864 23.1503 24.6459 23.1862 24.6023C23.2224 24.559 24.2884 22.7308 25.5554 20.5399C26.8223 18.349 27.9463 16.465 28.0531 16.3535C28.16 16.242 32.6217 16.286 37.9682 16.4516L47.6891 16.7524L58.4659 8.56278C64.3931 4.05869 69.2477 0.289551 69.2542 0.186727C69.2605 0.0839025 59.1608 0 46.8101 0H24.3546L23.364 1.80502ZM53.5346 20.9574C49.6205 22.3173 46.2888 23.5639 46.1307 23.7277C45.9724 23.8915 44.8098 25.8181 43.5466 28.009C42.2833 30.1999 41.2328 32.0077 41.2121 32.0261C41.1914 32.0445 36.7922 31.9195 31.4361 31.7482C26.08 31.5767 21.5854 31.5177 21.448 31.617C21.3107 31.7161 16.4288 35.4265 10.599 39.8619L0 47.9265L22.4461 47.99C34.7915 48.0251 44.9811 47.9651 45.0897 47.8568C45.3769 47.5705 60.8204 18.6321 60.7285 18.5524C60.6858 18.5153 57.4486 19.5978 53.5346 20.9574Z" fill="#70B44E"/>
</svg>
