<svg width="24" height="24" viewBox="0 0 24 24" fill="none" xmlns="http://www.w3.org/2000/svg">
<path opacity="0.5" d="M3.464 3.464C2 4.93 2 7.286 2 12C2 16.714 2 19.071 3.464 20.535C4.93 22 7.286 22 12 22C16.714 22 19.071 22 20.535 20.535C22 19.072 22 16.714 22 12C22 7.286 22 4.929 20.535 3.464C19.072 2 16.714 2 12 2C7.286 2 4.929 2 3.464 3.464Z" fill="#2F4C21"/>
<path d="M10.004 5.75196C10.1025 5.75144 10.1999 5.73152 10.2907 5.69334C10.3815 5.65517 10.4639 5.59948 10.5332 5.52947C10.6024 5.45945 10.6572 5.37648 10.6944 5.28528C10.7316 5.19409 10.7505 5.09646 10.75 4.99796C10.7495 4.89947 10.7296 4.80205 10.6914 4.71126C10.6532 4.62046 10.5975 4.53808 10.5275 4.46881C10.4575 4.39953 10.3745 4.34473 10.2833 4.30752C10.1921 4.27032 10.0945 4.25144 9.996 4.25196C8.914 4.25796 8.016 4.28196 7.283 4.41096C6.531 4.54196 5.888 4.79296 5.361 5.29396C4.906 5.72696 4.601 6.16596 4.436 6.79696C4.286 7.36896 4.259 8.07196 4.252 8.99496C4.25054 9.19388 4.32816 9.38522 4.46778 9.52691C4.6074 9.66859 4.79759 9.749 4.9965 9.75046C5.19541 9.75192 5.38676 9.6743 5.52844 9.53468C5.67012 9.39506 5.75054 9.20488 5.752 9.00596C5.76 8.05696 5.792 7.53996 5.887 7.17796C5.967 6.87496 6.093 6.66796 6.396 6.37996C6.638 6.14996 6.968 5.98796 7.541 5.88796C8.133 5.78496 8.911 5.75796 10.004 5.75196ZM14.004 4.25196C13.8051 4.2509 13.6139 4.3289 13.4725 4.46881C13.3311 4.60871 13.2511 4.79905 13.25 4.99796C13.2489 5.19688 13.3269 5.38806 13.4668 5.52947C13.6067 5.67087 13.7971 5.7509 13.996 5.75196C15.089 5.75796 15.867 5.78496 16.459 5.88796C17.032 5.98796 17.362 6.14996 17.604 6.37996C17.907 6.66896 18.034 6.87496 18.113 7.17796C18.208 7.53996 18.241 8.05796 18.248 9.00596C18.2495 9.20488 18.3299 9.39506 18.4716 9.53468C18.6132 9.6743 18.8046 9.75192 19.0035 9.75046C19.2024 9.749 19.3926 9.66859 19.5322 9.52691C19.6718 9.38522 19.7495 9.19388 19.748 8.99496C19.741 8.07196 19.714 7.36896 19.564 6.79696C19.398 6.16696 19.094 5.72696 18.639 5.29396C18.112 4.79296 17.469 4.54196 16.717 4.41096C15.984 4.28196 15.086 4.25796 14.004 4.25196ZM5 11.25C4.80109 11.25 4.61032 11.329 4.46967 11.4696C4.32902 11.6103 4.25 11.8011 4.25 12C4.25 12.1989 4.32902 12.3896 4.46967 12.5303C4.61032 12.6709 4.80109 12.75 5 12.75H19C19.1989 12.75 19.3897 12.6709 19.5303 12.5303C19.671 12.3896 19.75 12.1989 19.75 12C19.75 11.8011 19.671 11.6103 19.5303 11.4696C19.3897 11.329 19.1989 11.25 19 11.25H5ZM5.752 14.995C5.75128 14.8965 5.73116 14.7991 5.6928 14.7084C5.65445 14.6177 5.5986 14.5354 5.52844 14.4662C5.45829 14.3971 5.3752 14.3425 5.28393 14.3054C5.19266 14.2684 5.09499 14.2497 4.9965 14.2505C4.89801 14.2512 4.80062 14.2713 4.70991 14.3097C4.61919 14.348 4.53691 14.4039 4.46778 14.474C4.39865 14.5442 4.34401 14.6273 4.30699 14.7185C4.26996 14.8098 4.25128 14.9075 4.252 15.006C4.259 15.929 4.286 16.632 4.436 17.204C4.602 17.834 4.906 18.274 5.361 18.707C5.888 19.207 6.531 19.458 7.283 19.59C8.016 19.718 8.914 19.743 9.996 19.749C10.0945 19.7495 10.1921 19.7306 10.2833 19.6934C10.3745 19.6562 10.4575 19.6014 10.5275 19.5321C10.5975 19.4628 10.6532 19.3805 10.6914 19.2897C10.7296 19.1989 10.7495 19.1015 10.75 19.003C10.7505 18.9045 10.7316 18.8068 10.6944 18.7156C10.6572 18.6245 10.6024 18.5415 10.5332 18.4715C10.4639 18.4014 10.3815 18.3458 10.2907 18.3076C10.1999 18.2694 10.1025 18.2495 10.004 18.249C8.911 18.243 8.133 18.216 7.541 18.112C6.968 18.012 6.638 17.851 6.396 17.62C6.093 17.332 5.966 17.125 5.887 16.823C5.792 16.461 5.76 15.943 5.752 14.995ZM19.748 15.006C19.7487 14.9075 19.73 14.8098 19.693 14.7185C19.656 14.6273 19.6014 14.5442 19.5322 14.474C19.4631 14.4039 19.3808 14.348 19.2901 14.3097C19.1994 14.2713 19.102 14.2512 19.0035 14.2505C18.905 14.2497 18.8073 14.2684 18.7161 14.3054C18.6248 14.3425 18.5417 14.3971 18.4716 14.4662C18.4014 14.5354 18.3456 14.6177 18.3072 14.7084C18.2688 14.7991 18.2487 14.8965 18.248 14.995C18.24 15.943 18.208 16.461 18.113 16.823C18.033 17.125 17.907 17.332 17.604 17.62C17.362 17.85 17.032 18.012 16.459 18.112C15.867 18.216 15.089 18.242 13.996 18.249C13.8975 18.2495 13.8001 18.2694 13.7093 18.3076C13.6185 18.3458 13.5361 18.4014 13.4668 18.4715C13.3269 18.6129 13.2489 18.8041 13.25 19.003C13.2511 19.2019 13.3311 19.3922 13.4725 19.5321C13.6139 19.672 13.8051 19.75 14.004 19.749C15.086 19.743 15.984 19.719 16.717 19.589C17.469 19.459 18.112 19.208 18.639 18.707C19.094 18.273 19.399 17.834 19.564 17.204C19.714 16.632 19.741 15.929 19.748 15.006Z" fill="#2F4C21"/>
</svg>
