<svg width="24" height="24" viewBox="0 0 24 24" fill="none" xmlns="http://www.w3.org/2000/svg">
<g filter="url(#filter0_bii_71_1281)">
<path opacity="0.35" d="M20 6.00001H4V3.36301C4 2.86001 4.608 2.60801 4.964 2.96401L5.4 3.40001C5.695 3.69501 6.193 3.61401 6.38 3.24101C6.685 2.63101 7.499 2.49801 7.982 2.98101L8.4 3.40001C8.695 3.69501 9.193 3.61401 9.38 3.24101C9.685 2.63101 10.499 2.49801 10.982 2.98101L11.4 3.40001C11.695 3.69501 12.193 3.61401 12.38 3.24101C12.685 2.63101 13.499 2.49801 13.982 2.98101L14.4 3.40001C14.695 3.69501 15.193 3.61401 15.38 3.24101C15.685 2.63101 16.499 2.49801 16.982 2.98101L17.568 3.56701C17.807 3.80601 18.194 3.80601 18.433 3.56701L19.037 2.96301C19.392 2.60801 20 2.86001 20 3.36301V6.00001Z" fill="#213F12"/>
<path opacity="0.35" d="M4 18H20V20.637C20 21.14 19.392 21.392 19.036 21.036L18.6 20.6C18.305 20.305 17.807 20.386 17.62 20.759C17.315 21.369 16.501 21.502 16.018 21.019L15.6 20.6C15.305 20.305 14.807 20.386 14.62 20.759C14.315 21.37 13.501 21.502 13.018 21.019L12.6 20.6C12.305 20.305 11.807 20.386 11.62 20.759C11.315 21.369 10.501 21.502 10.018 21.019L9.6 20.6C9.305 20.305 8.807 20.386 8.62 20.759C8.315 21.369 7.501 21.502 7.018 21.019L6.432 20.433C6.193 20.194 5.806 20.194 5.567 20.433L4.963 21.037C4.608 21.392 4 21.14 4 20.637V18Z" fill="#213F12"/>
<path opacity="0.35" d="M16.89 9.74702C16.658 8.95402 16.002 8.31502 15.204 8.09702C14.557 7.92002 13.935 7.99602 13.415 8.24902C12.662 8.61402 11.884 8.89602 11.059 9.03802C10.427 9.14702 9.72899 9.51002 8.92099 10.35C8.36899 10.924 8.00299 11.69 7.99999 12.486C7.99299 14.426 9.56199 16 11.5 16C12.537 16 13.463 15.548 14.099 14.83C14.851 13.981 15.507 13.049 16.297 12.235C16.89 11.624 17.172 10.711 16.89 9.74702Z" fill="#213F12"/>
<path d="M20 6H3.99999C2.70199 9.895 2.70199 14.105 3.99999 18H20C21.298 14.105 21.298 9.895 20 6ZM16.297 12.235C15.82 12.727 15.388 13.259 14.958 13.793C14.86 13.343 14.479 13 14 13C13.448 13 13 13.448 13 14C13 14.527 13.412 14.948 13.929 14.986C13.302 15.606 12.454 16 11.5 16C10.543 16 9.67699 15.614 9.04499 14.991C9.57499 14.966 9.99999 14.536 9.99999 14C9.99999 13.448 9.55199 13 8.99999 13C8.63799 13 8.33499 13.202 8.15999 13.49C8.06499 13.17 7.99899 12.838 7.99999 12.486C8.00299 11.689 8.36899 10.924 8.92099 10.349C9.72899 9.508 10.427 9.145 11.059 9.037C11.884 8.895 12.662 8.613 13.415 8.248C13.936 7.995 14.557 7.919 15.204 8.096C16.001 8.314 16.657 8.953 16.89 9.746C17.172 10.711 16.89 11.624 16.297 12.235Z" fill="#213F12"/>
<path d="M12 12C12.5523 12 13 11.5523 13 11C13 10.4477 12.5523 10 12 10C11.4477 10 11 10.4477 11 11C11 11.5523 11.4477 12 12 12Z" fill="#213F12"/>
</g>
<defs>
<filter id="filter0_bii_71_1281" x="-12" y="-12" width="48" height="48" filterUnits="userSpaceOnUse" color-interpolation-filters="sRGB">
<feFlood flood-opacity="0" result="BackgroundImageFix"/>
<feGaussianBlur in="BackgroundImageFix" stdDeviation="6"/>
<feComposite in2="SourceAlpha" operator="in" result="effect1_backgroundBlur_71_1281"/>
<feBlend mode="normal" in="SourceGraphic" in2="effect1_backgroundBlur_71_1281" result="shape"/>
<feColorMatrix in="SourceAlpha" type="matrix" values="0 0 0 0 0 0 0 0 0 0 0 0 0 0 0 0 0 0 127 0" result="hardAlpha"/>
<feOffset dx="-1.24988" dy="1.24988"/>
<feGaussianBlur stdDeviation="0.624942"/>
<feComposite in2="hardAlpha" operator="arithmetic" k2="-1" k3="1"/>
<feColorMatrix type="matrix" values="0 0 0 0 1 0 0 0 0 1 0 0 0 0 1 0 0 0 0.1 0"/>
<feBlend mode="normal" in2="shape" result="effect2_innerShadow_71_1281"/>
<feColorMatrix in="SourceAlpha" type="matrix" values="0 0 0 0 0 0 0 0 0 0 0 0 0 0 0 0 0 0 127 0" result="hardAlpha"/>
<feOffset dx="1.24988" dy="-1.24988"/>
<feGaussianBlur stdDeviation="0.624942"/>
<feComposite in2="hardAlpha" operator="arithmetic" k2="-1" k3="1"/>
<feColorMatrix type="matrix" values="0 0 0 0 0.76 0 0 0 0 0.76 0 0 0 0 0.76 0 0 0 0.096 0"/>
<feBlend mode="normal" in2="effect2_innerShadow_71_1281" result="effect3_innerShadow_71_1281"/>
</filter>
</defs>
</svg>
