<svg width="24" height="24" viewBox="0 0 24 24" fill="none" xmlns="http://www.w3.org/2000/svg">
<path opacity="0.5" d="M21.838 11.126L21.609 13.562C21.231 17.574 21.042 19.581 19.859 20.79C18.678 22 16.906 22 13.36 22H10.64C7.09496 22 5.32296 22 4.13996 20.79C2.95696 19.58 2.76896 17.574 2.39096 13.562L2.16096 11.126C1.98096 9.214 1.89096 8.257 2.21896 7.862C2.30141 7.75902 2.40358 7.67351 2.51948 7.6105C2.63538 7.54748 2.76269 7.50822 2.89396 7.495C3.36996 7.453 3.96696 8.133 5.16196 9.493C5.77996 10.197 6.08896 10.548 6.43296 10.603C6.62509 10.6329 6.82178 10.6015 6.99496 10.513C7.31396 10.353 7.52495 9.918 7.94995 9.049L10.187 4.465C10.989 2.822 11.39 2 12 2C12.61 2 13.011 2.822 13.813 4.465L16.05 9.049C16.474 9.919 16.686 10.353 17.005 10.513C17.181 10.602 17.375 10.633 17.567 10.603C17.911 10.548 18.22 10.197 18.838 9.493C20.033 8.133 20.63 7.453 21.106 7.495C21.2372 7.50822 21.3645 7.54748 21.4804 7.6105C21.5963 7.67351 21.6985 7.75902 21.781 7.862C22.108 8.257 22.018 9.214 21.838 11.126Z" fill="#3E632B"/>
<path d="M12.952 12.699L12.854 12.523C12.474 11.841 12.284 11.5 12 11.5C11.716 11.5 11.526 11.84 11.146 12.523L11.048 12.699C10.94 12.893 10.886 12.989 10.802 13.053C10.717 13.117 10.612 13.141 10.402 13.188L10.212 13.232C9.47404 13.399 9.10504 13.482 9.01704 13.764C8.92904 14.047 9.18104 14.341 9.68404 14.929L9.81404 15.081C9.95704 15.248 10.029 15.331 10.061 15.435C10.093 15.539 10.082 15.65 10.061 15.873L10.041 16.076C9.96504 16.861 9.92704 17.254 10.156 17.428C10.386 17.602 10.732 17.443 11.423 17.125L11.601 17.043C11.798 16.953 11.896 16.907 12 16.907C12.104 16.907 12.202 16.953 12.399 17.043L12.577 17.125C13.268 17.444 13.614 17.602 13.844 17.428C14.074 17.254 14.035 16.861 13.959 16.076L13.939 15.873C13.918 15.65 13.907 15.539 13.939 15.435C13.971 15.332 14.043 15.248 14.186 15.081L14.316 14.929C14.819 14.341 15.071 14.047 14.983 13.764C14.895 13.482 14.526 13.399 13.788 13.232L13.598 13.188C13.388 13.141 13.283 13.118 13.198 13.053C13.114 12.989 13.06 12.893 12.952 12.699Z" fill="#3E632B"/>
</svg>
