<svg width="16" height="16" viewBox="0 0 16 16" fill="none" xmlns="http://www.w3.org/2000/svg">
<g clip-path="url(#clip0_1042_2553)">
<path d="M7.99995 0H3.99995C2.89729 0 1.99995 0.897333 1.99995 2V4C1.99995 5.10267 2.89729 6 3.99995 6H7.99995C9.10262 6 9.99995 5.10267 9.99995 4V2C9.99995 0.897333 9.10262 0 7.99995 0ZM6.66662 2.66667H5.33329C4.96529 2.66667 4.66662 2.36867 4.66662 2C4.66662 1.63133 4.96529 1.33333 5.33329 1.33333H6.66662C7.03462 1.33333 7.33329 1.63133 7.33329 2C7.33329 2.36867 7.03462 2.66667 6.66662 2.66667ZM15.5606 8.23L10.426 13.836C9.16329 15.2147 7.37929 16 5.50995 16H2.66862C1.19595 16 0.00195312 14.806 0.00195312 13.3333V10C0.00195312 8.52733 1.19595 7.33333 2.66862 7.33333H7.85995C8.77595 7.33333 9.49995 8.17333 9.30262 9.12333C9.17462 9.74067 8.63329 10.1887 8.00929 10.278L5.23462 10.6667C4.86995 10.7187 4.61662 11.0567 4.66929 11.4207C4.72129 11.7853 5.05929 12.038 5.42329 11.986L8.25795 11.5887C9.63262 11.3927 10.6693 10.1973 10.6693 8.80867C10.6693 8.66267 10.648 8.52267 10.626 8.38333L12.9866 5.892C13.29 5.55867 13.718 5.35667 14.1826 5.33533C14.644 5.31267 15.0913 5.47467 15.4346 5.78733C16.136 6.426 16.1933 7.52133 15.5606 8.23Z" fill="#213F12"/>
</g>
<defs>
<clipPath id="clip0_1042_2553">
<rect width="16" height="16" fill="white"/>
</clipPath>
</defs>
</svg>
