<svg width="16" height="16" viewBox="0 0 16 16" fill="none" xmlns="http://www.w3.org/2000/svg">
<g clip-path="url(#clip0_1042_2551)">
<path d="M4 6H8C9.10267 6 10 5.10267 10 4V2C10 0.897333 9.10267 0 8 0H4C2.89733 0 2 0.897333 2 2V4C2 5.10267 2.89733 6 4 6ZM3.33333 2C3.33333 1.632 3.63267 1.33333 4 1.33333H8C8.36733 1.33333 8.66667 1.632 8.66667 2V4C8.66667 4.368 8.36733 4.66667 8 4.66667H4C3.63267 4.66667 3.33333 4.368 3.33333 4V2ZM4.66667 2.66667C4.66667 2.298 4.96533 2 5.33333 2H6.66667C7.03467 2 7.33333 2.298 7.33333 2.66667C7.33333 3.03533 7.03467 3.33333 6.66667 3.33333H5.33333C4.96533 3.33333 4.66667 3.03533 4.66667 2.66667ZM15.3447 5.85667C14.948 5.49533 14.4353 5.31267 13.8993 5.33533C13.3633 5.36067 12.87 5.59333 12.5087 5.98933L10.3647 8.34533C9.99733 7.73933 9.33133 7.33267 8.572 7.33267H2.66667C1.196 7.33267 0 8.52867 0 9.99933V13.3327C0 14.8033 1.196 15.9993 2.66667 15.9993H5.97667C7.876 15.9993 9.69 15.186 10.954 13.7673L15.4907 8.67533C16.2193 7.85733 16.1533 6.59333 15.3447 5.85667ZM14.4953 7.78933L9.95867 12.8813C8.94733 14.0153 7.496 14.6667 5.97667 14.6667H2.66667C1.93133 14.6667 1.33333 14.0687 1.33333 13.3333V10C1.33333 9.26467 1.93133 8.66667 2.66667 8.66667H8.572C8.992 8.66667 9.33333 9.00867 9.33333 9.42867C9.33333 9.80467 9.05267 10.1293 8.67933 10.182L5.23867 10.6733C4.87467 10.7253 4.62133 11.0633 4.67333 11.428C4.726 11.7933 5.06333 12.0473 5.42733 11.994L8.86733 11.5027C9.65067 11.3907 10.2873 10.844 10.544 10.13L13.4947 6.88733C13.616 6.75467 13.7813 6.67667 13.9613 6.668C14.144 6.65733 14.3133 6.722 14.4467 6.84333C14.718 7.09067 14.74 7.516 14.4953 7.79067V7.78933Z" fill="#213F12"/>
</g>
<defs>
<clipPath id="clip0_1042_2551">
<rect width="16" height="16" fill="white"/>
</clipPath>
</defs>
</svg>
