<svg width="24" height="24" viewBox="0 0 24 24" fill="none" xmlns="http://www.w3.org/2000/svg">
<g opacity="0.35" filter="url(#filter0_bii_442_17593)">
<path fill-rule="evenodd" clip-rule="evenodd" d="M7.79328 3.01599C5.11228 4.35399 4.23478 5.23449 3.03228 7.79249C0.682781 12.7905 2.57628 18.255 7.52728 20.764C10.7753 22.41 13.5398 22.3645 16.7483 20.612C21.5523 17.9885 23.2543 12.442 20.7638 7.52749C18.2763 2.61849 12.5683 0.633488 7.79328 3.01599Z" fill="#213F12"/>
</g>
<g filter="url(#filter1_bii_442_17593)">
<path fill-rule="evenodd" clip-rule="evenodd" d="M10.2785 2.644C10.4145 2.9985 9.849 3.937 9.0215 4.7295C7.5495 6.14 7.4955 6.151 6.497 5.247C5.7265 4.55 5.335 4.465 4.9 4.9C4.465 5.335 4.55 5.7265 5.247 6.497C6.151 7.4955 6.14 7.5495 4.7295 9.0215C3.937 9.849 2.9985 10.4145 2.644 10.2785C2.186 10.1025 2 10.5995 2 12C2 13.4005 2.186 13.8975 2.644 13.7215C2.9985 13.5855 3.937 14.151 4.7295 14.9785C6.14 16.4505 6.151 16.5045 5.247 17.503C4.55 18.2735 4.465 18.665 4.9 19.1C5.335 19.535 5.7265 19.45 6.497 18.753C7.4955 17.849 7.5495 17.86 9.0215 19.2705C9.849 20.063 10.4145 21.0015 10.2785 21.356C10.1025 21.814 10.5995 22 12 22C13.4005 22 13.8975 21.814 13.7215 21.356C13.5855 21.0015 14.151 20.063 14.9785 19.2705C16.4505 17.86 16.5045 17.849 17.503 18.753C18.2735 19.45 18.665 19.535 19.1 19.1C19.535 18.665 19.45 18.2735 18.753 17.503C17.849 16.5045 17.86 16.4505 19.2705 14.9785C20.063 14.151 21.0015 13.5855 21.356 13.7215C21.814 13.8975 22 13.4005 22 12C22 10.5995 21.814 10.1025 21.356 10.2785C21.0015 10.4145 20.063 9.849 19.2705 9.0215C17.86 7.5495 17.849 7.4955 18.753 6.497C19.45 5.7265 19.535 5.335 19.1 4.9C18.665 4.465 18.2735 4.55 17.503 5.247C16.5045 6.151 16.4505 6.14 14.9785 4.7295C14.151 3.937 13.5855 2.9985 13.7215 2.644C13.8975 2.186 13.4005 2 12 2C10.5995 2 10.1025 2.186 10.2785 2.644ZM10.2395 6.011L8.7915 7.5225L10.396 9.1265L12 10.731L13.604 9.1265L15.2085 7.5225L13.7605 6.011C12.9645 5.18 12.172 4.5 12 4.5C11.828 4.5 11.0355 5.18 10.2395 6.011ZM5.7395 10.511L4.2915 12.0225L5.896 13.6265L7.5 15.231L9.104 13.6265L10.7085 12.0225L9.2605 10.511C8.4645 9.68 7.672 9 7.5 9C7.328 9 6.5355 9.68 5.7395 10.511ZM14.7395 10.511L13.2915 12.0225L14.896 13.6265L16.5 15.231L18.104 13.6265L19.7085 12.0225L18.2605 10.511C17.4645 9.68 16.672 9 16.5 9C16.328 9 15.5355 9.68 14.7395 10.511ZM10.2395 15.011L8.7915 16.5225L10.396 18.1265L12 19.731L13.604 18.1265L15.2085 16.5225L13.7605 15.011C12.9645 14.18 12.172 13.5 12 13.5C11.828 13.5 11.0355 14.18 10.2395 15.011Z" fill="#213F12"/>
</g>
<defs>
<filter id="filter0_bii_442_17593" x="-9.97021" y="-9.99023" width="43.874" height="43.9536" filterUnits="userSpaceOnUse" color-interpolation-filters="sRGB">
<feFlood flood-opacity="0" result="BackgroundImageFix"/>
<feGaussianBlur in="BackgroundImageFix" stdDeviation="6"/>
<feComposite in2="SourceAlpha" operator="in" result="effect1_backgroundBlur_442_17593"/>
<feBlend mode="normal" in="SourceGraphic" in2="effect1_backgroundBlur_442_17593" result="shape"/>
<feColorMatrix in="SourceAlpha" type="matrix" values="0 0 0 0 0 0 0 0 0 0 0 0 0 0 0 0 0 0 127 0" result="hardAlpha"/>
<feOffset dx="-1.24988" dy="1.24988"/>
<feGaussianBlur stdDeviation="0.624942"/>
<feComposite in2="hardAlpha" operator="arithmetic" k2="-1" k3="1"/>
<feColorMatrix type="matrix" values="0 0 0 0 1 0 0 0 0 1 0 0 0 0 1 0 0 0 0.1 0"/>
<feBlend mode="normal" in2="shape" result="effect2_innerShadow_442_17593"/>
<feColorMatrix in="SourceAlpha" type="matrix" values="0 0 0 0 0 0 0 0 0 0 0 0 0 0 0 0 0 0 127 0" result="hardAlpha"/>
<feOffset dx="1.24988" dy="-1.24988"/>
<feGaussianBlur stdDeviation="0.624942"/>
<feComposite in2="hardAlpha" operator="arithmetic" k2="-1" k3="1"/>
<feColorMatrix type="matrix" values="0 0 0 0 0.76 0 0 0 0 0.76 0 0 0 0 0.76 0 0 0 0.096 0"/>
<feBlend mode="normal" in2="effect2_innerShadow_442_17593" result="effect3_innerShadow_442_17593"/>
</filter>
<filter id="filter1_bii_442_17593" x="-10" y="-10" width="44" height="44" filterUnits="userSpaceOnUse" color-interpolation-filters="sRGB">
<feFlood flood-opacity="0" result="BackgroundImageFix"/>
<feGaussianBlur in="BackgroundImageFix" stdDeviation="6"/>
<feComposite in2="SourceAlpha" operator="in" result="effect1_backgroundBlur_442_17593"/>
<feBlend mode="normal" in="SourceGraphic" in2="effect1_backgroundBlur_442_17593" result="shape"/>
<feColorMatrix in="SourceAlpha" type="matrix" values="0 0 0 0 0 0 0 0 0 0 0 0 0 0 0 0 0 0 127 0" result="hardAlpha"/>
<feOffset dx="-1.24988" dy="1.24988"/>
<feGaussianBlur stdDeviation="0.624942"/>
<feComposite in2="hardAlpha" operator="arithmetic" k2="-1" k3="1"/>
<feColorMatrix type="matrix" values="0 0 0 0 1 0 0 0 0 1 0 0 0 0 1 0 0 0 0.1 0"/>
<feBlend mode="normal" in2="shape" result="effect2_innerShadow_442_17593"/>
<feColorMatrix in="SourceAlpha" type="matrix" values="0 0 0 0 0 0 0 0 0 0 0 0 0 0 0 0 0 0 127 0" result="hardAlpha"/>
<feOffset dx="1.24988" dy="-1.24988"/>
<feGaussianBlur stdDeviation="0.624942"/>
<feComposite in2="hardAlpha" operator="arithmetic" k2="-1" k3="1"/>
<feColorMatrix type="matrix" values="0 0 0 0 0.76 0 0 0 0 0.76 0 0 0 0 0.76 0 0 0 0.096 0"/>
<feBlend mode="normal" in2="effect2_innerShadow_442_17593" result="effect3_innerShadow_442_17593"/>
</filter>
</defs>
</svg>
