<svg width="17" height="16" viewBox="0 0 17 16" fill="none" xmlns="http://www.w3.org/2000/svg">
<g clip-path="url(#clip0_1042_2599)">
<path d="M14.5 3.99992H3.83333C3.26067 3.99992 2.71867 3.75192 2.34333 3.33392C2.71 2.92459 3.24267 2.66659 3.83333 2.66659H15.8333C16.7053 2.66259 16.7047 1.33659 15.8333 1.33325H3.83333C1.99267 1.33325 0.5 2.82592 0.5 4.66659V11.3333C0.5 13.1739 1.99267 14.6666 3.83333 14.6666H14.5C15.6047 14.6666 16.5 13.7713 16.5 12.6666V5.99992C16.5 4.89525 15.6047 3.99992 14.5 3.99992ZM13.8333 9.99992C12.9613 9.99592 12.9613 8.67059 13.8333 8.66659C14.7053 8.67059 14.7053 9.99592 13.8333 9.99992Z" fill="white"/>
</g>
<defs>
<clipPath id="clip0_1042_2599">
<rect width="16" height="16" fill="white" transform="translate(0.5)"/>
</clipPath>
</defs>
</svg>
