<svg width="17" height="16" viewBox="0 0 17 16" fill="none" xmlns="http://www.w3.org/2000/svg">
<g clip-path="url(#clip0_1042_2597)">
<path d="M14.5 3.99992H3.83333C3.26067 3.99992 2.71867 3.75192 2.34333 3.33392C2.71 2.92459 3.24267 2.66659 3.83333 2.66659H15.8333C16.202 2.66659 16.5 2.36792 16.5 1.99992C16.5 1.63192 16.202 1.33325 15.8333 1.33325H3.83333C1.99267 1.33325 0.5 2.82592 0.5 4.66659V11.3333C0.5 13.1739 1.99267 14.6666 3.83333 14.6666H14.5C15.6047 14.6666 16.5 13.7713 16.5 12.6666V5.99992C16.5 4.89525 15.6047 3.99992 14.5 3.99992ZM15.1667 12.6666C15.1667 13.0339 14.868 13.3333 14.5 13.3333H3.83333C2.73067 13.3333 1.83333 12.4359 1.83333 11.3333V4.66525C2.40267 5.09125 3.10267 5.33325 3.83333 5.33325H14.5C14.868 5.33325 15.1667 5.63259 15.1667 5.99992V12.6666ZM13.8333 9.33325C13.8333 9.70125 13.5347 9.99992 13.1667 9.99992C12.7987 9.99992 12.5 9.70125 12.5 9.33325C12.5 8.96525 12.7987 8.66659 13.1667 8.66659C13.5347 8.66659 13.8333 8.96525 13.8333 9.33325Z" fill="#213F12"/>
</g>
<defs>
<clipPath id="clip0_1042_2597">
<rect width="16" height="16" fill="white" transform="translate(0.5)"/>
</clipPath>
</defs>
</svg>
